/* XPM */
static char *fotograma_000001[] = {
/* columns rows colors chars-per-pixel */
"103 27 47 1 ",
"  c black",
". c #030303",
"X c #040505",
"o c #121315",
"O c #141517",
"+ c #262626",
"@ c #27292C",
"# c #282828",
"$ c #3A3A3A",
"% c #3C3C3C",
"& c #444444",
"* c #4C4C4C",
"= c #585858",
"- c #5F5F5F",
"; c gray39",
": c #6B6B6B",
"> c gray43",
", c #727272",
"< c gray47",
"1 c #7C7C7C",
"2 c #818181",
"3 c gray52",
"4 c #898989",
"5 c #8B8B8B",
"6 c gray56",
"7 c gray57",
"8 c #9A9A9A",
"9 c gray61",
"0 c #A2A2A2",
"q c gray66",
"w c gray70",
"e c #B6B6B6",
"r c #B9B9B9",
"t c gray",
"y c #C3C3C3",
"u c gray77",
"i c #C8C8C8",
"p c gray81",
"a c #D2D2D2",
"s c #D7D7D7",
"d c gainsboro",
"f c #E2E2E2",
"g c gray89",
"h c gray91",
"j c #ECECEC",
"k c #F4F4F4",
"l c white",
/* pixels */
"@oX                                                                                                   @",
"O                                                                                                     O",
"X                                                                                                     X",
"                                                                                                      .",
"                                                                                                      .",
"X                                                                                                     X",
"X                                                                                                      ",
".                                                                                                     X",
"                                                                                                      .",
"             hl1  #ll                                        :y                                       .",
"X            hlq  8ll                                        8a                                       .",
"X            hdk  ydl &dllq#l= =l#8lld= lalk=hle :hlk4 adhle:lla4lld&                                 .",
".            hql=#l8l pa :l1yq 8u=k= 8d ly ak&4l#k4 :l#ph&:l=8p h8 dq                                 .",
".            h8yq1k>l l1  aq1h h18lllll l4 8a &l=lllll>ae  l:8a ulaq                                  .",
".            i33tq7-d d:  w7+a3a+3t     d< 3w $d*d+    w9  d-3w  =9ii                                 .",
".            p4%ff>-f rr -f> 0f0 -f1 0u f1 4r %f*d0 1f+r0  f-4u d4 1d                                 .",
".            s6 pf#;j %pjj9  ,j,  4jha= j2 4y %j%;dhf2 yq  j;;jy;gjg2                                 .",
".                                                                                                     .",
"                                                                                                       ",
"                                                                                                       ",
"                                                                                                       ",
"                                                                                                       ",
".                                                                                                     .",
".                                                                                                     .",
"X                                                                                                     X",
"O                                                                                                     O",
"@o.                                                                                                   @"
};
