/* XPM */
static char *orange_e_png[] = {
/* columns rows colors chars-per-pixel */
"4 22 44 1 ",
"  c #281E14",
". c #26211B",
"X c #212121",
"o c #272422",
"O c #27292D",
"+ c #3A2F21",
"@ c #4C351D",
"# c #5A3B18",
"$ c #7F500F",
"% c #674311",
"& c #6E471D",
"* c #82500C",
"= c #89540D",
"- c #8B560F",
"; c #8E5812",
": c #915A14",
"> c #945C17",
", c #AC6707",
"< c #A06108",
"1 c #AD680C",
"2 c #B16B0C",
"3 c #B36E0E",
"4 c #B46E0E",
"5 c #B77011",
"6 c #BA7314",
"7 c #BE7618",
"8 c #895925",
"9 c #9F6522",
"0 c #9D6526",
"q c #A26724",
"w c #A36926",
"e c #B0722E",
"r c #C2781B",
"t c #C97E22",
"y c #D08429",
"u c #D4872D",
"i c #CF8635",
"p c #D88A30",
"a c #DB8D33",
"s c #DE8F36",
"d c #D48938",
"f c #DD8F39",
"g c #E19139",
"h c #E4943B",
/* pixels */
" XOO",
"8#.O",
"de&o",
"hfe@",
"ggi$",
"ssa0",
"aaaw",
"pppq",
"uuy9",
"yyy0",
"tyt0",
"ttt0",
"ttr>",
"7rr:",
"777;",
"666-",
"555-",
"334*",
"221%",
"11<+",
",<#O",
"$@OO"
};
