/* XPM */
static char *pa_d_png[] = {
/* columns rows colors chars-per-pixel */
"79 33 84 1 ",
"  c #17191C",
". c #181A1E",
"X c #1B1D21",
"o c #1C1E22",
"O c #22252A",
"+ c #272F38",
"@ c #2B3037",
"# c #273039",
"$ c #28313A",
"% c #2B343E",
"& c #2C353F",
"* c #31353B",
"= c #34383E",
"- c #2C3540",
"; c #2E3842",
": c #333941",
"> c #333D47",
", c #353E47",
"< c #383F47",
"1 c #3B424A",
"2 c #3B434B",
"3 c #3A434D",
"4 c #3C434C",
"5 c #3B444E",
"6 c #3E454E",
"7 c #3F454F",
"8 c #404750",
"9 c #414850",
"0 c #464B53",
"q c #424B55",
"w c #454B54",
"e c #474D56",
"r c #484D56",
"t c #444D58",
"y c #474F5A",
"u c #4A4F58",
"i c #47505B",
"p c #4A5058",
"a c #4C515A",
"s c #4C515B",
"d c #49515C",
"f c #4C5460",
"g c #4E5763",
"h c #4F5863",
"j c #535862",
"k c #515B67",
"l c #545A64",
"z c #535C67",
"x c #525C68",
"c c #535D69",
"v c #545E6A",
"b c #555F6B",
"n c #575F6B",
"m c #56606C",
"M c #5A606A",
"N c #5A636F",
"B c #5C646F",
"V c #5A6370",
"C c #5B6571",
"Z c #5E6773",
"A c #5E6774",
"S c #5F6875",
"D c #606874",
"F c #616A77",
"G c #626B78",
"H c #636C78",
"J c #636C79",
"K c #646D79",
"L c #666F7C",
"P c #676F7C",
"I c #67707B",
"U c #67707C",
"Y c #6A737D",
"T c #6B737F",
"R c #6B747F",
"E c #6C747F",
"W c #6B7380",
"Q c #6C7481",
"! c #6D7582",
"~ c #6F7784",
"^ c #707883",
"/ c #707884",
"( c #707885",
") c #757D88",
/* pixels */
"OOOOOOOOOOOOOOOOOOOOOOOOOOOOOOOOOOOOOOOOOOOOOOOOOOOOOOOOOOOOOOOOOOOOOOOOOOOOOOO",
"OOOOOOOOOOOOOOOOOOOOOOOOOOOOOOOOOOOOOOOOOOOOOOOOOOOOOOOOOOOOOOOOOOOOOOOOOOOOOOO",
"OOOOOOOOOOOOOOOOOOOOOOOOOOOOOOOOOOOOOOOOOOOOOOOOOOOOOOOOOOOOOOOOOOOOOOOOOOOOOOO",
"OOOO .XoooooooooooooooooooooooooooooooooooooooooooooooooooooooooooooooooX XOOOO",
"OOOo=pjllllllllllllllllkllklllllllllllllllllllkklllllllllllklllllllllllkju=oOOO",
"OOO*MT~(((((((((~~////////~~////(((/////(^^(^^~~((~~((~~^(^~((((((((////!Wn*OOO",
"OOO0T~~~~~(~~(~~~~~~/~~~~~~~/~~~~~/~~/~~~~~~~~~~~~~~~~~~(^~~~~~~(!((!(///(WwOOO",
"OOOaT!!~~!!~!!~!~!~!~~Q~~~~~!~!~~!!~!Q~~!~!~!~~~~~~!~~~!!!!~!~~~(!!!!!/Q!!QuOOO",
"OOOsQ!!!!!W~!W~!~Q!~Q!Q~!!!Q!!QQ!!!!QQ~QQ~QQ!!!!!!!Q!!!Q!!!QQ/QQQQQ!!!QQ!QQdOOO",
"OOOyYQQQW!!WW!!WQWWQQWQQQQQQQQQW!!!WQQQQQQQQQQQQQQQQQQQW!!QQQQQQQWQQQQQQQQQuOOO",
"OOOuQYYYWTTW!!TWQQQYWQQQQQ!QQWTTWWWWQQWWQQQQQWTTQQQQQWYQQQQQTQQWQWWQQQQQQQYuOOO",
"OOOuLPLTTTUTLUWLPYPQWLTLQLPYLTTYWLWWUTUTUUWUITITPPPYPWPQYPWLWLTWYPWYQPPQTTPrOOO",
"OOOuLTLTLTUTIWUUIYPYLTITLLLTTIIYLLWLLTTUUUUUTUTLPPQLIYPYPYIYLTLLYLYPLQPYLTJrOOO",
"OOOuLLLLLLLIIUUULLLPLLLLPTLLLLLLy+5++qILS5@$#qFTTLLLLLPPLILLLLPLILPLLLPILLJrOOO",
"OOOrFIIHLLFLLLLLILHLHLLLLLLLLLLJf-7!J;xL5>!)c;zLHLLLILJIJPLHLLLLILLLJLHILJLyOOO",
"OOOrFHLFLHLJJJJJHLHHLHHHHFLFHFLLs-Q/Jp>QJ^(JZ-mEJLJJLJJLJJLJHJJJHHHJHLHHLHF0OOO",
"OOOrFGGGGJGJGGFJFJFJFJFJFJFJFJFJd;(JJd;EGgqq$&mUFFJFSJGJGGFFGGGGFFGGGGFFGGF0OOO",
"OOOwAGFFSGSGSGFFFFFFFFFFFFFFFFFFd1(FJp&!7#ypN;mTFJFFGGGSSGFFFFFFFFFFFFFFFFF9OOO",
"OOO8ZFFAGASAGSFSFSFSSFFSFSSAFSFSd%TSSq5R%j^TB;xIAFFDSSSAGFSFFSFFSFFSFFSFDFZ9OOO",
"OOO8ZAZAAAAAAZZZZZZZZZZZAAAZZZZZi-qZk#hR;iLc,&zLZAAZAAAAAZZZZZZZAAZAZZZZZZZqOOO",
"OOO9NZZZZCZZCZZZCZZZZZZCAZZZZZCZi%y;%iQJd;;%d>pJZZZZCZAZZACZZZZCZCZZCZZZZZZ8OOO",
"OOO7NCNNCVVCCCNZCCVVCCCNCCVCVCCCe%RIRTJCZFRR!J!IZNCCCVCCVCVVNCCCCVVCCCVVCNV8OOO",
"OOO7VVNVVVVVNNVVVVVVVVNVVVVVVVVVi%RCVVVVVVCNVVVVNNVVVVVVVVVVVVNNVVVVVVVVVVc8OOO",
"OOO7nnNNVVVnNNVVNVVVmNNNmVVVmNVVq%TmVVVmNVCmmVVVNNnVVNnVNNNVVmNNNVVmNNNNNNn8OOO",
"OOO6nVVCNZNxmmCmcmmCmmCmNmCmmmNmmFQNcCcZmmCmCmmmNmVmmCmmcmmmCmNmCNcNNcNmZcc6OOO",
"OOO3ccccccmMcNmmNcmnmmmmcmmmmmmmmxmmmmmcmmmmmmmmcmmmmmmmmmcNmmmmmmNccNmmcCc6OOO",
"OOO3cNNcmmncmcmcmmnnmmmmcNnnmmmccmcmcmccmxmmcccmmmmncmmvNmmcnnncNccccNcNccc1OOO",
"OOO1cczccmccmcccxxmxxmxcccccxmccmcmccmccmxmxxNcmmxxmxnmvccxmncmcccmcccccccx1OOO",
"OOO<kcccccccccccxxccccccccccccccccccmcccxvxxxvxxxxxxvxvxvxxxxxxnccccccccmcz<OOO",
"OOO@gxxkccxxxxxxccxxxxxxccckckckxxxxczzcxxvxxxxxxxxnxxxxxxxxxxxxkcckkckcczg@OOO",
"OOOO:gkkxxxxxxxxxxxxxxxxkckckckcxxxxxxxxxxxxxxxxxxxxxxxxxxxxxxxxckkcckkkkg:OOOO",
"OOOOOOOOOOOOOOOOOOOOOOOOOOOOOOOOOOOOOOOOOOOOOOOOOOOOOOOOOOOOOOOOOOOOOOOOOOOOOOO",
"OOOOOOOOOOOOOOOOOOOOOOOOOOOOOOOOOOOOOOOOOOOOOOOOOOOOOOOOOOOOOOOOOOOOOOOOOOOOOOO"
};
