/* XPM */
static char *pa_u_png[] = {
/* columns rows colors chars-per-pixel */
"79 33 141 2 ",
"   c #0F1013",
".  c #111215",
"X  c #16181B",
"o  c #17191D",
"O  c #1C1E22",
"+  c #1C1E23",
"@  c #1C1F23",
"#  c #1D1F24",
"$  c #1D2024",
"%  c #1F2226",
"&  c #212429",
"*  c #22252A",
"=  c #282C31",
"-  c #2D3238",
";  c #30353B",
":  c #30353C",
">  c #33383F",
",  c #34383F",
"<  c #333940",
"1  c #353A40",
"2  c #373C43",
"3  c #373D44",
"4  c #373E45",
"5  c #3A3F46",
"6  c #3A4047",
"7  c #3B4048",
"8  c #3D424A",
"9  c #3D434B",
"0  c #3F444D",
"q  c #3E454D",
"w  c #3F454E",
"e  c #40464E",
"r  c #434951",
"t  c #454B54",
"y  c #474D55",
"u  c #494C52",
"i  c #4B4F56",
"p  c #495059",
"a  c #48505A",
"s  c #49505B",
"d  c #4E5359",
"f  c #4A525C",
"g  c #4B535E",
"h  c #4C535E",
"j  c #55585B",
"k  c #54585F",
"l  c #4C5560",
"z  c #4F5660",
"x  c #4F5661",
"c  c #4E5863",
"v  c #555A61",
"b  c #525B67",
"n  c #545B66",
"m  c #535C67",
"M  c #545C67",
"N  c #525C68",
"B  c #555F6B",
"V  c #565E6A",
"C  c #56606C",
"Z  c #59616B",
"A  c #59626F",
"S  c #5C636E",
"D  c #5A6370",
"F  c #5B6471",
"G  c #5C6672",
"H  c #5D6672",
"J  c #5E6774",
"K  c #5E6871",
"L  c #5F6875",
"P  c #606872",
"I  c #616A77",
"U  c #636B77",
"Y  c #626B78",
"T  c #646D79",
"R  c #666D78",
"E  c #656E7B",
"W  c #666E7B",
"Q  c #676F7C",
"!  c #68707B",
"~  c #6C7078",
"^  c #6E737A",
"/  c #68717D",
"(  c #6A737D",
")  c #6D747F",
"_  c #6B7380",
"`  c #6C7481",
"'  c #6F7781",
"]  c #6D7582",
"[  c #6F7784",
"{  c #707781",
"}  c #717983",
"|  c #707885",
" . c #717986",
".. c #777D86",
"X. c #747C88",
"o. c #767D89",
"O. c #767E89",
"+. c #777F8A",
"@. c #7F8286",
"#. c #7C838E",
"$. c #818488",
"%. c #82878F",
"&. c #8C8D8F",
"*. c #808691",
"=. c #818891",
"-. c #8D9094",
";. c #909295",
":. c #95979A",
">. c #9B9EA3",
",. c #9D9FA2",
"<. c #9EA2A6",
"1. c #A1A2A4",
"2. c #A2A3A5",
"3. c #A4A5A7",
"4. c #A4A8AC",
"5. c #A7A9AC",
"6. c #A9ABAE",
"7. c #ACADAE",
"8. c #ADAEAF",
"9. c #AFB2B6",
"0. c #B1B4B8",
"q. c #B2B5BA",
"w. c #B6B7B8",
"e. c #B7B7B8",
"r. c #B6B9BE",
"t. c #C0C1C3",
"y. c #C3C3C5",
"u. c #C4C6C9",
"i. c #CDCED0",
"p. c #CFD1D3",
"a. c #D2D2D2",
"s. c #DADADA",
"d. c #DADBDD",
"f. c #DBDCDE",
"g. c #DBDDDF",
"h. c gainsboro",
"j. c #E0E0E1",
"k. c #EBEBEC",
"l. c #ECEDEE",
"z. c gray96",
"x. c white",
/* pixels */
"* * * * * * * * * * * * * * * * * * * * * * * * * * * * * * * * * * * * * * * * * * * * * * * * * * * * * * * * * * * * * * * * * * * * * * * * * * * * * * * ",
"* * * * * * * * * * * * * * * * * * * * * * * * * * * * * * * * * * * * * * * * * * * * * * * * * * * * * * * * * * * * * * * * * * * * * * * * * * * * * * * ",
"* * * * * * * * * * * * * * * * * * * * * * * * * * * * * * * * * * * * * * * * * * * * * * * * * * * * * * * & * * * * * * * * * * * * * * * * * * * * * * * ",
"* * * * k #.*.#.#.=.=.=.=.=.=.=.=.=.=.#.=.=.=.=.=.=.=.=.=.=.*.*.=.=.=.=.=.=.=.=.=.*.*.#.=.=.=.=.=.=.=.=.*.*.*.*.=.=.=.=.=.=.=.=.=.=.=.#.=.=.=.=.*...V * * * * ",
"* * * d #.O.O.O.o.O.O.O.#.O.O.O.O.O.O.O.O.O.O.O.+.+.o.o.o.o.o.o.o.o.O.O.O.O.O.o.+.o.o.o.o.+.O.O.+.+.o.o.o.o.o.o.o.o.o.o.#.O.O.O.O.O.O.O.O.O.O.O.O.O.#.d & * * ",
"* * % { O. .[ [ [  .[ [ ' [ [ [ [ [ | [ [  .[ [ [  .[ [ [  .[ [ | | [ [  .[ [  .[  .[  .[ [ [ [ |  .| | | | | | [  .[  .[ [ | [ [ [ [ [ [ [ [ [  . .O.' % * * ",
"* * # } [ [ [ [ [ [ [ [ [ [  .[ [ [ [ [ [ [ [ [ [ [ [ [ [ [ [ [ [ [ [ [ [ [ [ [ [ [ [ [ [ [ [ [ | [ [ [ [ [ [ [ [ [ [ [ [ [ | | [ [ [ [ [ [ [ [ { [ [  .# * * ",
"* * @ ' ' [ [ ' [ [ ] [ ] [ ' [ ] [ ] [ [ [ ] [ [ [ [ [ [ [ [ ] [ [ ] [ ] [ [ [ ] [ ] ] [ [ [ _ ' [ ] [ ] [ ] [ [ [ ] [ ] ] [ ' [ _ [ [ [ [ [ [ [ ' [ ' @ * * ",
"* * @ ' ` [ [ ` ` ] [ _ [ [ _ [ ` ' ] ] ] ] ` ] ` ` ` ` [ ` ` ` ` [ ` ` [ ' _ [ [ [ _ [ ' [ _ [ ` [ ` ` ` [ [ _ ] ] [ _ [ [ _ [ ` ` ` [ ` ` ` [ _ ' ' ) % * * ",
"* & + ' _ _ _ _ _ ] _ _ _ _ _ _ ` ` _ ` ` ` ` ` ` ` ` ` ` ` ` ` _ ` ` ` _ _ _ _ _ _ _ _ Q [ [ _ _ ` ` ` _ _ _ _ _ ] _ _ _ _ _ _ _ _ ` ` ` ` ` ` ' _ ` ` @ * * ",
"* * @ _ _ _ _ _ _ _ _ [ _ _ _ _ _ _ _ _ ` _ _ _ ` ` ` ` ` _ _ _ _ _ _ _ ' _ _ ' _ _ _ _ ' _ ` ` ` ` ` ` ` _ _ _ _ [ _ [ _ [ _ _ _ _ _ _ ` _ _ ` _ _ ' ` @ % * ",
"* * @ ( / _ / _ Q _ / / / _ / / / / _ Q _ _ Q / / / / / _ / / _ / / _ _ / / / / _ / Q _ / / / / / / / / _ / _ Q Q Q Q / / / / / _ / / _ / _ / / Q _ Q ` # * * ",
"* * + / / / / / / _ / / / / / / / / / _ / / / / / / / / / / / / / / / / / / ( / / / ( Q / / / / / / / / / / / _ / / / Q Q / / / Q / / / / Q / / Q _ Q / + % * ",
"* * # / Q Q Q Q Q T Q Q Q Q Q Q / Q E Q Q T / Q / Q Q / T Q / Q r.x.d.x.x.i.S I #.g.x.x.x.p.~ I / Q Q / / E Q E Q Q Q Q Q Q Q Q Q / Q / Q Q / Q Q R / / % * * ",
"* * + ! Q E E Q Q T Q T Q Q Q Q E E E E Q T E E E E E E E E T / q.x.j.i @.x.6.V j.l.v 8 5.x.6.b Y E T E E E E E R Q Q E Q Q Q Q E E E E T Q Q T Q Q Q / + % * ",
"* % $ ! T T T T T Y T T Y T T Y T T T T T E T T T T T T T T T T q.x.j < y t.z.r b a 0 a ~ x.3.t F T T T T T T T T T T T Y T T Y T T T T T T T T Y R R Q % * * ",
"* * + T T U T I T L T L T T T L T T T L T L Q L T T L T L T T T 0.z.: y F 9.x.i h 4.u.u.x.x.3.0 F Y T L T T L T T L T Y Y T L T I T L T L T T T L T T R $ % * ",
"* * % R I I Y J L R L T L L L T L L L T L T L T L T L T L L L T 0.k.3 x I 0.x.u p.x.y.t.-.x.<.0 A L Y Y L R U L J T L T L Y Y L T L T L T L L T Y L T R $ * * ",
"* * % R I I J I L L L L L L L L L L L L L L L L L L L L L L L L 0.x.i g I u.j.u x.4., 6 @.x.2.8 B Y J Y L L L L L L L L L L L L L L L L L L L L L L L R + % * ",
"* * + I J J J J K L L L L L L L L L L L L L L L L K L L L L L L >.s.w.y %.s.;.3 a.7., ^ y.s.&.0 V J J G L K L L L L L L L L L L L L L L L F L L L J L T $ * * ",
"* * $ I H H H H H K F K F K H K K G G G F L F K F F K G K G K F >.h.w.h.d.,.< 0 -.s.h.h.:.a.7.6 b H H H H H H F K F K F F K K F K F K K H K H K G J K I $ * * ",
"* * @ I H F F F F F F F F F F F F F F F F F F F F F F F F F F F <.j.= ; 3 1 0 x M r 1 , 6 3 > 0 b H F H F F H F F F F F F F F F F F F F F F F K F F K I + * * ",
"* * @ P F F F A F A A F F F A F F F F A A F F F F F F F F F A F 2.l.- 0 g g b N C b v a g c g c C A A A F A F A F F F F F F F F A F F A F F A A A F F L $ * * ",
"* * @ I A A A A A A A A A A A F F C A A A A A A F C F C F C A A 4.l.: s F F B F F F C A A A F A F A A A A A A A A F C F C F V F A A A A F C A A A A A L + * * ",
"* * @ P A A C A Z C A A C C C C C C A C C C C C C F C A C C C C b 0 6 g V C C F C A C A C A C A F C C C C C C C C C C C F A C A C C C C A A C A C A A K $ * * ",
"* * @ S C C C C C C C C C C C C C C C C C C C C C C C C C C C C N c x b C C C C C C C C C C C C C C C C C C C C C C C C C C C C C C C C C C C C C C C K O * * ",
"* * @ P C C C C C C C V C C C C C C C C C C C C C C C C C C C C C C C C C C C V C N N C C C C N C C C C C C C C C C C C C C V C C C C C C C N C C V Z P O & * ",
"* * @ S C N N C N N C N N C N C N N C N N C N N N N C m C N C C V N N C N N C N C N C C C m m C N N C N C N N C N C N N N N V N C N N C N C C N C m v P $ * * ",
"* * @ Z V V N N N N C N C N C N C N N C N N C C N C C m N C C c N N m C N V N N m C c C N C C N N C N N C C c C N C C N N C N N N C N N N N N N m N C Z $ & * ",
"* * @ 5 V b N N N N c m C c c C N N N m N N c C m m N N N c N m N C c N N N N N C c C c N N c m N N N N c C C c N N c m N N N N N N m N N N N N m N V 6 $ & * ",
"* * * o 3 c m N N m m m N c C c N N N m N m m c c N N m N N N m N N m m N N N N c C C c N N m m m m N N C c c m N N m m N N N N m m N N N N m m N c 3 o & & & ",
"* * & @ X       .                                                                                                                                   X % & * * ",
"* & & & o & O O O O O O O O O O O O O O O O O O O O O O O O O O $ $ + + + + + + o $ $ @ o $ $ @ o & o & o & o O O O O O O O O O & o $ $ O O O O O $ & & & & & "
};
