/* XPM */
static char *pb_d_png[] = {
/* columns rows colors chars-per-pixel */
"79 33 90 1 ",
"  c #17191C",
". c #181A1E",
"X c #1B1D21",
"o c #1C1E22",
"O c #22252A",
"+ c #262E37",
"@ c #2B3037",
"# c #273039",
"$ c #283039",
"% c #2A333D",
"& c #2C353F",
"* c #31353B",
"= c #34383E",
"- c #2C3540",
"; c #2E3640",
": c #333941",
"> c #313A44",
", c #383F47",
"< c #343E48",
"1 c #36404A",
"2 c #38404B",
"3 c #3B424A",
"4 c #3B434B",
"5 c #3A434E",
"6 c #3C434C",
"7 c #3B444E",
"8 c #3E454E",
"9 c #3C4550",
"0 c #3D4650",
"q c #3F4852",
"w c #404750",
"e c #414850",
"r c #424852",
"t c #464B53",
"y c #424B56",
"u c #454B54",
"i c #434C57",
"p c #474D56",
"a c #494F57",
"s c #444D58",
"d c #4A4F58",
"f c #47505A",
"g c #47505B",
"h c #4A5058",
"j c #4C515B",
"k c #4B535E",
"l c #4C535E",
"z c #4C5460",
"x c #4E5763",
"c c #4F5863",
"v c #535862",
"b c #515B67",
"n c #545A64",
"m c #535C67",
"M c #525C68",
"N c #555E69",
"B c #555F6B",
"V c #575F6B",
"C c #56606C",
"Z c #5A606A",
"A c #59616E",
"S c #5A636F",
"D c #5A6370",
"F c #5B6571",
"G c #5D6672",
"H c #5E6773",
"J c #5E6774",
"K c #5F6875",
"L c #606975",
"P c #616A77",
"I c #616B77",
"U c #656D77",
"Y c #636C79",
"T c #646D7A",
"R c #656E7A",
"E c #656E7B",
"W c #676F7C",
"Q c #67707C",
"! c #6B737F",
"~ c #6B747F",
"^ c #6C757F",
"/ c #6B7380",
"( c #6B7480",
") c #6C7481",
"_ c #6E7680",
"` c #6E7683",
"' c #6F7784",
"] c #707883",
"[ c #707885",
"{ c #737C87",
/* pixels */
"OOOOOOOOOOOOOOOOOOOOOOOOOOOOOOOOOOOOOOOOOOOOOOOOOOOOOOOOOOOOOOOOOOOOOOOOOOOOOOO",
"OOOOOOOOOOOOOOOOOOOOOOOOOOOOOOOOOOOOOOOOOOOOOOOOOOOOOOOOOOOOOOOOOOOOOOOOOOOOOOO",
"OOOO .Xoooooooooooooooooooooooooooooooooooooooooooooooooooooooooooooooooo. OOOO",
"OOOo=hvnnnnnnnnnnnnnnnnnnnnnnnnnnnnnnnnnnnnnnnnnnnnnnnnnnnnnnnnnnnnbnnnnnd=oOOO",
"OOO*Z!`[[[''[[[['''[['''[[''''''''''''[['''[['''[['''[''[''''[[['''[''''`!V*OOO",
"OOOt!```'''`''''''''''''''''''''''''''''''''''''''''''''''''''''''''''''''!uOOO",
"OOOj!```````````''''''''''''''''''''``''''``'''''''`'''`''''``''''`''''```!jOOO",
"OOOj!```````/```/'//'((''//''//'/'/'/'/'/'/'/`(`'//''//'/`/'/'/`/`/'/`'(``!dOOO",
"OOOh!`!!//((((`//``!/`((/'((``!!//'/(`/(`//`(((`((((`/!!/`(((('///`!`/('~!`aOOO",
"OOOd!!!!////////!!!!///////(!//!////~~//////////////!//!/////////!!!///(/!!aOOO",
"OOOaE!!!!!!!Q//Q!QE!!/!!/Q!Q!E!!/Q/Q!Q!!57!QQ~Q!//!!!!!!!/!//Q/Q!!Q!!/QQ!QQaOOO",
"OOOaEEE!QQQQQQ!Q!E!!EWQQQQQ!QQE^Q/QQQQQQ8y{Q!QQ!QQQE!EQ!EQQQQ/QQE!Q!WQQ//QEaOOO",
"OOOdEEWWEE!EQQE!EEQWWWEEQE!EQEQEz+7#$rQQ5yA&$lQEEE!EEEWWWQEEEQE!EQWQEE!EEEEaOOO",
"OOOaIEEEEEEEEEEEUEEEEEEEEEEEUEEEk%q`P>mY5;B(B>GYEEEEEEEEEEEEEEEEEEUEEEEEEEYpOOO",
"OOOpPEYYEUYYYYYYEEYYEEYYYYEYEEIEk%~[Ef<~85[~P1l~YYEYEUEEEEEYYYYYEPEIUEEYYYYpOOO",
"OOOtPYPYPYYPYYYYPYPYPUYPYYYYPEIIk>[EPk>~7k[UPr8(PYYYPPPIPUPYPYYYEPPEIIPYPYKtOOO",
"OOOuJPPPYPPYKYPPPPPPPPPPPPPPPPPPh1[YKk&^9k(KK88`PPPPPPPPPPPPPPPPPPPPPPPPPIPrOOO",
"OOOtJLYJKKPJJKPJPGPKGPLPKKPKGPPKf%!KKr7]79~KK>p^PKGPKKPKGPPKGPHPKKPKHPKPPHGtOOO",
"OOOwGLGGJJJKGGJPGKGPPHGGJJJJJKGKf;yKm#c~7-vKf%P~JJGJJJJJHHHPPHHHJJJKHHKGKHGrOOO",
"OOO0DGGGGGGFJGGGGGGGGGGGGGGGGGGGf%i;%f`E21r&&b`KGGGGGGGGHGGGGGGGGGGFHGGGGGSrOOO",
"OOOwAFFFFFFFFFFFFFFFSFFFFFFFFFFFf;(Q~~YFFQ!Q~!PFGFFFFFFFFFFFSFFFFFFFFFFFFFArOOO",
"OOO8AGFAFADDDDDDFAFASGFADFDDDDDFi%~FFFFAFDDFDFFAFADFDDDFDDFFAFAFFFDDDDAFFAA8OOO",
"OOO8ADADAFADADGDCDAFAFAAFAADCDGAp%!CAADADDCFDAAGAAFAAAFACDFASSAAAAADADGAASA8OOO",
"OOO6VBABAACACBCCACAACACCCACAACACCG!AAACACCACCACCACCACACAACACCAACAACACCCCACC8OOO",
"OOO6BABCCCCCCCCCCCCCCCCCCCCCCCCCCCCCCCCCCCCCCCCCCCCCCCCCCCCCCCCCCCCCCCCCCCV8OOO",
"OOO6mBCCVMCCMCCCCCMBCCCMCCMCCCCMCCMBCCMCCCMCCCCMCCCMCCCMBCCMCCCMMBCCMCCCCMm4OOO",
"OOO4MMMBMCMCCCCMCMCMCMMCCMCMCMMCMCCCMCCMCMMCMCCCMCCCMCCCMCCCCMCMCCCMCCMMCMM4OOO",
"OOO,MMBMMMMMMMMCMCMMMCMMMCMMMCMMMMMMMMCMMCMMMMMMMMMMMMMMMMMMMCMMMMMMMMMCMMM1OOO",
"OOO@xMMMMMMMMMMMMMMMMMMMMMMMMMMMMMMMMMMMMMMMMMMMMMMMMMMMMMMMMMMMMMMMMMmmMBv$OOO",
"OOOO=xbMMMMMMMMMMMMMMMMMMMMMMMMMMMMMMMMMMMMMMMMMMMMMMMMMMMMMMMMMMMMMMMMmMz>OOOO",
"OOOOOOOOOOOOOOOOOOOOOOOOOOOOOOOOOOOOOOOOOOOOOOOOOOOOOOOOOOOOOOOOOOOOOOOOOOOOOOO",
"OOOOOOOOOOOOOOOOOOOOOOOOOOOOOOOOOOOOOOOOOOOOOOOOOOOOOOOOOOOOOOOOOOOOOOOOOOOOOOO",
"OOOOOOOOOOOOOOOOOOOOOOOOOOOOOOOOOOOOOOOOOOOOOOOOOOOOOOOOOOOOOOOOOOOOOOOOOOOOOOO"
};
