/* XPM */
static char *pb_u_png[] = {
/* columns rows colors chars-per-pixel */
"79 33 144 2 ",
"   c #0F1012",
".  c #0F1013",
"X  c #111215",
"o  c #16181B",
"O  c #17191D",
"+  c #17191E",
"@  c #1C1E22",
"#  c #1C1F23",
"$  c #1D1F23",
"%  c #1D1F24",
"&  c #1F2226",
"*  c #212429",
"=  c #22252A",
"-  c #282C31",
";  c #2D3238",
":  c #2F343A",
">  c #30353B",
",  c #32373E",
"<  c #33383F",
"1  c #34393F",
"2  c #353A40",
"3  c #363C43",
"4  c #373E45",
"5  c #383D44",
"6  c #3A3F46",
"7  c #3A4047",
"8  c #3B4148",
"9  c #3C424A",
"0  c #3D434B",
"q  c #3F454E",
"w  c #41474F",
"e  c #404750",
"r  c #434951",
"t  c #464A50",
"y  c #474D55",
"u  c #464C56",
"i  c #484C52",
"p  c #4B4F55",
"a  c #4B4F56",
"s  c #495059",
"d  c #4E5359",
"f  c #4A525C",
"g  c #4C535C",
"h  c #4C545F",
"j  c #55585B",
"k  c #4C5560",
"l  c #4F5660",
"z  c #4E5863",
"x  c #555A61",
"c  c #525B67",
"v  c #535B67",
"b  c #545C67",
"n  c #525C68",
"m  c #545E6A",
"M  c #555E6A",
"N  c #56606C",
"B  c #57616D",
"V  c #59616B",
"C  c #59626E",
"Z  c #59626F",
"A  c #5C636E",
"S  c #5A6370",
"D  c #5B6571",
"F  c #5E6571",
"G  c #5C6672",
"H  c #5E6673",
"J  c #5E6871",
"K  c #5F6875",
"L  c #616468",
"P  c #606872",
"I  c #616974",
"U  c #606975",
"Y  c #616A77",
"T  c #646C77",
"R  c #626B78",
"E  c #636C78",
"W  c #646C78",
"Q  c #666D78",
"!  c #646D7A",
"~  c #656E7B",
"^  c #666E7B",
"/  c #676F7C",
"(  c #68707B",
")  c #68717D",
"_  c #6A737D",
"`  c #69727E",
"'  c #6D747F",
"]  c #6B7380",
"[  c #6C7481",
"{  c #6F7781",
"}  c #6D7582",
"|  c #6F7784",
" . c #707781",
".. c #717983",
"X. c #707885",
"o. c #717986",
"O. c #767D89",
"+. c #767E89",
"@. c #777F8A",
"#. c #7F8286",
"$. c #7C838E",
"%. c #82888F",
"&. c #84888D",
"*. c #898B8E",
"=. c #818891",
"-. c #909194",
";. c #919396",
":. c #9C9FA4",
">. c #9EA1A5",
",. c #A0A4A8",
"<. c #A4A5A8",
"1. c #A5A8AD",
"2. c #A9ABAE",
"3. c #ACAEB2",
"4. c #AFB2B6",
"5. c #B0B3B7",
"6. c #B1B4B9",
"7. c #B2B5BA",
"8. c #B3B6BB",
"9. c #B6B9BE",
"0. c #B9B9BA",
"q. c #BABBBD",
"w. c #BEC0C1",
"e. c #C0C1C3",
"r. c #C3C3C4",
"t. c #C9CACB",
"y. c #CBCCCD",
"u. c #CDCDCE",
"i. c #CFD1D3",
"p. c #D6D6D7",
"a. c #D7D7D7",
"s. c #D6D7D8",
"d. c #D7D8D9",
"f. c #D8D9DA",
"g. c #DADBDD",
"h. c gainsboro",
"j. c #DFDFDF",
"k. c #DCDEE0",
"l. c #E0E0E1",
"z. c gray90",
"x. c #EAEBEB",
"c. c #EFEFEF",
"v. c gray96",
"b. c white",
/* pixels */
"= = = = = = = = = = = = = = = = = = = = = = = = = = = = = = = = = = = = = = = = = = = = = = = = = = = = = = = = = = = = = = = = = = = = = = = = = = = = = = = ",
"= = = = = = = = = = = = = = = = = = = = = = = = = = = = = = = = = = = = = = = = = = = = = = = = = = = = = = = = = = = = = = = = = = = = = = = = = = = = = = = ",
"= = = = = = = = = = = = = = = = = = = = = = = = = = = = = = = & = = = = = = = = = = & = = = = = = = = = = = = = = = = = = = = = = = = = = = = = = & = = = = = ",
"= = = = x +.=.$.=.=.=.=.=.=.=.=.=.=.$.$.=.=.=.=.=.=.=.=.=.=.=.$.=.=.=.=.=.=.=.=.=.=.=.=.=.=.=.=.=.=.=.=.=.=.=.$.=.=.=.=.=.=.=.=.=.=.$.=.=.=.=.=.=.$.x = = = = ",
"= = = d $.+.+.+.O.O.O.+.+.+.+.+.$.o.$.+.o.$.o.$.$.$.$.o.$.o.$.o.o.$.o.$.$.$.o.$.O.O.O.O.+.+.+.+.O.O.+.+.+.O.O.O.O.O.O.+.O.O.O.O.$.o.+.+.o.$.o.$.$.o.$.s * * = ",
"= = &  .+.o.| | X.X.X.X.o.X.X.X.| | [ } | | { | } } | | { } | | | | } | | | | [ | o.o.| | o.| | o.o.o.o.X.| X.| o.| | | o.o.| o.| | | | | | } | | o.$.{ * * = ",
"= = % ..| | | | | | | | | | X.| | | | | | | | | | | | | | | | | | | | | | | | | | | | | | | | | o.| | | | | | | | | | | | | o.| | | | | | | | | | | o.| & = = ",
"= = # { { | | { } | [ | [ | { | | } | | | | | | | | | | | | | | | | | } | [ | | [ | [ | | | { [ | [ | [ | [ | | | | | | ] | | | | } | } | | | { { | { { @ & = ",
"= = % { ] | | { } } } } } } } } [ [ { [ } } [ [ [ | [ [ [ | [ { } [ [ } { [ | | [ | [ | { [ [ | } } } [ [ { [ { ] | [ | [ | [ [ } } } } } } } } [ [ {  .% = = ",
"= = @ ] ] ] ] ] ] } ] } } ] ] } [ [ [ [ [ [ [ [ [ [ [ [ ] [ [ [ [ [ [ } [ [ [ ( [ [ ] [ [ [ [ [ [ [ [ ] [ [ [ [ | ] ] [ [ ] ] | } } _ } [ [ [ } [ [ [ ' % = = ",
"= = % [ ] ] { ] ] } ] } ] ] ] ] [ [ ` [ [ ` [ [ [ ] [ ] ] ] { [ ] [ [ _ [ [ / | [ [ ] ] | [ { | [ ] [ ] [ ] ` { ] | ] | ] ] ] ] } [ [ { ` } } } [ [ [ [ % * = ",
"= = % ] ( ] / ] ) ) ) ) ) ] ) ) ` ` ` _ ` [ / ` ` / [ / / ] ` / / [ / [ [ [ ( ( k.g.H E / / / ( / ] / [ / ] ` ` / / / / / [ / / / ` / ` / ` ` / ) ) ) ' % * = ",
"= = % / ( ( ( ( ) ) ) ) ) ) ) ) / ` ` / ` ` ` ` ` ` ` / / ] / ` ~ / / / / ` ( ( g.d.a Z / ( / / ` ` / ` ` / ` ` ` ` / ] / / ` / / ` / ` / / ] ( ) ) ) ) % * * ",
"= = & / / / ( ) / / ) ) / / / / / / / / ~ / ~ / / ~ ~ ` / / / / 9.b.g.b.b.i.Z Q g.s.>.v.b.4.H Q ~ ~ ~ ` / / / / / / ~ / / / / / / / / / / / / ( / / ! ' % * = ",
"= = @ ~ ) ! ! ! ! / ! ! ! ! / / / ~ / E E ~ E ~ ~ E ~ ~ ! ! ! ! 8.b.l.a #.b.2.M g.b.,.r 2.b.&.Z ~ ~ ~ ~ / E / ! E ~ ! ! / ! / / / / ! ! ! ! ! / E Q / / % * = ",
"= = & ~ ! ! ! ! ! R ! ! ! ! ! R E E ~ ~ E ~ ~ E ~ ~ E ~ ! ! ! ! 8.b.j 2 y w.v.r d.x.; q g x.t.s G E ~ E E ! ! ~ E ~ ! ! E ! ~ E ! ! ! ! ! ! ! ! ! Q Q / % = = ",
"= = + T Q R R R / K ! ! K ! K / K ! ! R R ! K ! ! K ! ! K ! ! R 5.v., y Z 5.b.a f.w.1 k G u.l.8 N E R E ! K ! R R R ! K / K ! E ! R U ! ! H ! R U R ! ! % * * ",
"= = & ( E R E I H / H E E K ! K E K K R K R E K K Q K E R K E K 8.x.2 x I 4.b.i a.w.9 M P a.l.5 n K E K K Q K R E K K E K E R K U R R U U R Y R U ! R ! % * * ",
"= = & T I R K E U H H U K K K K K K K K K K K K K K K K K K K K :.d.t k K 3.r.1 0.e.8 n I u.2.7 n K K K K I K K K K K K K K K K U U U U H K K K I I I ! # * = ",
"= = @ I H H G G H I G U K H K K K K J K K H K K H K J K K K J K :.g.0.y =.h.-.4 q.h.-.g >.h.Z 7 n K K K G K J K K H K K K H K K G U H P Y H K K G G U ! % = = ",
"= * # R H H H D G H G G G J G G H D H H H D J H H D H H K J J G >.l.0.j.g.,.1 r q.u.r.l.s.*.1 y V G H D H H G D H H D H J D H H G G G G G J H J G U P U % = = ",
"= = # I H D D D D D D D G A G G D D D D D D D D D D D D D D N D >.z.- > 6 2 9 k v 9 1 2 4 3 r n Z Z D D D D D D D D D D D D D D D D G D G G Z A D D D U % = = ",
"= = # I D S D S S S S D Z G V Z D S S S S S Z D S S S S D S A A <.x.; w h s v M M v h h g k n C D A D D S Z D D Z D S S S S S D Z D Z D Z G Z Z D S D P % = = ",
"= = # K S Z Z Z D M S A Z N Z Z S N S N S S S N S S N S S N Z Z 1.c.: s Z Z Z Z Z Z Z Z Z Z C C Z Z A N Z Z Z Z S N Z Z Z Z D N Z Z Z Z Z Z Z Z M D D U # * = ",
"= = # I Z N Z Z N Z V N N N Z Z N Z Z N N Z N Z Z N V Z N N Z V n q 7 k M A D n N Z V N Z V A N Z N Z N V N Z N N Z N S N S S M N N Z Z N Z N Z N V S P & = = ",
"= = # G N N N N N N N N N N N N N N N N N N N N N N N N N N N N M z k N Z M N N N N N N N N N N N N N N N N N N N N N N N N N N N N N N N N N N N N Z H % = = ",
"= = # A N N N N M N N M N N N N N N n N N N N N N N N M N N N N n n N n N N n N N N N N N b N n N M N M N b N N n N N N N M M N N N N N M N N N M N Z G % & = ",
"= = % A N M n n n N n M n N n N n M n M n N n n n n N n n N n N M M n N n n N n n N n n n N n N N n N n N n n N M n n N n N n M N n n b M n n N n M M A & & = ",
"= = # V M M n M n M n n N n n n n M n n M n n N n M n n N n n n n M n n N n n M n n n N N n n n n n n N n n N n n N n n n n N n n n N n n n n n n M N V % & = ",
"= = # 6 M v n n n n n n n n n n n n n n n n n n n n n n n n n n n n n n M n n n n n n n n n n n n n n n n n n n n n n n n n n n n n n n n n n n n n M 7 & = = ",
"= = * O 6 k n n n n n n n n n n n n n n n n n n n n n n n n n n n n n n n n n n n n n n n n n n n n n n n n n n n n n n n n n n n n n n n n n n n z 4 O = & = ",
"= = * # o X . . . . . . . .     . . . . . . . . . . .           . . . . . . . .                   . . .           . . . . . . .       . . X . . . . o & = = = ",
"= & & & & & @ @ @ @ @ @ @ @ @ @ @ @ @ @ @ @ @ @ @ @ @ @ @ @ @ @ & @ @ @ & @ @ o & @ @ @ o & @ @ & o % @ % @ @ @ @ @ @ @ @ @ @ @ & % % % @ @ @ @ @ @ & & = & = "
};
