/* XPM */
static char *ra_d_png[] = {
/* columns rows colors chars-per-pixel */
"79 33 82 1 ",
"  c #17191C",
". c #181A1E",
"X c #1B1D21",
"o c #1C1E22",
"O c #22252A",
"+ c #262E36",
"@ c #2B3037",
"# c #28313A",
"$ c #2A333C",
"% c #2B353F",
"& c #2C353F",
"* c #31353B",
"= c #34383E",
"- c #2F3944",
"; c #333941",
": c #333B45",
"> c #333D47",
", c #353E48",
"< c #3B424A",
"1 c #3B434B",
"2 c #39414C",
"3 c #39424C",
"4 c #3C434C",
"5 c #3E454E",
"6 c #3E4852",
"7 c #404750",
"8 c #414850",
"9 c #424852",
"0 c #464B53",
"q c #424B56",
"w c #474D56",
"e c #484D56",
"r c #464E59",
"t c #464F5A",
"y c #4A4F58",
"u c #4A5058",
"i c #48505B",
"p c #4C515A",
"a c #4C515B",
"s c #4C545F",
"d c #4C5460",
"f c #4E5763",
"g c #535862",
"h c #515A65",
"j c #515B67",
"k c #545A64",
"l c #535C66",
"z c #555D67",
"x c #525C68",
"c c #545E69",
"v c #555F6B",
"b c #575F6C",
"n c #56606C",
"m c #5A606A",
"M c #59626F",
"N c #5A636F",
"B c #5A6370",
"V c #5B6571",
"C c #5D6572",
"Z c #5C6672",
"A c #5E6874",
"S c #5F6875",
"D c #606975",
"F c #616A77",
"G c #646C77",
"H c #626B78",
"J c #636C78",
"K c #646D79",
"L c #656E7B",
"P c #676F7C",
"I c #67707B",
"U c #67707C",
"Y c #6B737F",
"T c #6B747F",
"R c #6C757F",
"E c #6B7380",
"W c #6C7481",
"Q c #6D7582",
"! c #6F7784",
"~ c #707883",
"^ c #707885",
"/ c #737C87",
/* pixels */
"OOOOOOOOOOOOOOOOOOOOOOOOOOOOOOOOOOOOOOOOOOOOOOOOOOOOOOOOOOOOOOOOOOOOOOOOOOOOOOO",
"OOOOOOOOOOOOOOOOOOOOOOOOOOOOOOOOOOOOOOOOOOOOOOOOOOOOOOOOOOOOOOOOOOOOOOOOOOOOOOO",
"OOOOOOOOOOOOOOOOOOOOOOOOOOOOOOOOOOOOOOOOOOOOOOOOOOOOOOOOOOOOOOOOOOOOOOOOOOOOOOO",
"OOOO .XoooooooooooooooooooooooooooooooooooooooooooooooooooooooooooooooooX. OOOO",
"OOOo=ugkkkkkkkkkkkkkkkkhkkkkkkkkkkkkkkkkkkkkkkkhkkkkkkkkkkkkkkkkkkkkkkkhgu=XOOO",
"OOO*mY!^^^^^^^^^^^^^^^^!^^^^^^^^^^^^^^^^^^^^^^^!^^^^^^^^^^^^^^^^^^^^^^^!!YN*OOO",
"OOO0Y!!!!!^!!^!!^!!^!!!!!!!!!!!!!!^!!^!!^!!^^!!!!!!!!!!!!!^!!^!!!!!!!!!!!!Y0OOO",
"OOOpYQQ!!QQ!QQ!QQ!QQ!Q!!Q!Q!Q!Q!!QQ!QQ!QQ!QQ!QQ!Q!Q!Q!Q!!QQ!QQ!Q!Q!Q!Q!!Q!YuOOO",
"OOOaE!Q!QQE!QE!Q!QE!QEQEQQQEQQQQQQQQEQQQQQQQQQQQ!E!EQQQQQQ!EQ!EQQQQQQQQQQQQpOOO",
"OOOaEEEEEQQEEQQEEQQEEQEQQEQQEQQEQQQEQEQEQEEQEQQEEQEEEQEEQQEEEQQEQEEQQEEQWWYuOOO",
"OOOuLQEEEYYEEQYEEEEYEQYEEEQEYEEEEEEEQQEYQEQYEEYYEEEEEEYYEYYEEEEEEEYYEEEEEEYyOOO",
"OOOeLYIYYYUYUUEPUYUYEUUEEUUEUYIYUYUYUYUYUUEPUYUYEUYUYEIYYYUYUEUEUYUYYUEUYYPeOOO",
"OOOuLYYYUYUYUEUULYIYYLUIUUUYTLYYUYUUUEIUUYYIIUYIUUUEYLYYUYIYUUEUYUYYIYYLLYLeOOO",
"OOOwLIJLLLLIUUUUYLLPLYLYUUULGYLLLU+,##Ls%##:hULYUUULLYLLLLLIUULUPILLLLLYLLLeOOO",
"OOOwFGLLLLLJLLLLLLLLLLLJLLLLLLGLLL+>EGJ#h/T3>QJLLLLLLLLLLLLLLLLLLLLLLLLLLLLwOOO",
"OOOwLLJLJLJLHLLLGJLJLJJLFLLLLJLLLL#u^UYU/TLr-^LJFLLLLJLJLJLJLJLJGJLJLJLGJGFwOOO",
"OOOwSJHJJJFJFLFFJFLFFFLFJJFJFLFFLF#nQFFSqq>$>^FJFLFFHHHLFFHFHHLFHHFHFLFGFJSwOOO",
"OOO9SJHSFFFFFSFFFFFFFFFFFFFFFSFFFF#bLFm+2uhp>^FFFFFFFDDHFFDHHDFFFFFFFZFFFFS9OOO",
"OOO9SSSSFSSSSFSFFFZFFFFFFSSSSFSFAF#lIFq-^TT6-~FSAFSFSSDDSHDDHHSFSFDDFSSFFFS9OOO",
"OOO9ZZSSZASSAZAAZSSZZZZZZZSSSZSZZZ#lLSr%SSw#-QSSZSSZSSDDSBSSBCSBSSSBSSZSZZZ9OOO",
"OOO7NZZDSZZSSAZADBBZDDBDSZZSSZZZZZ#lJSn3-%,t>HZZZZZBDBZZDBBZCSZBSZBSAZZZZDN7OOO",
"OOO7NZBNBBBZBBBBZZZBNNBNBBBZZBZBNZZRUBBSUTTTJTSBNZZBZBBBZZZBBZSBBBZZZZZBBNN7OOO",
"OOO5BBNNBBNBNNBBNNNBBZNNBBNBNNBNNBNNnBBBBNNNBBNNNZNZBZZNNNBBZBNNBBBNBNNBNNN5OOO",
"OOO5bNNNBnNNNNBnZbNNNbNNBnNNNNNNNNNNBBBnBNNNNBnNNNNbBbNNBbNNNbNNBnNNNNNNNNN5OOO",
"OOO5nBbnNnNNnnNNbNbnnnNNnNNbnnNNNbNnNNnNnNnNnnnNNNnNnNnnnBnNnnBBnnNnNNnnnNn4OOO",
"OOO<xnnnbnbbnnnnbbnnnnnnnnnbnnnnbbnnnnnxnnnnnnnnnnnnnnnnnbnnnnnnnnnnnnnnnNj5OOO",
"OOO<nnbbnnxnnxnnnnbnnnnnnnnxnnnnxnbnnnnxnnnnnnnnnxnjbnnnxjnnnnxnnnNnxnbnnjx1OOO",
"OOO<xnxxjnxxnnjmjnxxjnxnxxnxjnjnxnjxjnxnxnxxnxxnnxnjnjnnbbnjxxbxnjjnbxjnnnn1OOO",
"OOO<hxxxnjnjnjnjxxnjxnxxxbxnjnxxjnxxbjnjnjmxjnjnxxbjxxnxjNjnnjnjnjjxjnxxjjl4OOO",
"OOO@fxxxjjxxjjjjxxxxxjxxjjxxjjxxxxxxjjbjxxxxjjjxxxjjxxjxjjjxjjjjjnlxjxxxjjf@OOO",
"OOOO;dxxjxxxjjnjxxxxxxxxjxxxxxxxxxxxjjjjxxxxjxxxxxxxxxxxjxxxxxxxjjjjjnjjjs;OOOO",
"OOOOOOOOOOOOOOOOOOOOOOOOOOOOOOOOOOOOOOOOOOOOOOOOOOOOOOOOOOOOOOOOOOOOOOOOOOOOOOO",
"OOOOOOOOOOOOOOOOOOOOOOOOOOOOOOOOOOOOOOOOOOOOOOOOOOOOOOOOOOOOOOOOOOOOOOOOOOOOOOO"
};
