/* XPM */
static char *fotograma_000001[] = {
/* columns rows colors chars-per-pixel */
"79 33 119 2 ",
"   c #0F1012",
".  c #111215",
"X  c #16181B",
"o  c #17191D",
"O  c #1C1E22",
"+  c #1C1F23",
"@  c #1D1F24",
"#  c #1D2024",
"$  c #1F2226",
"%  c #212429",
"&  c #22252A",
"*  c #2C3036",
"=  c #2F3339",
"-  c #30343B",
";  c #32383E",
":  c #373B42",
">  c #363C43",
",  c #373D45",
"<  c #3A3F46",
"1  c #3B4149",
"2  c #3C4249",
"3  c #3C424A",
"4  c #3E444C",
"5  c #424A52",
"6  c #484F58",
"7  c #4A515B",
"8  c #4E5359",
"9  c #4B535D",
"0  c #4D545F",
"q  c #4D5560",
"w  c #4E5863",
"e  c #555A61",
"r  c #525A66",
"t  c #555C66",
"y  c #5C5F63",
"u  c #525C68",
"i  c #535D69",
"p  c #545E6A",
"a  c #555E6A",
"s  c #555F6B",
"d  c #57606B",
"f  c #56606C",
"g  c #58606B",
"h  c #58616E",
"j  c #59626F",
"k  c #5A636F",
"l  c #5A6370",
"z  c #5B6571",
"x  c #5D6571",
"c  c #5E6673",
"v  c #5E6871",
"b  c #5F6875",
"n  c #616366",
"m  c #61656B",
"M  c #606872",
"N  c #616974",
"B  c #606975",
"V  c #616A77",
"C  c #636B76",
"Z  c #626B77",
"A  c #676D77",
"S  c #626B78",
"D  c #646D79",
"F  c #666D78",
"G  c #656D7A",
"H  c #656E7B",
"J  c #666E7B",
"K  c #676F7C",
"L  c #69707A",
"P  c #68707B",
"I  c #68717D",
"U  c #6A737D",
"Y  c #6D747F",
"T  c #6B7380",
"R  c #6C7481",
"E  c #6F7781",
"W  c #6D7582",
"Q  c #6F7784",
"!  c #707781",
"~  c #717983",
"^  c #707885",
"/  c #717986",
"(  c #767D89",
")  c #767E89",
"_  c #777F8A",
"`  c #7E8184",
"'  c #7C838E",
"]  c #83868B",
"[  c #818891",
"{  c #878D96",
"}  c #909194",
"|  c #949597",
" . c #999A9C",
".. c #A4A5A7",
"X. c #A0A4A8",
"o. c #A4A6A8",
"O. c #A6A9AE",
"+. c #A8AAAD",
"@. c #AAACB0",
"#. c #B1B2B4",
"$. c #B3B6BB",
"%. c #B9BABB",
"&. c #BEBFC1",
"*. c #C0C1C4",
"=. c #C1C2C4",
"-. c #C4C6C8",
";. c #C8C9CA",
":. c #D1D2D3",
">. c #D4D4D5",
",. c gainsboro",
"<. c gray89",
"1. c #E3E4E5",
"2. c #E3E4E6",
"3. c gray92",
"4. c #ECECEC",
"5. c #ECEDEE",
"6. c gray96",
"7. c #F6F6F7",
"8. c white",
/* pixels */
"& & & & & & & & & & & & & & & & & & & & & & & & & & & & & & & & & & & & & & & & & & & & & & & & & & & & & & & & & & & & & & & & & & & & & & & & & & & & & & & ",
"& & & & & & & & & & & & & & & & & & & & & & & & & & & & & & & & & & & & & & & & & & & & & & & & & & & & & & & & & & & & & & & & & & & & & & & & & & & & & & & ",
"& & & & & & & & & & & & & & & & & & & & & & & & & & & & & & & & & & & & & & & & & & & & & & & & & & & & & & & & & & & & & & & & & & & & & & & & & $ & & & & & ",
"& & & & e ) [ ' [ [ [ [ [ [ [ [ [ [ [ ' [ [ [ [ [ [ [ [ [ [ [ ' [ [ [ [ [ [ [ [ [ [ [ [ [ [ [ [ [ [ [ [ [ [ [ [ [ [ [ [ [ [ [ [ [ [ ' ' [ [ [ [ ' ' d & & & & ",
"& & & 8 ' ) ) ) ( ( ( ) ) ) ) ) ' / ) ) ) ' ) ' ' ) ) ) ) ) ) ) ( ( ) ) _ ) ) ) ) ( ( ( ) ) ) ) ( ( ( ( ( ( ( ( ( ( ( ( ( ( ( ( ' ) ) ) ) ) ) ' ' ' ' 8 $ & & ",
"& & $ ! ) / Q Q ^ ^ ^ ^ / ^ ^ ^ Q Q Q Q R Q R Q Q Q Q Q Q Q Q Q ^ ^ Q Q / Q Q / Q Q ^ ^ Q Q Q Q ^ ^ Q Q ^ ^ Q Q ^ ^ Q Q ^ ^ ^ ^ Q Q R Q Q W Q Q Q E ) E $ & & ",
"& & @ ~ Q Q Q Q Q Q Q Q Q Q ^ Q Q Q Q Q Q Q Q Q Q Q Q Q Q Q Q Q Q Q Q Q Q Q Q Q Q Q Q Q Q Q Q Q Q Q Q Q Q Q Q Q Q Q Q Q Q Q Q Q Q Q Q Q Q Q Q Q E Q Q Q $ & & ",
"& & + E E Q Q E W Q R Q R Q E Q W Q R Q Q Q W Q Q Q Q R Q Q Q Q Q Q R Q Q Q Q Q R Q R Q Q Q Q Q Q Q Q W Q Q Q W Q Q W Q W Q Q Q Q Q R Q R Q W E E Q Q E # $ & ",
"& & O E W E R R W W W W W W W W W W W W W W R R Q R R R R Q R R R Q R R Q T Q Q T Q T Q E R Q Q W W R R R R R R R W Q W W Q W W R Q R R Q R R Q Q T E T @ & & ",
"& $ O E R R R R T W T W W T T W R I R R R R R R R R R R R R R R T R R R T E T T T E T T R R T T R R R R R R R R R T T T T T T T R R R R R R R R T T E E @ & & ",
"& & # T R T R R T W T W T T T T R R I R R R R I R R R R R R R R T T T T T T T E T T T T R T T E R R R R R R R R T T T T T T T T R R R R R I R R T T Q E + % & ",
"& & # U K T K R I I I I I T I I I R I R R K K R I I K R I K I R I I T T I I I I K T K T I T I I I I I K R K R K T T I I I I T T K K R I K R I I K K K K @ % & ",
"& & # K K K I I I T I I I I I I K I I I I I K P I I I I K I I K I I I I I I I I I I I I I I I I I I I I I I I U K R K K I T K K K K I I I I U K K T K K @ % % ",
"& & # K K K K K D K K D K K K K H P P K P H I P I H H I K P K H K K 8.2.8.8.A $.7.8.8.5.O.c D D I K H I K P P H K K K K K K K K K K K I I I K S K K K E @ % & ",
"& & # K K K D K K K D K K K K K P H H H H H H H H H H H H H K K G K 8.6.y ` ] 8.@.3 m 3.6.6 c D H H H H H H H K H H K K K K K S K P K K D K K K K S K K + % & ",
"& $ # K D D D D D S D S G S G S D H Z H H S D D D H S H P S S D K S 8.-.* 4 0 9 4 5 9 =.8.: t A H H S H H S H S H S D S S D D D D D S D D S S D D P S K $ & & ",
"& & # P C S S S D D b D D b D S S S D S S D S S S D b D D b D S S S 8...: t c L -.-.1.8.8.- q D b H b H D D S S S S S D S S S S S D b D D b D S S D D D + & $ ",
"& & # D C b C S b C S b b S b D S b b S b S S b b C S b b S b D C C 8...3 p { 8.1.=.+.&.8.= q v b Z S v b S b S S b b C b S S b b C S b b S b D b S C D # & & ",
"& & $ D b S b S b b b b b b b b b b b b b b b b b b b b b b b b b b ,.} 3 d O.>., : 4 %.,.= 0 C b b b b b b b b b b b b b b b b b b b b b b b b b b b D # $ & ",
"& & # Z c c c z c b b v b b b b b b b v b c b b c b b v b b b b b c <.| 3 p X.<.g 5 O.<.<.= 9 c b b b b c b b c b b b b b b b b c b b v b b b b b c C D # & & ",
"& & O C c c c z c z c c c z c c c c z c c z v c c z c c c z c c c c 3. .3 t C :.4.4.:.#.5.n 7 c z v c c c z c z c c z c c z c c c z c c c c z c c z c C O & & ",
"& $ # b c z z z z z z z z z z z z z z z z z z z z z z z z z z z z z q 3 5 p f 0 1 ; < < ; , 9 j z z z z z z z z z z z z z z z k z z z z z z z z z z c C # & & ",
"& & O C z l z l j z j c j j z j z j j l l l z l l l j z l j z j l j d r r j c p q 8 6 0 q q i l z z z l z z l l j k z l j z k z l l l l j z z l z z z c O & & ",
"& & # b l j j j j j j j j j j l l f j j j l l f j j j j j j j z j j j j j j j j j j j j j j j z f z j f f l j j z f j j j j z f j j j j l f j z j j j C # $ & ",
"& & # b f l f l l f j j f f f j f j j f f f f f l f j f f f f f f j f f j j f j f f l f f l f f f j f f j f j f f j f f j j f j f f j f j j f f j j j b + & & ",
"& & # c f f f f i f d d f d f f f f f f f f f f f f f f f f f f f d f f f f f d f f f f f f f f f f f f f f f f f f f f f f f d f f f f d d f f d f f v + & & ",
"& & O k f d f i i f i d f f i s f d d p f f i f f f d d f f i f p f d f d f d i f f d i p d i f f d f f d d d i p f g f d f d i f d f p f d f f p p f c + $ & ",
"& & $ m f i p i i f i i i f i i i p p i i f i i i i i i i f i i i p i i i i f i i i i i i f p p i i p i i i i i i p i i i i f i i i i i i i i i i i i c # & & ",
"& & O d p i i i i i i i i i i i i i i i i i i i i i i i i i i i i i i i i i i i i i i i i i i i i i i i i i i i i i i i i i i i i i i i i i i i i i i g O & & ",
"& & O 1 p i i r i i u u u u u u i i i r r i u u i i r i u i u u i i i i i i r i u u u u u u u u i i i i u u u u u u u u i i u i u u u u i r i i i i p 3 $ & & ",
"& & $ o , w i i i i u u u u u u i r i i i u u u i r i i u u u u u u i w i r i i u u u u u u u u i i r i u u u u u u u u u u u u i i i i i w i r i w , o $ & & ",
"& & & O X .                                                                                                                                       . X @ $ & & ",
"& & $ $ $ O O O O O O O O O O O O O O O O O O O O O O O O O O O O O O O O O O O O O O O O O O O O O O O O O O O O O O O O O O O # # O O O O O O O + $ & & & & "
};
