/* XPM */
static char *rb_d_png[] = {
/* columns rows colors chars-per-pixel */
"79 33 82 1 ",
"  c #17191C",
". c #181A1E",
"X c #1B1D21",
"o c #1C1E22",
"O c #22252A",
"+ c #252D36",
"@ c #262E36",
"# c #272F38",
"$ c #2B3037",
"% c #28313A",
"& c #2A333D",
"* c #2B343D",
"= c #2B353F",
"- c #31353B",
"; c #34383E",
": c #2D3641",
"> c #2E3842",
", c #333941",
"< c #333C46",
"1 c #373E48",
"2 c #373F49",
"3 c #38424B",
"4 c #3B424A",
"5 c #3B434B",
"6 c #3B444E",
"7 c #3D444D",
"8 c #3E4752",
"9 c #404750",
"0 c #424852",
"q c #464B53",
"w c #424B55",
"e c #474D56",
"r c #494F57",
"t c #4A4F58",
"y c #4A5058",
"u c #4C515A",
"i c #4C515B",
"p c #4C5460",
"a c #4E5763",
"s c #535862",
"d c #515A66",
"f c #515B67",
"g c #545A64",
"h c #535C66",
"j c #555D67",
"k c #525C68",
"l c #535D69",
"z c #545D69",
"x c #545E6A",
"c c #575F6B",
"v c #56606C",
"b c #57606C",
"n c #5A606A",
"m c #59626F",
"M c #5A636F",
"N c #5A6370",
"B c #5B6571",
"V c #5C6470",
"C c #5C6672",
"Z c #5E6773",
"A c #5E6774",
"S c #5F6875",
"D c #606874",
"F c #626B77",
"G c #646D77",
"H c #656D77",
"J c #626B78",
"K c #636C78",
"L c #656E7B",
"P c #676F7C",
"I c #67707B",
"U c #67707D",
"Y c #68707B",
"T c #69727E",
"R c #6B737F",
"E c #6C757F",
"W c #6B7380",
"Q c #6C7481",
"! c #6D7582",
"~ c #6F7784",
"^ c #707885",
"/ c #737B86",
/* pixels */
"OOOOOOOOOOOOOOOOOOOOOOOOOOOOOOOOOOOOOOOOOOOOOOOOOOOOOOOOOOOOOOOOOOOOOOOOOOOOOOO",
"OOOOOOOOOOOOOOOOOOOOOOOOOOOOOOOOOOOOOOOOOOOOOOOOOOOOOOOOOOOOOOOOOOOOOOOOOOOOOOO",
"OOOOOOOOOOOOOOOOOOOOOOOOOOOOOOOOOOOOOOOOOOOOOOOOOOOOOOOOOOOOOOOOOOOOOOOOOOOOOOO",
"OOOO .Xooooooooooooooooooooooooooooooooooooooooooooooooooooooooooooooooo.. OOOO",
"OOOo;ysggggggggggggggghhggggggggggggggggggggggddggggggggggggggggggggggdhgy;oOOO",
"OOO-nR~^^^^^^^^^^^^^^^^~^^^^^^^^^^^^^^^^^^^^^^^~^^^^^^^^^^^^^^^^^^^^^^~~!!v-OOO",
"OOOqR~~~~~^~~^~~^~~^!^~~~~~~~~~~~~^~~^~~^!^^^^~~^^^^^^^^^^^!^^^^^~~^^~~~~~RqOOO",
"OOOuR!!~~!!~!!~!!~!!~!!!!~!~!~!~~!!~!!~!^!!!!!!~!!!!!!!!!!^!!!!!~!!~!!!~!~RuOOO",
"OOOyW!!!!!W!!!!!Q!!!!!QQ!!!Q!QQQ!!!!!!!!!!!!Q!!!!!!!!!!!!!W!!!!!Q!!!!!QQ!W!uOOO",
"OOOyWQQWW!!W!WW!QQQQQQQQQQQQQQQQ!!Q!QRQQQQQQQQQQQQQQ!W!W!!!R!WW!QWQQQQQQ!!WyOOO",
"OOOyRRRRWRRWQQ!RRQRRQQRQQQQRQQRRRRRRRRRRWWRRQRRRQRQRRWRRERRRW!!RRWRRQQWQRWRtOOO",
"OOOtPUURRRURUUWPURURRUURRUUUQURRURURRRM+mURRURURURURPRURRRURUURPRURRURURRRPyOOO",
"OOOyLRIRURIRURIURLRRURIQURUUUUUUURUUUUM%LRRIUURUUURURLRRURIRURIURPULRRURPPLrOOO",
"OOOtLPLPLPLUUUUIULLLIUKLUIIIUUUUPI+2%%z=F0+3FIILUIILILLLLPLUUUUIPLLRLLLLPPLrOOO",
"OOOeKLLLLLLLLLLLLLKUKULLLUKUUUKUKP#<RHH:6II30ULLLLLLLLLLLLLLLLLLLLLLLLLLLLJeOOO",
"OOOeFKLKGLKGLKLKLKUKKKLKLKKKSUKKKL#p^IM=m~Id>HKLGLKLLKLKGLKHLKLKGLKLKGGLKLFqOOO",
"OOOeKJJJSKKKKSKKKSJJJJJJSKSKSLKKFF%bWFk&WUKb=CIKFJJJJJJJJJJJJJJJSKSSKSSLSSKwOOO",
"OOO0AJSJSGSKLSSKLSJJSJSJISICLSKSFG%kUGj&QKKb=CUSFFJSJSFSJJFSFSJJISSICUKSLSSeOOO",
"OOO0ZSSFSKSSSSKSSSKSSSSJSSSSSSSSAJ%jUFk:BGSi=GUSSFSSAFFAAFAFFAAFSSSSKSSKSSC0OOO",
"OOO9ZAAACSSSCSCSCSCSSAASSSSSCSSSZZ%dLZa&8Bv,wQKCZAAAAAZAAAAAZAAZSSSSCSSCSSS0OOO",
"OOO9mZZZBCSBCCCCBZZBAABBBCCBBSCCBZ#dKSa%w>=3UUBCZZBZZBAZZZBZBZZBBCBCSCCCBSZ7OOO",
"OOO9MBBMBNNBBBBNBBBBBBBBNNCBBBBNBBB!JBBKTQQRUANBBNBBBBBNNBBNBBBNBNBBBBBNBBm0OOO",
"OOO7mBMBNNNNBBNNNNNNBMmBNNNNBNNNNBmBNNmBMBMMmBBmmBNNNNNNNNNNmBNNNNNNBNNNmMB7OOO",
"OOO8cmvmmNNNbNNNmNmNmvmmmmmNNNmNNbMMNNbBbMMMmmmmMbNNNmbNbNNNbMmNNNNNNvNNMvz8OOO",
"OOO7bbbbbNbNvbbbvnNcbmbbmbbmbbbbbmbmbbbbvbbbNbbbbbbbmbbbmvBbbmbbbbbbbbbbvMb6OOO",
"OOO7kbbbbbbbvvvvccbbvvbvvvvbvvvvmzbbbbbbvvvvvbvvbvvvvvvvbnbbbbbbbbbbbbvvvvv6OOO",
"OOO4kmcbvbbbvvvbxbbkbxxbxbvvvvxvzzbvbbbbvvxvvvvvvvbbvvvvkbbkxbvvbbbvbbvbvkk3OOO",
"OOO4zzkzkkbkkvkbxxxxxxxbkbkkxvkvzzvkkkvkkvkvvkkxkvkvkkxvckkvxxxkvkkkbkkkmkk6OOO",
"OOO1dzkzkkkkvkkkkkxkxkxkxkxkxkxkkkvkkvkkkxkxxkxkkxkxxkxkkxkxkkxkkkkvvkkkkkk3OOO",
"OOO$ahkkkkkkkkkkkkkkkkkkkkkkkkkkkkkkkkkkkkkkkkkkkkkkkkkkkkkkkkkkkkkkkkkkhha@OOO",
"OOOO,pkkkkkkkkkkkkkkkkkkkkkkkkkkkkkkkkkkkkkkkkkkkkkkkkkkkkkkkkkkkkkkkkhkha;OOOO",
"OOOOOOOOOOOOOOOOOOOOOOOOOOOOOOOOOOOOOOOOOOOOOOOOOOOOOOOOOOOOOOOOOOOOOOOOOOOOOOO",
"OOOOOOOOOOOOOOOOOOOOOOOOOOOOOOOOOOOOOOOOOOOOOOOOOOOOOOOOOOOOOOOOOOOOOOOOOOOOOOO"
};
