/* XPM */
static char *fotograma_000001[] = {
/* columns rows colors chars-per-pixel */
"79 33 132 2 ",
"   c #0F1012",
".  c #0F1013",
"X  c #16181B",
"o  c #17191E",
"O  c #1C1E22",
"+  c #1C1F23",
"@  c #1D1F24",
"#  c #1D2024",
"$  c #1F2226",
"%  c #212429",
"&  c #22252A",
"*  c #2C3036",
"=  c #33373E",
"-  c #363B41",
";  c #363B42",
":  c #373E45",
">  c #3A3F46",
",  c #3B4048",
"<  c #3B4149",
"1  c #3D434B",
"2  c #3F444D",
"3  c #41474F",
"4  c #474B51",
"5  c #444A54",
"6  c #484E57",
"7  c #474F59",
"8  c #484E58",
"9  c #495059",
"0  c #4E5359",
"q  c #4A525C",
"w  c #53575C",
"e  c #4D5560",
"r  c #4E5761",
"t  c #4E5863",
"y  c #505863",
"u  c #555A61",
"i  c #525A66",
"p  c #535B66",
"a  c #5C5F63",
"s  c #525C68",
"d  c #535D69",
"f  c #555D68",
"g  c #565E68",
"h  c #565E6A",
"j  c #565F6C",
"k  c #5D6067",
"l  c #57606B",
"z  c #56606C",
"x  c #57616D",
"c  c #59616B",
"v  c #5F6368",
"b  c #59626E",
"n  c #59626F",
"m  c #5A6370",
"M  c #5B6571",
"N  c #5D6670",
"B  c #5C6672",
"V  c #5E6774",
"C  c #5F6774",
"Z  c #5E6871",
"A  c #5F6875",
"S  c #616468",
"D  c #606872",
"F  c #666A70",
"G  c #606975",
"H  c #626976",
"J  c #636B76",
"K  c #626B78",
"L  c #646D78",
"P  c #646D79",
"I  c #666D78",
"U  c #656E7B",
"Y  c #666E7B",
"T  c #676F7C",
"R  c #68707B",
"E  c #68717D",
"W  c #6A737D",
"Q  c #6E747D",
"!  c #717479",
"~  c #797B7E",
"^  c #6B7380",
"/  c #6C7481",
"(  c #6F7781",
")  c #6D7582",
"_  c #6F7784",
"`  c #707781",
"'  c #717983",
"]  c #707885",
"[  c #717986",
"{  c #767C84",
"}  c #777D86",
"|  c #767D89",
" . c #767E89",
".. c #777F8A",
"X. c #7E8184",
"o. c #7B8189",
"O. c #7C838E",
"+. c #818489",
"@. c #83868A",
"#. c #82878F",
"$. c #8A8C8F",
"%. c #818891",
"&. c #858B91",
"*. c #868C93",
"=. c #888E94",
"-. c #8F949B",
";. c #929496",
":. c #959799",
">. c #96979A",
",. c #9A9C9D",
"<. c #959BA2",
"1. c #989BA0",
"2. c #989DA5",
"3. c #9EA1A4",
"4. c #A4A5A7",
"5. c #B8BABB",
"6. c #C5C6C6",
"7. c #C8C9CA",
"8. c #C8C9CB",
"9. c #CACBCB",
"0. c #D6D6D8",
"q. c #D7D7D9",
"w. c gray86",
"e. c gray88",
"r. c #E3E4E5",
"t. c #E3E4E6",
"y. c #E7E7E7",
"u. c #EAEAEB",
"i. c #EBEBEC",
"p. c #EEEEEE",
"a. c gray96",
"s. c white",
/* pixels */
"& & & & & & & & & & & & & & & & & & & & & & & & & & & & & & & & & & & & & & & & & & & & & & & & & & & & & & & & & & & & & & & & & & & & & & & & & & & & & & & ",
"& & & & & & & & & & & & & & & & & & & & & & & & & & & & & & & & & & & & & & & & & & & & & & & & & & & & & & & & & & & & & & & & & & & & & & & & & & & & & & & ",
"& & & & & & & & & & & & & & & & & & & & & & & & & & & & & & & & & & & & & & & & & & % % & & & & & & & & & & % % & & & & & & & & & & & & & & & & & & & & & & & ",
"& & & & u  .%.O.%.%.%.%.%.%.%.%.%.%.%.%.%.%.%.%.%.%.%.%.%.%.%.%.%.%.%.%.%.%.%.%.%.%.%.%.%.%.%.%.%.%.%.%.%.%.%.%.%.%.%.%.%.%.%.%.%.%.%.O.%.%.%.%.%. .d & & & & ",
"& & & 0 O. . . .| | |  . . . . . . . .|  . . . .| | [ | | |  .| | |  . .| | | | | | | |  . . . .| | | | | | | | | | | |  .| | | | | | | | | | | o. .O.w & & & ",
"& & $ `  .[ _ _ ] ] ] ] [ ] ] ] _ _ ] _ _ [ _ _ _ [ _ _ _ [ _ _ [ _ _ _ [ _ _ [ _ _ _ ] ] ] _ _ ] ] ] _ ] ] ] _ ] _ _ _ ] ] ] ] _ _ [ _ _ [ _ _ [ _ [ ( $ & & ",
"& & @ ' _ _ _ _ _ _ _ _ _ _ ] _ _ _ _ _ _ _ _ _ _ _ _ _ _ _ _ _ _ _ _ _ _ _ _ _ _ _ _ _ _ _ ] ] ] _ _ _ _ _ _ _ _ _ _ _ _ _ ] ] _ _ _ _ _ _ _ _ _ _ _ [ + & & ",
"& & + ( ( _ _ ( ) _ / _ / _ ( _ ) _ ) _ _ _ ) _ _ _ _ _ _ _ _ _ _ _ ) _ ) _ _ _ _ _ / _ _ _ / ] ] _ _ / _ _ _ / _ _ _ _ / _ _ _ ) _ ) _ _ _ ) _ ( _ _ ( O & & ",
"& & O ( ) ) ^ _ ) ) ) ) ) ) ) ) / ( / ) ) ) / ) ) ) / / ) ( / / ^ _ ^ ) _ ( ^ _ / _ / _ / ` / / ) ) / / ( / / / / / _ / / _ / / ^ ) ) ) ) ) ^ _ ) / ( ` @ & & ",
"& $ O ( ^ ^ ( ^ ^ ) ^ ) ) ^ ^ ) / / / / / / / / / / / / ^ / / ^ ^ ) ) ^ ^ ^ ^ / ^ / ^ ^ / / / / / / / / ^ / / ^ / / ^ ^ / / / / ( ^ ^ ) ) ^ ) ^ ) / / W @ & & ",
"& & + ^ ^ ^ ^ ^ ^ ) ^ ) ^ ^ ^ ^ / ^ ^ ^ / ^ ^ / / / / / / ^ ^ ^ ^ ^ ^ ^ ` / / E / / ^ ^ / / / / / / / / / ^ ^ ^ ^ ^ ^ ^ ^ ^ ^ ^ ^ ^ ^ ^ ^ ^ ^ ^ / ^ ( / + % & ",
"& & + E ^ ^ E ^ E E E E E ^ E E E E ^ E E ^ E E E E E E ^ E ^ E ^ T ^ ^ E E 2.s.-.J P ^ E W E E E E E E ^ E ^ E ^ ^ E E E E ^ ^ ^ E T ^ ^ ^ T E E E E E @ % & ",
"& & @ E E E E E E ^ E T E E E E E E E ^ E E E E E E E E E E E E T E E E E E <.s.@.i J E E E E E E E E E E E E ^ T ^ E T E / E E T E E ^ E E E E E E E E @ % % ",
"& & @ E T T P E T P T T T T T T E T K E T K E T E T T E T E T E T T s.t.s.s.<.s.&.0.s.r.{ J E P E T T E E P T T T T T T P T Y P T Y T T Y E Y Y T T E W @ % & ",
"& & + E T T T T T P T P T T T T E U T T T T E U T T U U T P T P P T s.a.a X.+.s.i.S F u.0.e J P T E U U E T T T U U T T Y Y Y Y T Y Y Y Y Y Y Y Y I P E @ % & ",
"& & O E P P K P P K P P K P P K P K K P P K P K K P K K P P K P T K s.7.* 1 &.s.>.- 8 4.s.! g K K K K K P K K P K K P P K P P P P P K P P P P P P I I E + & & ",
"& & @ P J K K K K K K P K K P K K K P P V P A P A K K K K K P P J D s.4.- p -.s.w 3 g #.s.=.9 C K K A P P V P P J K K K K P A P K K K K K K K V P A P E + % % ",
"& & @ P P K K H K K V K K V V K K A V J P A P A J J K A K A A K J C w.;.1 j O.w.w 7 M o.w.~ 5 M A K K A K J V K K V P A A K K A V J A K A K J J H K P P + & & ",
"& & + P H V H V J V J J J V V V A A A A A A A A C A A J A A A A H V r.;.1 j &.r.X.6 C ,.e.S 4 n A A A A A A V J A A A A A A A A V J J A A A A A V V J P + & & ",
"& & O J V C C C V V M M V V K C A A A A A V A A C C A Z A A A A C V y.>.1 j *.y.9.k Q 0.5.= 7 x A A A A V V V V A A A A A A A A V A Z A A A A A V H V P + & & ",
"% % + H H M C M C M M M Z M Z Z C M M C M V M C M B B B M M M M M C p.,.> g =.p.6.p.p.7.4 < s M M A M V M M M C M M C M M V M C B B B B B B Z n C M C D + & & ",
"& % + H m M M M M m M C M M C n M M M m M M M M C n B B B M C M M M e < 5 j x 7 - = - - < q x M M M M M M V M m M M M M M M M M M Z B B B M B C M M M J @ & & ",
"& & + H n M M n M n m m m M n n M m m m m m M m n M n M n M M n m n g i i j m g e e q q w x n n M m m m M m m m M m n M m m M n N n n n n n n n M n M C + & & ",
"& & + J m n x M n n m n m x n n M x m x m n m x n n n n n n m x m n m n n m m j m j m m n n n n x M x m x m n m n n n n n m n m n n n n n n n n n n m J + & & ",
"& & + C x x x x x x x m z z z x j x n n z z x x x x x x z z x n x n x x x x x x z z z n z n z n n c z z z z z z x n x x x x x x z z z z c n z z c n x C $ & & ",
"& & % n x x x x g x x g z z z z j j j g z z x g x x g x z z x g j g x x x g x x z z z z z z z z z z z z z z z z j g x x j x x g z z z z z z z z z j c C O & & ",
"& & o D z d d j x x j j z z d x d x g x z z g x x j x g z z x g g x j x j x j d z z z z z x z z z g z z z z z z g j j x d x g j z z z z z z g z z z j M $ & & ",
"& & # Z j x d d d d d d d z d j d d d d z s d j d d j d s z s d d d d d d d g d s z s s s g s d d d d z d d s z j d d d d j d d z s s z s z s z d d j H O $ & ",
"& & # c g g d d d d s s s d s s d d s s d d s s d d s s s d d z d d d d d d d d s s s z z s s s d d d d d s z s d d s s d d d d s z s s d d d s d d z z O $ & ",
"& & O > g i d d s d s s s s s s d d s s s s s s s d s s s s d d s s s s d d s d s s s s s s s s d d s s i d s s s s s s d d d d s s s s s s s s s s g , $ & & ",
"& & & X : t d d s s s s s s s s d d d s s s s s s s s s s s s t s s s s d t s s s s s s s s i d d d s s i d s s s s s s s d t d i s s s s s d d d t - X $ & $ ",
"& & % O X . . . . . . . . . . . . . . . . . . . . . . . . . . . . . . . . . . .             . . .       . . . . . . . . . . . . . . . . . . . . . . X $ & & & ",
"& & & & @ @ O O O O O O O O O O O O O O O O O O O O O O O O O O + O O O O O O O O O O O O O O O O O O O O O O O O O O O O O O O + X $ + O + + O O + $ & $ & & "
};
