/* XPM */
static char *rr_d_png[] = {
/* columns rows colors chars-per-pixel */
"36 33 77 1 ",
"  c #17191C",
". c #181A1E",
"X c #1B1D21",
"o c #1C1E22",
"O c #22252A",
"+ c #2B3037",
"@ c #283039",
"# c #28303A",
"$ c #2A333C",
"% c #2C343D",
"& c #2C353F",
"* c #31353B",
"= c #34383E",
"- c #2C3640",
"; c #333941",
": c #323A44",
"> c #383F47",
", c #373E48",
"< c #38404A",
"1 c #39414B",
"2 c #3B424A",
"3 c #3B434D",
"4 c #3C434C",
"5 c #3E454E",
"6 c #3D4650",
"7 c #404750",
"8 c #424852",
"9 c #464B53",
"0 c #424B55",
"q c #454B54",
"w c #464D54",
"e c #484D56",
"r c #464F59",
"t c #4A4F58",
"y c #4A5058",
"u c #4C515B",
"i c #4B535E",
"p c #4C5460",
"a c #4E5763",
"s c #535862",
"d c #525B65",
"f c #515B67",
"g c #545A64",
"h c #535D69",
"j c #545E69",
"k c #545E6A",
"l c #575F6B",
"z c #56606C",
"x c #5A606A",
"c c #59626F",
"v c #5A636F",
"b c #5A6370",
"n c #5B6571",
"m c #5C6470",
"M c #5D6672",
"N c #5E6772",
"B c #5E6774",
"V c #5F6875",
"C c #616A77",
"Z c #626B77",
"A c #626B78",
"S c #636C79",
"D c #656D7A",
"F c #656E7B",
"G c #676F7C",
"H c #67707C",
"J c #68717B",
"K c #69717D",
"L c #69727E",
"P c #6C747F",
"I c #6A7380",
"U c #6B7380",
"Y c #6E7683",
"T c #6F7784",
"R c #717984",
"E c #707885",
"W c #747C87",
/* pixels */
"OOOOOOOOOOOOOOOOOOOOOOOOOOOOOOOOOOOO",
"OOOOOOOOOOOOOOOOOOOOOOOOOOOOOOOOOOOO",
"OOOO .XoooXXoooooooooooooooooX. OOOO",
"OOOo=ysgggddgggggggggggggggggsy=oOOO",
"OOO*xKEEEEEEEETYEEEEEETEEEETEYPx*OOO",
"OOO9KTTEYYYEYEYYEYYYYEYYTTTYYETK9OOO",
"OOOuKYYYYYYYYYYYYYYYYYYYYYYYYYTUuOOO",
"OOOuUYYYYYIYYYYYYYYUYYYYYYYUYYYUuOOO",
"OOOyUUUUYYHTYIYYIYYYTHYYUUTUTUUUuOOO",
"OOOyKUYUHYYHIYHTYYHKHTHKUUHYHTUHyOOO",
"OOOyHUKKDYHUKKKKHHYHKYKYKKUKYKHHyOOO",
"OOOtHKHHHHHGKHHJHHKHHDHKKHHKDKHHeOOO",
"OOOtDGHGHHHGGi&:@y3<@@jHHHHDHGGArOOO",
"OOOwAGGDGHHSDi$dEH6-NKEKGSHHHGGSwOOO",
"OOOwASDSSSSSSi&JYS6<WKHSSSSSSSSSwOOO",
"OOOqVAAASASSSi&ESS30ESSAASSSSVSV9OOO",
"OOO8CCCCCCCCVi&TSC10YCCCCCCCCCCM9OOO",
"OOO9MMCCCVCVVi$EVV36PVVCCMAVVCCN9OOO",
"OOO8MMMBMMVMVr&TVV<6KVVMNNVNVMMM7OOO",
"OOO5MMMMMMMMMr$YnM10KMMMMMMMMMMM7OOO",
"OOO8cMnMMMnnnnAYnnMJHnMMnnnnnnnc7OOO",
"OOO7cbccncncbbbbcnccbbccbbbccncc7OOO",
"OOO5zcccccccccbbcccccccccccccccc5OOO",
"OOO1lxzcczczcckbzczczczczczxclcl5OOO",
"OOO2jczzkckkzzkzzzzkzzbkzzkkzzzk2OOO",
"OOO2jlljkkckkzkkkzkkkkkkzljjzkzk1OOO",
"OOO2hzhjkkkkkkkkkkkkkkkkjjjjjjkk1OOO",
"OOO<hhhhfkkfkkkkkkkkkkfjjjjjfjjj>OOO",
"OOO+ihjffffkfffkfkfjfffkffffffja+OOO",
"OOOO:ifjkfkfkfkfkfffjfkfkfjffkp:OOOO",
"OOOOOOOOOOOOOOOOOOOOOOOOOOOOOOOOOOOO",
"OOOOOOOOOOOOOOOOOOOOOOOOOOOOOOOOOOOO",
"OOOOOOOOOOOOOOOOOOOOOOOOOOOOOOOOOOOO"
};
