/* XPM */
static char *rr_u_png[] = {
/* columns rows colors chars-per-pixel */
"36 33 111 2 ",
"   c #0F1012",
".  c #0F1013",
"X  c #111215",
"o  c #16181B",
"O  c #17191D",
"+  c #17191E",
"@  c #1C1E22",
"#  c #1C1F23",
"$  c #1D1F24",
"%  c #1D2024",
"&  c #1F2226",
"*  c #212429",
"=  c #22252A",
"-  c #2C2F35",
";  c #30353B",
":  c #32373D",
">  c #33373E",
",  c #33383F",
"<  c #34383F",
"1  c #373D44",
"2  c #3A3F46",
"3  c #3C4249",
"4  c #3C424A",
"5  c #3F464E",
"6  c #424A52",
"7  c #474D57",
"8  c #4C5056",
"9  c #4B525B",
"0  c #4E5359",
"q  c #4B535D",
"w  c #4D545F",
"e  c #4E5863",
"r  c #545960",
"t  c #545A60",
"y  c #555A61",
"u  c #525B65",
"i  c #535B65",
"p  c #525C68",
"a  c #535D69",
"s  c #555F6B",
"d  c #56606C",
"f  c #57606C",
"g  c #57616D",
"h  c #59616B",
"j  c #58616E",
"k  c #59626F",
"l  c #5A6370",
"z  c #5B6571",
"x  c #5F6672",
"c  c #5E6774",
"v  c #5E6871",
"b  c #5F6875",
"n  c #686A6D",
"m  c #606872",
"M  c #616974",
"N  c #616A76",
"B  c #626B77",
"V  c #646C77",
"C  c #626B78",
"Z  c #636C78",
"A  c #656E7B",
"S  c #676E7A",
"D  c #666E7B",
"F  c #676F7C",
"G  c #6E7175",
"H  c #68707B",
"J  c #68717D",
"K  c #6A717C",
"L  c #69727E",
"P  c #6B747D",
"I  c #6D747F",
"U  c #73777C",
"Y  c #6B7380",
"T  c #6C7481",
"R  c #6E7683",
"E  c #6F7784",
"W  c #717983",
"Q  c #707885",
"!  c #717986",
"~  c #777D86",
"^  c #747C88",
"/  c #767D89",
"(  c #7C838E",
")  c #818891",
"_  c #8B8D90",
"`  c #9A9DA3",
"'  c #9DA0A5",
"]  c #A5A8AC",
"[  c #B2B4B6",
"{  c #B1B4B9",
"}  c #B3B6BB",
"|  c #B9BABB",
" . c #BBBDC1",
".. c #BDBEC0",
"X. c #BEBFC0",
"o. c #C2C4C6",
"O. c #C5C6C7",
"+. c #C9CBCC",
"@. c #D5D5D6",
"#. c #D5D6D7",
"$. c #D7D8D9",
"%. c #D9DADC",
"&. c #DADBDD",
"*. c gainsboro",
"=. c gray89",
"-. c #E3E4E6",
";. c #ECECEC",
":. c #EDEDEE",
">. c gray96",
",. c #F6F6F7",
"<. c white",
/* pixels */
"= = = = = = = = = = = = = = = = = = = = = = = = = = = = = = = = = = = = ",
"= = = = = = = = = = = = = = = = = = = = = = = = = = = = = = = = = = = = ",
"= = = = t ~ ) ) ( ) ) ( ) ( ) ( ) ( ) ) ( ) ) ( ) ( ) ( ) ( ~ t = = = = ",
"= = = 0 ( / / / / ^ ( / ( ^ ( / ( ~ ^ ( / / ( / ( ^ ( ~ ( / ( ( 0 * = = ",
"= = = I / Q Q Q Q Q Q Q Q E Q E E Q E E Q Q E E Q Q E E E E Q ^ W = = = ",
"= = # W Q E E Q E E E E Q E Q E E E E E E Q E E E E E E E E E Q R # * = ",
"= = % R R R R R R R E E R R E R R R R R E R R R E E E E E E E E I $ = = ",
"= = # I Y R R R R R Y Y E Y Y R Y E Y E Y E Y E E Y Y E Y Y E Y R # = = ",
"= = @ I Y Y R Y R Y Y R Y R Y Y T T T T Y R Y Y P Y Y R Y R Y Y Y # * = ",
"= = # I Y Y Y Y P Y Y Y Y Y Y Y Y Y Y T Y Y Y Y R Y Y Y Y Y Y Y I # * = ",
"= = # P J Y J Y J Y F J P Y J J Y F F T P F F P J J P Y Y J P J I # = = ",
"= = # P J J J J J J J J J J J J J J P F F Y P F J J F F F J J J I $ = = ",
"= = # K S F F F J F J F F  .,.:.<. .%.-.<.<.` z A F F J J J F F K @ * = ",
"= = # S S F F F A F A A A { <.[ 8 U $.<._ G r u b A A F A A F Z K # * * ",
"= = # S Z Z Z Z C A Z Z Z } <.n 1 9 $.,.- 2 e j C Z Z Z A Z Z Z S # = = ",
"= = # S Z Z Z Z Z b Z Z b { <.; 7 l %.@.1 q c b C Z C C Z Z Z Z S # = = ",
"= = % S B B N N N C b C N { <.< w N %.#.1 i C N N N C N C N C N S # * = ",
"= = @ S N b b b b N b b N ' *.< w b ..| 1 i M N N c N b b b b N S @ = = ",
"= = % B b b b b b b c c c ' =.> q b o...1 i x M c c c c c c c b V # = = ",
"= = % M b k b l m l x x c ] ;.: q x +.O.1 e z m x l M l l x x c m # = = ",
"= = @ N l l z b l l l z l d 6 4 e l u 6 5 u c z l l z l c l z z N # * = ",
"= = % m l x l l x l l l k g u e d k s u u s s M l c l l l l l z N # = = ",
"= = @ N l l k g l g k l k l g g g g l k s k k s k l j j l g l l m # = = ",
"= = + b g k g k g g g g k g g g g k g k k s s l k g j j j l g j m # = = ",
"= = O m h d d h s s g s g s k s g s s g s s s k s g s s k k s g m # = = ",
"= = * k h d d a s s s g s s s s s s s s k s s s s s k s a s s s m @ = = ",
"= = % m g a a a a s s s s a s a s a a s s u p s a a s a s a p g k @ = = ",
"= = % h a a a a a a p a p a s p a a a a a a s s a a a a s a a a k # = = ",
"= = # 3 d p a a s u e a e s u p p p p p i p s p p p u p p a a a 1 # = = ",
"= = % O 1 e a e u u a a s p p e p p p p p e p e p p p u e a e 1 # % = = ",
"= = * % o X     . . . . . .             . . . . . .       X X O % * = = ",
"= = = = % % # # $ $ + # $ $ @ @ @ # # # @ @ @ @ # # @ # # # % % = = = = ",
"= = = = = = = = = = = = = = = = = = = = = = = = = = = = = = = = = = = = "
};
