/* XPM */
static char *rra_b_png[] = {
/* columns rows colors chars-per-pixel */
"79 33 93 2 ",
"   c #17191C",
".  c #181A1E",
"X  c #1B1D21",
"o  c #1C1E22",
"O  c #22252A",
"+  c #262E36",
"@  c #2B3037",
"#  c #283039",
"$  c #28313A",
"%  c #2A333C",
"&  c #2A333D",
"*  c #2D353F",
"=  c #31353B",
"-  c #34383E",
";  c #2D3640",
":  c #2D3742",
">  c #2E3842",
",  c #2E3843",
"<  c #333941",
"1  c #303A45",
"2  c #363E47",
"3  c #383F47",
"4  c #343E49",
"5  c #38404A",
"6  c #39414B",
"7  c #3B424A",
"8  c #3B434B",
"9  c #3D444D",
"0  c #3C444E",
"q  c #3E4650",
"w  c #3F4852",
"e  c #404750",
"r  c #414850",
"t  c #464B53",
"y  c #424B55",
"u  c #454B54",
"i  c #444C57",
"p  c #474D56",
"a  c #484D56",
"s  c #4A4F58",
"d  c #4A5058",
"f  c #4C515A",
"g  c #4C515B",
"h  c #48515C",
"j  c #49515C",
"k  c #4B545F",
"l  c #4C5460",
"z  c #4F5762",
"x  c #4E5763",
"c  c #535862",
"v  c #515A66",
"b  c #515B67",
"n  c #545A64",
"m  c #545D67",
"M  c #525C68",
"N  c #535D69",
"B  c #545D69",
"V  c #565E69",
"C  c #545E6A",
"Z  c #575F6B",
"A  c #56606C",
"S  c #5A606A",
"D  c #59626F",
"F  c #5A636F",
"G  c #5A6370",
"H  c #5B6571",
"J  c #5C6470",
"K  c #5F6771",
"L  c #5E6773",
"P  c #5F6773",
"I  c #5E6774",
"U  c #5F6875",
"Y  c #606873",
"T  c #616A77",
"R  c #636C76",
"E  c #646D77",
"W  c #626B78",
"Q  c #636C79",
"!  c #646D79",
"~  c #666F7C",
"^  c #676F7C",
"/  c #67707C",
"(  c #6A737E",
")  c #6B737F",
"_  c #6B7380",
"`  c #6C7481",
"'  c #6D7582",
"]  c #6F7782",
"[  c #6F7784",
"{  c #717984",
"}  c #707885",
"|  c #737B86",
" . c #747C87",
/* pixels */
"O O O O O O O O O O O O O O O O O O O O O O O O O O O O O O O O O O O O O O O O O O O O O O O O O O O O O O O O O O O O O O O O O O O O O O O O O O O O O O O ",
"O O O O O O O O O O O O O O O O O O O O O O O O O O O O O O O O O O O O O O O O O O O O O O O O O O O O O O O O O O O O O O O O O O O O O O O O O O O O O O O ",
"O O O O O O O O O O O O O O O O O O O O O O O O O O O O O O O O O O O O O O O O O O O O O O O O O O O O O O O O O O O O O O O O O O O O O O O O O O O O O O O ",
"O O O O   . X o o o o o o o o o o o o o o o o o o o o o o o o o o o o o o o o o o o o o o o o o o o o o o o o o o o o o o o o o o o o o o o o o X .   O O O O ",
"O O O o - d c n n n n n n n n n n n n n n n n v n n n n n n n n n n n n n n n n n n n n n v v c n n v n n n n n n n n n n n n n n n n n n n n v c s - o O O O ",
"O O O = S ) [ } } } } } } } } } } } } } } } } } } } } } } } } } } } } } } } } } } } } } } } } } } } } } } } } } } } } } } } } } } } } } } } } } [ ) S = O O O ",
"O O O t ) [ [ [ [ [ } [ [ } [ [ } [ [ } [ [ [ [ [ [ [ [ [ [ [ [ [ [ } [ [ } [ [ } ' } } ] } } } } } ' } } } ] } [ [ } [ [ } } } } [ [ } [ [ [ [ [ } ) t O O O ",
"O O O f ) ' ' [ [ ' ' [ ' ' [ ' ' [ ' ' [ ' _ [ ' [ ' [ ' [ ' [ [ ' ' [ ' ' [ ' } ' ' ' ] ' ' [ ' [ [ ' ' ' ' ' ' ' [ ' ' [ ' ' [ ' ' [ ' ' ' [ ' ' ) f O O O ",
"O O O f _ ' ' _ ' ' _ [ ' _ [ ' [ _ } [ _ [ ' [ [ _ [ _ ' ' ' ' ' ' ' ' ` ` ' ' ' ' ' ' ` ` ' ' [ ' [ ' ' ' ' _ ' ' ' ' ' ' ' ' ' ' ' ' ' ' _ [ ' ' _ f O O O ",
"O O O j _ ' _ ) _ ' ' _ _ ' ' _ _ _ _ _ _ _ _ _ _ ' _ _ ' _ ' _ ' _ _ ' ` ` ` ` ` ` ` ` ` ` ` ` _ _ _ _ _ ' _ ) ' ' ' _ _ ' ' _ ' _ _ ' ' _ ' _ _ _ _ s O O O ",
"O O O s ) ) ) ) _ ) ) _ ' ' ) _ ) ) ) ) _ _ _ _ _ _ ) ) _ _ ) _ _ _ _ _ ) ) ` ) ` ` ` ` ` ` ) ) _ _ _ _ _ _ ) ) ) ) ) _ _ _ ) _ ) _ ) ) _ ) ) _ _ _ ) s O O O ",
"O O O s ~ ~ ) _ ) ) / ) ~ / _ ~ ~ ) ~ ) _ ~ _ ) _ / ) ) ~ ) ~ ) ) / ) ) ) / ) ) / / ) / / ) / ) _ ~ ) ~ _ _ ~ ) ) ) ~ ) ) _ ~ ) / ) ^ ) ) ) ) ~ _ _ ^ s O O O ",
"O O O s ~ _ ~ _ ~ ) / ) / ) / / ) ~ ) ) ~ ) ) ~ / / _ / ) ~ ) ) / / ) / ) / / / / / / ) / / ) / ) ~ / ) ) ~ ) ) ~ ) ) ~ ~ / ) / ~ ) ~ ) ~ ) ~ ) ) ) Q a O O O ",
"O O O a Q ~ ~ ~ ~ ~ ~ ~ / / / / ~ ~ ~ ~ ~ ~ ~ ~ / / ~ ~ ~ ~ R Z + 7 $ 7 0 2 $ $ M F 2 $ $ $ k ~ ~ ~ ~ ~ ~ ~ ~ ~ ~ ~ ~ ~ ~ ~ ~ / ~ ~ ~ ~ ~ ~ ~ ~ ~ ~ ~ a O O O ",
"O O O p R Q ~ R ~ ~ R ~ ~ ~ ~ ~ ~ R ~ ~ ~ R ~ ~ Q ~ ~ ~ ~ ~ ~ D $ q } Q y ; L / } > y  . .y : R ~ ~ ~ ~ ~ R ~ ~ ~ R ~ ~ ~ ~ ~ ~ ~ ~ Q ~ ~ ~ ~ R ~ Q R p O O O ",
"O O O p R ~ Q ~ Q R ~ Q Q Q Q Q ~ Q R Q R ~ Q R ~ ~ Q Q W R ~ Z & Z } Q w 4 } ` / / } ] ~ c > Q ~ Q Q Q ~ Q R Q R ~ R ~ R Q Q Q Q R ~ R ~ R ~ W ~ W R p O O O ",
"O O O p U W W W W Q W Q W W W W W W W W W Q W W U W W W W W U M & R ) W 9 y [ U R Q h y w @ > R ~ R R W U Q W Q W W U W W Q W W W W U U Q W W U W W W u O O O ",
"O O O u U W U R U W U W U W W U U W W U U W U W W W W W W U R v & W W W 6 q [ R L * : h d b 1 R ~ R W U W W W U W W R W W U W W U W W W U W W U W U I t O O O ",
"O O O r L W W I R I U I W U R I W U R I U U W I U I R I W U W v & U Q W 6 y ) I x $ R ] ` c > L ~ U I I R I U I U U W I U U U I R U I R W W U R W R I e O O O ",
"O O O r L I I I I I I L I I I L I I I L U L U I I I L I L L I v & L W I 6 q ) L M % M U l ; > L W I I I I I I I I I L L U I U I I I I I I I I I L I I e O O O ",
"O O O e D L L L I L L L L L H L L L L L L L H L L L H L H L L v & L R L 7 y ~ L L y : * , j , Z R I I H L L L L L L L L I L H L L L H L L L H L L L L 9 O O O ",
"O O O q D H D D H H G H G H H H G H D L H H L D G G H H H H H H R ) L D H ~ ~ L H H / ' ` ) Q ' R D H H H G H G G H D L H H L D H H G H H H H H H D D e O O O ",
"O O O q G H F H G G G D D G G G G G G G H F D H G G D H G G H D H F D H G G G H H F F F G G D H H G G G G G G G G G H D H F D H G G G G F H H D D G G q O O O ",
"O O O q Z S D D A G G H A D G H A D A D G D A D G G G A F D A H A D D D G A G D A D H A D D D H D Z G G D A G G A D A D D D A D G A G G D A F F D A Z q O O O ",
"O O O 9 A H A A D A D A A A H A D A A G A H A D A D A F A F A F D Z H A A G A D A H A F A F A A F A F A D A H A D A A H A G A D A A F A F A A A A F A 9 O O O ",
"O O O 9 M A A A A A A A A A A A S Z A A A A A A A A A M A A A A A Z A A A A A A A A A A Z A A A A A A A A A A A A S A A A A Z Z A A A A A A A A A A Z 9 O O O ",
"O O O 7 Z A Z Z A A S Z A A A A M A Z M A A A A A A A Z A M A M Z M A M M A Z A A M A M M A A A M A A A Z A A A Z M A A M A M A A A M A M A M A M A M 0 O O O ",
"O O O 7 M M M Z M Z M M A M M M A A M Z M A M M M M Z M A A M A Z Z M Z A Z M M A A M A Z M M A A M M Z M M M M Z M A M M Z A M A A M M Z A M A Z M M 6 O O O ",
"O O O 3 v Z M M M M M M M A M M M M A M M M A M M M M M A M M M M A M M M M A M A M M M M M M M M Z M M M M M A M M M M M M M A A M M A M M M M M M M 7 O O O ",
"O O O @ x v M M A M M M M M M M M M M M M M M M M A M M M M M M M M M M M M M M M M M M M b A M M M M M M M M M A M M M A M M M M M b M A b A M M M x @ O O O ",
"O O O O < l M M M M M M M M M M M M M M M M M M M M M M M M M M M M M M M M M M M M M M M M M M M M M M M M M M M M M M M M M M b M M b b M b M M l - O O O O ",
"O O O O O O O O O O O O O O O O O O O O O O O O O O O O O O O O O O O O O O O O O O O O O O O O O O O O O O O O O O O O O O O O O O O O O O O O O O O O O O O ",
"O O O O O O O O O O O O O O O O O O O O O O O O O O O O O O O O O O O O O O O O O O O O O O O O O O O O O O O O O O O O O O O O O O O O O O O O O O O O O O O "
};
