/* XPM */
static char *rra_u_png[] = {
/* columns rows colors chars-per-pixel */
"79 33 140 2 ",
"   c #0F1012",
".  c #0F1013",
"X  c #111215",
"o  c #16181B",
"O  c #17191D",
"+  c #17191E",
"@  c #1C1E22",
"#  c #1C1E23",
"$  c #1C1F23",
"%  c #1D1F24",
"&  c #1D2024",
"*  c #1F2226",
"=  c #212429",
"-  c #22252A",
";  c #2C2F35",
":  c #32363C",
">  c #32373D",
",  c #343A41",
"<  c #363C43",
"1  c #373D44",
"2  c #383E45",
"3  c #3A3F46",
"4  c #3A4048",
"5  c #3B4149",
"6  c #3C4149",
"7  c #3E434B",
"8  c #3F454D",
"9  c #41474F",
"0  c #434A53",
"q  c #444A52",
"w  c #454B54",
"e  c #454C55",
"r  c #474F59",
"t  c #4E5359",
"y  c #4A515C",
"u  c #4C535C",
"i  c #4D545D",
"p  c #4D5560",
"a  c #4F5660",
"s  c #4F5763",
"d  c #4E5863",
"f  c #505963",
"g  c #555A61",
"h  c #535B66",
"j  c #525C68",
"k  c #545C68",
"l  c #555E6A",
"z  c #555F6B",
"x  c #565F6B",
"c  c #56606C",
"v  c #58606B",
"b  c #58616C",
"n  c #58616E",
"m  c #59626E",
"M  c #5B646F",
"N  c #5A6370",
"B  c #5A6470",
"V  c #5B6471",
"C  c #5C6571",
"Z  c #5E6774",
"A  c #5E6871",
"S  c #5F6875",
"D  c #65686D",
"F  c #6A6C6F",
"G  c #606872",
"H  c #616974",
"J  c #616A77",
"K  c #626B77",
"L  c #646C77",
"P  c #6D6F72",
"I  c #626B78",
"U  c #666D78",
"Y  c #656E79",
"T  c #646D7A",
"R  c #666E7B",
"E  c #676F7C",
"W  c #6E7175",
"Q  c #68707B",
"!  c #68717D",
"~  c #6D747F",
"^  c #737578",
"/  c #77797C",
"(  c #767A7F",
")  c #797B7E",
"_  c #6B7380",
"`  c #6C7481",
"'  c #6F7781",
"]  c #6D7582",
"[  c #6F7784",
"{  c #707781",
"}  c #717983",
"|  c #707885",
" . c #717986",
".. c #7B7D80",
"X. c #767D89",
"o. c #767E89",
"O. c #777F8A",
"+. c #7B828A",
"@. c #7C838E",
"#. c #818891",
"$. c #858A92",
"%. c #878D94",
"&. c #8B8D90",
"*. c #8E939A",
"=. c #939596",
"-. c #92969A",
";. c #969799",
":. c #91969D",
">. c #9499A0",
",. c #969BA3",
"<. c #9A9DA3",
"1. c #9FA2A6",
"2. c #A2A3A5",
"3. c #A6A8AB",
"4. c #A8A9AC",
"5. c #B0B3B7",
"6. c #B4B6B8",
"7. c #B9BABB",
"8. c #BDBEC0",
"9. c #C0C1C3",
"0. c #C1C2C5",
"q. c #C2C4C6",
"w. c #C4C6C8",
"e. c #C9CBCC",
"r. c #CDCED0",
"t. c #CFD1D3",
"y. c #D5D6D7",
"u. c #D6D7D8",
"i. c #DADADB",
"p. c gray86",
"a. c #D9DBDD",
"s. c gainsboro",
"d. c #E0E0E1",
"f. c gray89",
"g. c #E3E4E5",
"h. c #E3E4E6",
"j. c #ECECEC",
"k. c #EDEEEF",
"l. c gray96",
"z. c white",
/* pixels */
"- - - - - - - - - - - - - - - - - - - - - - - - - - - - - - - - - - - - - - - - - - - - - - - - - - - - - - - - - - - - - - - - - - - - - - - - - - - - - - - ",
"- - - - - - - - - - - - - - - - - - - - - - - - - - - - - - - - - - - - - - - - - - - - - - - - - - - - - - - - - - - - - - - - - - - - - - - - - - - - - - - ",
"- - - - - - - - - - - - - - - - - - - - - - - - - - - - - - - - - - - - - - - - = - = - - - - - - - - - - - = - - - - - - - - - = - = = - - - - = = - - - - - ",
"- - - - g o.#.@.#.#.#.#.#.#.#.#.#.#.#.#.#.#.#.#.#.#.#.#.#.#.#.@.#.#.#.#.#.#.#.#.#.#.#.#.#.#.#.#.#.#.#.#.#.#.#.#.#.#.#.#.#.#.#.#.#.#.#.#.#.#.#.#.#.O.g - - - - ",
"- - - t @.o.o.o.X.X.X.o.o.o.o.o.o.X.X.X.o.o.o.o.X.X.X.X.X.X.X.X.X.X.X.o.X.o.o.X.o.o.o.X.X.X.o.o.o.o.X.X.X.X.X.X.X.X.X.X.X.X.X.X.X.X.X.X.X.X.X.X.O.O.@.t = = - ",
"- - * { o. .[ [ | | | |  .| | | [ [ [ | [ [ [ [ | | [ [ [ [ [ [ | | [ [  . .| | [ [ [ [  .[ [ [ | [ | [ | | [ [ | | | | [ | | | | | | | | | | | | | X.{ = = - ",
"- - % } [ [ [ [ [ [ [ [ [ [ | [ [ [ [ [ [ [ [ [ [ [ [ [ [ [ [ [ [ [ [ [ [ [ [ [ [ [ [ [ [ [ [ [ | [ [ [ [ [ [ [ [ [ [ [ [ [ | | | [ [ [ [ [ | [ | [ | | % = = ",
"- - $ ' ' [ [ ' ] [ ` [ ` [ ' [ ` [ [ [ [ [ [ [ [ [ [ [ [ [ [ [ [ [ ] [ ] [ [ [ [ [ [ ` [ [ ' ` [ [ ] [ [ [ ] [ [ [ ] [ ] ] [ [ ` | ` | ` [ ` | { [ ] { % = = ",
"- - $ ` _ [ [ ' ] ] ] ] ] ] ] ] [ ` ' [ ` ] ] ] ` [ ` [ _ [ ' [ ` [ ` ` _ [ _ _ [ [ _ [ ` ` [ [ _ [ [ _ ] ' ` ' ] ] _ [ _ _ [ _ { ` ' ] ] ] ` ] ] ] [ ^ @ - - ",
"- - $ _ _ _ _ _ _ ] _ ] ] _ _ ] ` _ _ _ ` _ ` _ _ ` _ _ _ _ _ _ _ ` ` ` [ _ _ [ _ _ _ _ [ ` ` ` ] _ _ ' _ ` _ ` ] ] [ _ _ [ [ _ ! ` ] ] ` ` ` ] ! ] ] ` @ - - ",
"- - # [ _ _ ' _ _ ] _ ] _ _ _ _ _ _ Q ' _ _ _ _ _ _ _ _ _ _ ' _ _ _ _ _ ' _ ' ! _ [ _ _ ` ! [ ` _ _ _ _ _ _ ' ` _ [ _ [ _ ` _ _ ` { ~ ` ` ` ` ` ] _ ` ~ @ - - ",
"- - # _ Q _ E _ ! ! ! ! ! _ ! ! ! ' Q ! _ _ ! ! ! _ ! ! _ _ ! _ ! ! _ _ ! ! ! ! E ! ! ! ! ! ! _ _ ! _ ! ! ! ! ! E E E E ! ! E E ! ! ! ! E ! ! ! ! E ! ` # - - ",
"- - $ Q Q Q Q Q ! ! ! ! ! ! ! ! ! ! ! ! ! ! ! ! ! ! ! ! ! ! ! Q ! ! Q Q Q _ ! ! ! ! Q Q Q _ Q Q ! ! ! ! ! ! ! ! ! ! ! ! ! ! ! ! ! ! ! ! ! ! ! ! ! ! ! ` $ - - ",
"- - * Q E E Q ! E E ! ! E E E E T ! ! R ! R ! T E ! R E ! ! R >.z.h.z.h.a.h.z.z.<.*.g.z.z.z.5.B T E E T E R E E E E E ! E E E E ! ! E E E E ! ! E E E ! $ - - ",
"- - # E ! T T T T E T T T T E E T T T T T R T ! R T R R T T E >.z.d.< +.u.z.&.W k l.r.9 7 y.z.( n T E T R ! T R T T T T T T E E T T T E T T T T T E T ! $ = - ",
"- - & E T T T T T I T T T T T I T T T T T T T T T T T T T T T :.z.2.: w a.l.; 4 t p q 9 u 1.z...i S T T T T T T T T T T T T T I L T T T T T L T T T T E $ - - ",
"- - $ L K I I I S I I I I I S I I I K K I S I I S T I I T I K *.z.) 7 x a.y.: u A Z 5.w.t.z.z./ e S I I I I I I I I K I I I I I K K K I I I S I I I I T $ = = ",
"- - $ Q K K K K K K K K I S K K K I I I I I I I K K I S I S K :.z.) 0 Z i.u.1 h } j.l.q.9.3.z.( e B I I S I S I S I K K S I S K K K S I S I K K I K R I $ - - ",
"- - @ L I G K G Z I K S I I Z K S I Z I K K Z I S I S S Z K Z $.s.P w N 8.7.1 k *.s.D > 4 =.i.F w B K K Z I I I I I Z K S K I Z S I I S I I Z K K K K K $ - - ",
"- - & K Z Z Z Z Z K B S N Z Z Z B K N Z B Z Z N Z S A S Z Z Z $.f.W w x 0.8.< k +.g.=.4 -.i.f.P q c Z B Z Z Z Z B S Z Z B Z Z Z S S B Z N Z S Z N N K L $ - - ",
"= = $ L Z V Z Z B Z Z Z Z A S B Z B Z B Z M Z N B S Z S Z S Z %.j.^ 0 M e.w.< p M 6.j.j.a.4.j.;.9 M S Z B Z Z B Z Z Z B Z A Z Z Z Z B Z S M S B Z M Z K $ = - ",
"- = $ K Z N V M B N B B B B B N N Z B N M Z M Z B B B B M B M c e 8 r x h 8 8 h M d 8 : < < < , q x B N Z B N N B B B B B N B M B N Z M M Z B B M Z N K $ - - ",
"- - # Z N N M M N N N N B N M M B B N N N N M M N N N B M M B B j s h M x j j x N x h u u d d p h N N N M N N N N N N N N N M N N N N N B B B B M N Z Z $ - - ",
"- - % I N x N N N N N c N N M c N N N N c N N n N n N c N n c c x N x M x N M N N N c N c B c M N x N x M M N x N N N N x N N N c N M B c N c M M c M K $ - - ",
"- - $ G c c N n n x x c M c c v c M x c c c M c c c c c c c M c N n c N n n n n c c c M b b c c M c M c c M c c c M c c n n n n c M c c c c c c x M M G $ - - ",
"- - $ Z c c x c c M c c c c c c x c j M c c x c c c c c c c x c x x c c x x M c c c c c c c c c c c c c c c c c x x c c c c M c c c c c c c c c x x x A O - - ",
"- = $ G x c x x j c c M c c c c c c x x c c x x c c c M c c c c c c j c c c j c c c c c h c c c c c c j h c c c x x x x c c j c c c c c v c j M M x x G - = - ",
"- = $ M x x j x c x j j c j j c j j x j x j j M j x j j c j j x j x j x j j x j c j j c c c d c c h c j c h j c j x j x j j c j j c j j j c c j j j x D O - - ",
"- - $ x x k j j j j j j c j j j x j j x j j j j j j j j M h j j j c j j j j c j c j j j j j j c j j j j j j c j j c j j j j c j j j j c c j j j j x j n $ - - ",
"- - $ 3 x k j j j j j j j j j j j j j j j j j j j j j j j j j j j j j j j j j j j j j j j j j j j j j j j j j j j j j j j j j j j j j j j j j j j j c 4 $ = - ",
"- - = O 3 p h j j j j j j j j j j j j j j j j j j j j j j j j j j j j j j j j j h h j j j j j j j j j j h h j h j j j j j j j j h j j h j j j j j s < + = = = ",
"- - = $ o X . . . . . . . . . . . . . . . . . . . . . . . . . . . . . . . . . . . . . . . . . . . . . . . . . . . . . . . . . . . . . . . . . . . X o * = = = ",
"- - = = $ $ @ @ @ @ @ @ @ @ @ @ @ @ @ @ @ @ @ @ @ @ @ @ @ @ @ @ $ $ $ $ $ @ @ @ @ @ @ @ @ @ @ @ @ @ @ @ @ @ @ @ @ @ @ @ @ @ @ @ % O % * $ $ $ @ @ $ = = = = = "
};
