/* XPM */
static char *rrb_png[] = {
/* columns rows colors chars-per-pixel */
"79 33 141 2 ",
"   c #0F1012",
".  c #0F1013",
"X  c #111215",
"o  c #16181B",
"O  c #17191D",
"+  c #1C1E22",
"@  c #1C1E23",
"#  c #1C1F23",
"$  c #1D1F23",
"%  c #1D1F24",
"&  c #1D2024",
"*  c #1F2226",
"=  c #212429",
"-  c #22252A",
";  c #2C2F35",
":  c #2F3439",
">  c #32363C",
",  c #363C43",
"<  c #373C43",
"1  c #373D45",
"2  c #3A3F46",
"3  c #394047",
"4  c #3C4249",
"5  c #3D434B",
"6  c #3E444D",
"7  c #40464F",
"8  c #44484D",
"9  c #434952",
"0  c #434A53",
"q  c #474D56",
"w  c #474F59",
"e  c #4E5359",
"r  c #4A525C",
"t  c #4B525C",
"y  c #4D545D",
"u  c #4F5763",
"i  c #4E5863",
"p  c #505760",
"a  c #555A61",
"s  c #515964",
"d  c #515965",
"f  c #535B65",
"g  c #525C68",
"h  c #535D69",
"j  c #545C68",
"k  c #555E6A",
"l  c #57606B",
"z  c #56606C",
"x  c #5C626A",
"c  c #58616C",
"v  c #59626F",
"b  c #5A636F",
"n  c #5B646F",
"m  c #5A6370",
"M  c #5B6471",
"N  c #5D6670",
"B  c #5C6672",
"V  c #5D6672",
"C  c #5E6774",
"Z  c #5E6871",
"A  c #5F6875",
"S  c #606872",
"D  c #616A77",
"F  c #636B76",
"G  c #686B70",
"H  c #626B78",
"J  c #646D79",
"K  c #666D78",
"L  c #656E7B",
"P  c #666E7B",
"I  c #676F7C",
"U  c #6B7076",
"Y  c #6E7174",
"T  c #6E7175",
"R  c #67707C",
"E  c #68707B",
"W  c #68717B",
"Q  c #68717D",
"!  c #6A717C",
"~  c #6A737D",
"^  c #69727E",
"/  c #717377",
"(  c #737679",
")  c #797B7E",
"_  c #6B7380",
"`  c #6C7481",
"'  c #6F7781",
"]  c #6D7582",
"[  c #6E7683",
"{  c #6F7784",
"}  c #707781",
"|  c #717983",
" . c #707885",
".. c #717986",
"X. c #757C86",
"o. c #7C7E82",
"O. c #747C88",
"+. c #767D89",
"@. c #767E89",
"#. c #777F8A",
"$. c #7C838E",
"%. c #858789",
"&. c #818891",
"*. c #8B8D90",
"=. c #888E94",
"-. c #8E9299",
";. c #929496",
":. c #92979E",
">. c #96989A",
",. c #9A9B9D",
"<. c #9499A0",
"1. c #969BA3",
"2. c #9A9DA3",
"3. c #9D9FA1",
"4. c #A2A3A5",
"5. c #A5A6A9",
"6. c #AAACAE",
"7. c #B1B2B4",
"8. c #B3B6BA",
"9. c #B4B5B8",
"0. c #B8B9BA",
"q. c #BCBDBE",
"w. c #BCBEC0",
"e. c #C0C2C3",
"r. c #C6C6C7",
"t. c #C7C8C9",
"y. c #CBCCCE",
"u. c #D3D4D4",
"i. c #D4D5D6",
"p. c #D6D7D8",
"a. c #D7D8D9",
"s. c gray86",
"d. c #D9DBDD",
"f. c gray87",
"g. c gray88",
"h. c #E0E0E1",
"j. c #E3E4E6",
"k. c #E4E4E4",
"l. c #EDEDEE",
"z. c gray96",
"x. c white",
/* pixels */
"- - - - - - - - - - - - - - - - - - - - - - - - - - - - - - - - - - - - - - - - - - - - - - - - - - - - - - - - - - - - - - - - - - - - - - - - - - - - - - - ",
"- - - - - - - - - - - - - - - - - - - - - - - - - - - - - - - - - - - - - - - - - - - - - - - - - - - - - - - - - - - - - - - - - - - - - - - - - - - - - - - ",
"- - - - - - - - - - - - - - - - - - - * - - - - - - - - - - - - - - - - - - - - - - - - - - - - - - - - - - - - - - - - - - - - - - - - - - - - - - - - - - - ",
"- - - - a @.&.$.&.&.&.&.&.&.&.&.&.&.&.$.&.&.&.&.&.&.&.&.&.&.&.$.&.&.&.&.&.&.&.&.&.&.&.&.&.&.&.&.&.&.&.&.&.&.&.&.&.&.&.&.&.&.&.&.&.&.&.&.&.&.&.&.&.@.a - - - - ",
"- - - e $.@.@.@.+.+.+.@.@.@.@.@.$.O.O.$.O.O.O.$.$.O.$.O.O.@.O.@.@.#.@.@.$.@.@.@.+.+.+.#.@.@.@.@.+.+.+.+.+.+.+.+.+.+.+.+.+.+.+.+.@.@.@.@.@.@...$.@.@.$.e - = - ",
"- - * } @...{ {  . . . ... . . .{ { { { { { { { { ' { { ..{ { { { { { { { { ..{ { { { { { { { {  .{ { {  . .{ {  . .{ {  . . . .{ { { { { { { { ....@.' * - - ",
"- - % | { { { { { { { { { {  .{ { { { { { { { { { { { { { { { { { { { { { { { { { { { { { { { { { { { { { { { { { { { { { { { { { { { { { { { { { { { { % - - ",
"- - # ' ' { { ' ] { ` { ` { ' { { _ { { { { { { { { { _ { { [ { { { { _ { { { { { ] { { { { { ' { { ] { { { ] { { { { ] { ] { { { _ { { { { { { { ' { ' @ - - ",
"- - & ' _ { { _ ] ] ] ] ] ] ] ] [ [ _ [ _ [ [ _ { { _ { { { _ { _ { _ { { ' _ { _ { _ { _ { _ _ _ { { _ _ { { _ ] ] { _ { { _ { ' { _ _ _ { { _ { ` ` ' * - - ",
"- * # ' _ _ _ _ _ ] _ ] ] _ _ ] _ _ _ [ _ _ _ _ _ _ _ _ _ _ _ _ _ ` _ _ _ _ _ ' _ ' _ _ { ' _ { _ _ _ _ _ _ _ _ _ _ _ _ _ _ _ _ _ _ _ { _ _ _ _ ` ` ' } # - - ",
"- - # ^ _ _ _ _ _ ] _ ] _ _ _ _ _ _ _ _ _ _ _ _ _ _ _ _ _ _ _ _ _ _ _ _ _ _ ^ ' _ _ _ _ ' R _ _ _ _ _ _ _ _ _ _ _ _ _ _ _ _ _ _ _ _ _ _ _ _ _ _ Q ` ' Q # * - ",
"- - & ^ _ _ _ _ Q Q Q Q Q _ Q Q _ R _ R _ _ R _ ^ ^ _ R _ R _ E _ I _ _ _ ^ R ^ I x.8.B R ^ R ^ _ _ _ R _ _ _ _ _ _ _ I I _ I _ _ I _ I _ _ I _ ^ I ^ ^ % - - ",
"- - # R I _ R I R _ I I Q Q Q Q _ R R _ R _ R R R R R _ R R R ^ I I E E ^ R ^ R R x.6.e F I ^ R R R R R R _ R I _ I _ I R _ R R _ I I _ Q Q Q Q Q Q Q Q # * - ",
"- - * R J I R I I J I I I I I I L R R I J R R R R R R R R E R 1.x.j.x.j.d.k.x.x.2.x.5.9.x.l.-.A R R R R L I R I J I L I I R I I P I I I P P Q P I I Q Q * - - ",
"- - # R I I J I I J I J I I I I L L L L L L R J J R R R E R J :.x.h., $.p.x.*.Y a x.x.o.9 p.z.x M R I L L L L L I L L L J I I L P P P P P P Q J J Q I Q & * - ",
"- - # E J J J J J I J J H J J H J J J J J J J R A J R A J J J :.x.4.> q a.z.; 4 y x.q.: q U x.5.i A J J J J J J J J J J J J J L J J J J J J J J J K J K & - - ",
"- - # K K H H H A R A J A J A R F A A J J J J A E A R J J A R :.x.) 5 z s.i.> e A x.>., g b z.7.9 v J A F J F R A J R A J R A J F J A J A J A R F J J R & * - ",
"- - # J J F H C F A J A J A F A R A J A A A J A A A A A A J F &.s.Y 9 b w.0., g F s.%.5 z F u.,.5 z A J A F A A A A A J A A A A F A J A J A F A A A J F & - - ",
"- - # J D H C F A A A A A A A A B A A A A A A A A A A A A A A $.g.Y q b e.q.3 j F g.3.4 b X.g.;.4 k H A A A A A A A A A A A A A A A A A A A A A A A A J & * - ",
"- - # F C C C C A A A A A A A A A A A A A A A A A A A A A A A =.k./ 9 v t.e., s A k.g.( s t.p.8 6 z B A A A A A A A A A A A A A A A A A A A A A A A A J & - - ",
"- - @ F M V V V M A b A A M M V A B B B M A B B B B B A b A M =.l.( 8 z y.t., p M l.r.k.l.u.G , y M M V V V A b b A A M A B M A M B B A M A V V M A A A & = - ",
"- = @ F V M M M M M b B M V M M b B M M M M M M M M M M b A M z t 3 w v d 6 7 g V i 1 > , , 3 q k V M M M M M M M B b M M M B b M M M M b M M M b b B F & - - ",
"- - # V M M M M M M M M M M M v n b M v v M M v M M M M M M M M g d g v v d d z v k i r r r i l v M M M M b M b M M M v v M b M v M b M M b b b M M M A & - - ",
"- - # F v v v v v v b z M l v M B z v v v v v v l M l v v v z M v v v v v v v v v v v v v v v b v v z M b v v v v v v v v v M l M M l M M l v v l M M A & * - ",
"- - @ A M k M z M z M k z z z z z z v v z z z z v v z z z z z z v v z v v z v v z v z v z z z z v z z v z z v z l z z z z z v v z v v z v l z M z x v S # - - ",
"- - # V z z k z k z z z l l z z z z z z l l z z z z z z l l z z l k z z z z l l z z z z z z z z z z z v z z z z z z z z z z z z z z l l z z z z z k v S # - - ",
"- - # n z z z z k z z k l l z z z z z z z l z z z z z z l l l z l z z z z z g z z z z z z z z z z z z i z z z z z z l z z z z z z k z z z l z z z z k V # - - ",
"- - & n z k g k g z g k g l g z i z z i z z i z g g z g l g g z g g g k g k g l g z g g z l i z z g z z v i g z l g g l g g v i z g g k g l g g g k x n # - - ",
"- - # x k j g g g k g g z g g g z g i z g g i z z i g z g g g g g g z g g g k g g g g z z g g g i z i v g v i z g g z g g z g g g g g g g g g g g k g z $ - - ",
"- - # 2 k g g g g g g g g g g g g g z i g g z i g g g g g g g g g g g g g g g g g g g g g g g g z i g g g g z i g g g g g g g g g g g g g g g g g g z 3 # = - ",
"- - - o 1 u g g g g g g g g g g g z i z g z i z g g g g g g g g g g g g g g g g g g g g g g g g g g g g g g g g g g g g g g g g g g g g g g g g g u , O = = - ",
"- - - # o X     . . . .         . . . . . . . . . . .   X             . . . .                                   . . . . .               X X       X o = = - - ",
"= = = = * # + + + + + + + + + + + + + + + + + + + + + + + + + + # # # # # # + + + + + + + + + + + + + + + + + + + + + + + + + + # # # # + + + + + # # = = - - "
};
