/* XPM */
static char *rrb_d_png[] = {
/* columns rows colors chars-per-pixel */
"79 33 90 1 ",
"  c #17191C",
". c #181A1E",
"X c #1B1D21",
"o c #1C1E22",
"O c #22252A",
"+ c #252D36",
"@ c #272F38",
"# c #2B3037",
"$ c #283039",
"% c #29313B",
"& c #2A333C",
"* c #2A333D",
"= c #2C353F",
"- c #31353B",
"; c #34383E",
": c #2D3741",
"> c #2F3944",
", c #333941",
"< c #333A44",
"1 c #323C46",
"2 c #383F47",
"3 c #333D48",
"4 c #353F4A",
"5 c #383F49",
"6 c #38404A",
"7 c #39414B",
"8 c #3B424A",
"9 c #3B434B",
"0 c #3A424C",
"q c #3D444D",
"w c #3C444E",
"e c #3F454F",
"r c #3E4751",
"t c #3F4852",
"y c #404750",
"u c #424852",
"i c #464B53",
"p c #414A54",
"a c #424B55",
"s c #474D56",
"d c #484D56",
"f c #4A4F58",
"g c #4A5058",
"h c #4C515A",
"j c #4C515B",
"k c #4C5460",
"l c #4E5661",
"z c #4E5763",
"x c #4F5862",
"c c #535862",
"v c #515A66",
"b c #515B67",
"n c #545A64",
"m c #545C67",
"M c #525C68",
"N c #535D69",
"B c #545D69",
"V c #545E6A",
"C c #575F6B",
"Z c #56606C",
"A c #58616B",
"S c #5A606A",
"D c #59626F",
"F c #5A636F",
"G c #5A6370",
"H c #5B6571",
"J c #5D6572",
"K c #5D6672",
"L c #5E6773",
"P c #5E6874",
"I c #5F6875",
"U c #616974",
"Y c #626B77",
"T c #646D77",
"R c #626B78",
"E c #656E7A",
"W c #656E7B",
"Q c #676F7C",
"! c #67707C",
"~ c #69727D",
"^ c #6B737F",
"/ c #6C757F",
"( c #6B7380",
") c #6C7481",
"_ c #6D7582",
"` c #6F7784",
"' c #6F7883",
"] c #717984",
"[ c #707885",
"{ c #747C87",
/* pixels */
"OOOOOOOOOOOOOOOOOOOOOOOOOOOOOOOOOOOOOOOOOOOOOOOOOOOOOOOOOOOOOOOOOOOOOOOOOOOOOOO",
"OOOOOOOOOOOOOOOOOOOOOOOOOOOOOOOOOOOOOOOOOOOOOOOOOOOOOOOOOOOOOOOOOOOOOOOOOOOOOOO",
"OOOOOOOOOOOOOOOOOOOOOOOOOOOOOOOOOOOOOOOOOOOOOOOOOOOOOOOOOOOOOOOOOOOOOOOOOOOOOOO",
"OOOO .XoooooooooooooooooooooooooooooooooooooooooooooooooooooooooooooooooX. OOOO",
"OOOo;gcnnnnnnnnnnnnnnnnvnnnnnnnnnnnnnnnnnnnnnnvvnnnnnnnnnnnnnnnnnnnnnnnvcg;oOOO",
"OOO-S^`[[[[[[[[[[[[[[[[`[[[[[[[[[[[[[[[[[[[[[[[`[[[[[[[[[[[[[[[[[[[[[[[``/B-OOO",
"OOOi^`````[``[``[``[``````````````[``[``[`_[]_````````````[``[``[``[``````^iOOO",
"OOOh^__``__`__`__`__`_`__`_`_`_``__`__`__[__]_`'_`_`_`_``__`__`__`__`_``_`^gOOO",
"OOOj^_____(`_(`_______(____(_________'(_________________________`_(`_(_(__^hOOO",
"OOOg^__((__((__(_((__(_(_(__(_^^___((__(_((_(_(_(_(__^_^(__(_((_(__((_(__((gOOO",
"OOOg^^^^(^^((_^(((^^^_^_(^_(((^^((^^_((^_(_(_(^_((_^^(^^(^^((_^(^(^^(^^(((^gOOO",
"OOOgWQQ^^^!^!!(Q^!^!^QQ((!W^^(^!!^!^!^!!!+x!!^!!!^!^!^!^^^!^!!(!!^!^(^Q(^^!gOOO",
"OOOfW^W/^W!^!(!!/!^^^W!^!!^!/Q^^!^!^!!^!!$S'!!!^!^!!^W^^!^^!^!^!/^W/^^!^WWWgOOO",
"OOOfWW!WW^WW!!!!WWWWW^WW!!!WWWWC+4$6w6@$N&Sx%1S!!!!WWWWWWWWW!WW!WWWWWWWWW^WdOOO",
"OOOsYTWWWWWWWWWWWWWWWWWWWWWWWWWB%u`Wa:I^[=>I_a1TWWWWWWWWWWWWWWWWWWTWWWWTWWYdOOO",
"OOOsYWWYWWYWRWWWYWTYWWYWYWWWWWWN*S`Wt1{!!&x{!P:ZWWWWWTYWWWWYWWWWWYWWYWYWWWYsOOO",
"OOOsIQRY!ITWTITIWIWIWWIWWYYRRRYN*T!Twa`IY$F(YY:M!YYR!IT!ITIWI(IITTIRRRWRRRIsOOO",
"OOOuIRRPI!IITITIWIITIIIIIYITRIYN*IWI0t`TY$F!YY=x^YRIYIIIIIWIIIWIYYITIRIRIRIuOOO",
"OOOuPPPPIITIIIIIIIIIIIIIYIJYIYIN*I!I7t(PI$cWYZ$M^IIYIYYIIITIIIIIYIIYRIIIIIIuOOO",
"OOOyPPPUGIIIIIIPIJIIIIIIPJPPIJIz&ITI6p(II$4FJ81^WJJJIJJJIIIJPPIIJIJJJIIIIJPuOOO",
"OOOyGPPJGPJGPIGIPGGKIPHJPPGPGPPM&GII6t!GJ%a8&6I^JJPPGPPPKKKGPPGPPPFPPPGPPJFtOOO",
"OOOrGGHGKGGKFKGGGKKHJHJGGGKGKGGGT(YGK!!KGG(!(_!IJGKKKGGGGGKKJGGGFPFKGGJGGFFuOOO",
"OOOyGGFFGGGGFGGGKGGGGGGGGGGGFGGGFFFFGGGGGGGKGGGGGGGGFFGGKHGGGGGKGGGGFFGGGGGqOOO",
"OOOrCGCFZGGGZFGGZGZGGGZGGGGZFFZGZFFFDDDDDZKZZFFFGGZGFZGGZGZGGGZGGZGGGZGGFZZtOOO",
"OOOeZGZZGCFZZZGZGZZGZGZGZGZFZFZFFZZFZFZFZGZGZGZZFZFZGZGZGZZDZFZFZZFZFZZZZFZqOOO",
"OOO8NZCZBFZZZZZZZZZZZZZZZZZNZZZZZZZZZZZZZZZZZZZZZZZZZZZZZZZZZZZZZZZZZZZZZZB9OOO",
"OOO8NZCCZZBFZZZNNZZZZNZNZZZNZNZNZNZNZZBZZNZNBZNZNZZZNZZNZNZNNZNZZZNZNZNZZBN9OOO",
"OOO8NBNBNBNMVNNNNZNNNZNNNNNZZNNNNZNZNBBNNZNNBZNZNNNNZNNNNZNZNZBNNZNNNZNZBBN6OOO",
"OOO2vmMBNNNNNNNNNNNNNNNNNNNNNNNNNNNNNNNNNNNNNNNNNNNNNNNNNNNZNNNNNNNNNNNNNNM6OOO",
"OOO#zMMMNNNvNMNbNNNbNbNbNNMMMMMMNNNzNNNMNbbNNNNzNNNMNbbNNbNxNNNMNNMNxNNMNNz#OOO",
"OOOO,kMMvNMNzVNNxZxZbNbNNMMMMMMMMNMNNvMNNNNxMNMNNvMNbNNbbNNNNxMNzNNNNNNNzz;OOOO",
"OOOOOOOOOOOOOOOOOOOOOOOOOOOOOOOOOOOOOOOOOOOOOOOOOOOOOOOOOOOOOOOOOOOOOOOOOOOOOOO",
"OOOOOOOOOOOOOOOOOOOOOOOOOOOOOOOOOOOOOOOOOOOOOOOOOOOOOOOOOOOOOOOOOOOOOOOOOOOOOOO"
};
