/* XPM */
static char *rrr_d_png[] = {
/* columns rows colors chars-per-pixel */
"36 33 80 1 ",
"  c #17191C",
". c #181A1E",
"X c #1B1D21",
"o c #1C1E22",
"O c #22252A",
"+ c #2B3037",
"@ c #283039",
"# c #28313A",
"$ c #2B343E",
"% c #2D343E",
"& c #2C353F",
"* c #31353B",
"= c #34383E",
"- c #2C3540",
"; c #2D3741",
": c #333941",
"> c #323A44",
", c #333D48",
"< c #373F49",
"1 c #38404A",
"2 c #39414B",
"3 c #3B424A",
"4 c #3B434B",
"5 c #3A424C",
"6 c #3B434D",
"7 c #3E454E",
"8 c #3F454F",
"9 c #414850",
"0 c #464B53",
"q c #414A54",
"w c #454B54",
"e c #464D54",
"r c #484D56",
"t c #464F59",
"y c #4A4F58",
"u c #4A5058",
"i c #48505B",
"p c #4C515B",
"a c #4A535E",
"s c #4C5460",
"d c #4E5762",
"f c #4E5763",
"g c #535862",
"h c #515B67",
"j c #545A64",
"k c #555D67",
"l c #555D68",
"z c #545E6A",
"x c #555F6B",
"c c #56606C",
"v c #5A606A",
"b c #59616E",
"n c #59626F",
"m c #5A636F",
"M c #5A6370",
"N c #5B6571",
"B c #5D6672",
"V c #5E6772",
"C c #5E6774",
"Z c #5F6875",
"A c #616A77",
"S c #626B77",
"D c #626B78",
"F c #636C79",
"G c #656D7A",
"H c #656E7B",
"J c #676F7C",
"K c #67707B",
"L c #67707C",
"P c #69717B",
"I c #69717D",
"U c #69727E",
"Y c #6C757F",
"T c #6B7380",
"R c #6E7683",
"E c #6F7783",
"W c #6F7784",
"Q c #707885",
"! c #737B86",
"~ c #747C87",
/* pixels */
"OOOOOOOOOOOOOOOOOOOOOOOOOOOOOOOOOOOO",
"OOOOOOOOOOOOOOOOOOOOOOOOOOOOOOOOOOOO",
"OOOO .XoXXXXooooooooXoXXooooXXX OOOO",
"OOOo=ugjjglkjjjjjjjjjjjjjjjjjgu=oOOO",
"OOO*vIQQWWWQQWWWQQWQQQWQQQQWQWTv*OOO",
"OOO0IWWQWWWWWWWWQQQRWWWRWWWRQWQLeOOO",
"OOOpIRRRWWRWWWQQQRRRWRRRRRRRRRWTpOOO",
"OOOpTRRRTRTWTRIQRRIWRRTRRRRTRRRTpOOO",
"OOOuTTTTWTTTTTWTTQTTRTTRTTTTWTTTpOOO",
"OOOuLTTTTTTTTTTTTTTTITTTTTTTTTTLpOOO",
"OOOuLTIIIITTTIIITITUIUIIIIITUTULrOOO",
"OOOyLILLLILLLILIILLILILIILILLLLLrOOO",
"OOOyGJLJLLL61##l#1##a&>#iLLKLLLFrOOO",
"OOOeDJJGLLF6$BPQ$,IAc-jQIRGLLLLF0OOO",
"OOOeDFGFFFF2,~IL$a!Kd;KRGKFFFFFF0OOO",
"OOOwZDDDFFF2qQFF#cTFa$!FAFFFFZFZ0OOO",
"OOO0ZZABZFZ18WDZ#jLSa$!SSZSZFSSZ0OOO",
"OOOqZGBAZFZ1qTZZ#cKZi$EVSZZZZZZV9OOO",
"OOOqBZBBZZZ28TBC#cKVi$EZZZVZVBZBqOOO",
"OOO7BBBBBNZ28TBB+jFBi;UVNVVBBBBBqOOO",
"OOO7nBBBNMBMLLBBNTFBBZINBBMBBBBcqOOO",
"OOO7nmnBNBMnMMMMnNmmnBmmcMMMcBBc7OOO",
"OOO7nnnnnnnnMMMMnnnnnnnnMnNMMMnc7OOO",
"OOO7cccncncccncccncncncncccnlncc7OOO",
"OOO3vcccccccccccccccccccccxccccx1OOO",
"OOO1jncczzzcczzzzczzczcllczzxxxz6OOO",
"OOO1kzlczzzzzzzzzzzzzzzzlzzzzzzz4OOO",
"OOO1hhcjzhzzzzzhzzhzzzhzxzzzzhzh>OOO",
"OOO+dzkhhzhhhzzhhhzhhhzzzhhhhhhf+OOO",
"OOOO;szhhzhzhhhhzhzhzhhhhhzzhzs:OOOO",
"OOOOOOOOOOOOOOOOOOOOOOOOOOOOOOOOOOOO",
"OOOOOOOOOOOOOOOOOOOOOOOOOOOOOOOOOOOO",
"OOOOOOOOOOOOOOOOOOOOOOOOOOOOOOOOOOOO"
};
