/* XPM */
static char *rrr_u_png[] = {
/* columns rows colors chars-per-pixel */
"36 33 128 2 ",
"   c #0F1012",
".  c #0F1013",
"X  c #111215",
"o  c #16181B",
"O  c #17191E",
"+  c #1C1E22",
"@  c #1C1F23",
"#  c #1D1F24",
"$  c #1D2024",
"%  c #1F2226",
"&  c #212429",
"*  c #22252A",
"=  c #2C2F35",
"-  c #2C3036",
";  c #30353B",
":  c #32373D",
">  c #33373E",
",  c #363B42",
"<  c #373C43",
"1  c #373E45",
"2  c #383E45",
"3  c #3B4149",
"4  c #3C4249",
"5  c #3D434B",
"6  c #3F464E",
"7  c #424A52",
"8  c #474D57",
"9  c #4C5056",
"0  c #4B525B",
"q  c #4E5359",
"w  c #4B535D",
"e  c #4D545F",
"r  c #4E555F",
"t  c #4F5660",
"y  c #4E5761",
"u  c #4E5863",
"i  c #505863",
"p  c #545960",
"a  c #545A60",
"s  c #535B65",
"d  c #525A66",
"f  c #5C5F63",
"g  c #525C68",
"h  c #535D69",
"j  c #555D68",
"k  c #565E68",
"l  c #545E6A",
"z  c #565E6B",
"x  c #57606B",
"c  c #56606C",
"v  c #57616D",
"b  c #58606B",
"n  c #58616E",
"m  c #59626E",
"M  c #59626F",
"N  c #5A6370",
"B  c #5B6471",
"V  c #5B6571",
"C  c #5E6773",
"Z  c #5E6774",
"A  c #5E6871",
"S  c #5F6875",
"D  c #686A6D",
"F  c #606872",
"G  c #626A75",
"H  c #606976",
"J  c #636B76",
"K  c #646C77",
"L  c #626B78",
"P  c #636C78",
"I  c #656E7B",
"U  c #676E7A",
"Y  c #666E7B",
"T  c #676F7C",
"R  c #6E7175",
"E  c #68707B",
"W  c #68717D",
"Q  c #6A717C",
"!  c #6B747D",
"~  c #6D747F",
"^  c #73777C",
"/  c #6B7380",
"(  c #6C7481",
")  c #6D7582",
"_  c #6E7683",
"`  c #6F7784",
"'  c #707781",
"]  c #717983",
"[  c #707885",
"{  c #717986",
"}  c #777D86",
"|  c #747C88",
" . c #767D89",
".. c #7E8184",
"X. c #7C838E",
"o. c #818891",
"O. c #8B8D90",
"+. c #909194",
"@. c #949597",
"#. c #999A9C",
"$. c #9A9DA3",
"%. c #9DA0A5",
"&. c #A3A5A7",
"*. c #A5A8AC",
"=. c #A8AAAC",
"-. c #ABADB0",
";. c #B0B3B7",
":. c #B2B4B6",
">. c #B0B3B8",
",. c #B1B4B9",
"<. c #B9BABB",
"1. c #BBBDC1",
"2. c #BEBFC0",
"3. c #C2C4C6",
"4. c #C5C6C7",
"5. c #C8C8C9",
"6. c #C9CBCC",
"7. c #D5D5D6",
"8. c #D9DBDC",
"9. c #DADCDE",
"0. c gainsboro",
"q. c gray89",
"w. c #E3E4E6",
"e. c #E4E5E6",
"r. c #ECECEC",
"t. c #EDEDEE",
"y. c gray96",
"u. c white",
/* pixels */
"* * * * * * * * * * * * * * * * * * * * * * * * * * * * * * * * * * * * ",
"* * * * * * * * * * * * * * * * * * * * * * * * * * * * * * * * * * * * ",
"* * * * a } o.o.X.o.o.X.o.X.o.X.o.X.o.o.o.o.o.o.o.o.o.o.o.X.} a * * * * ",
"* * * q X. . . . .| X.| X. .X.| X.| } X. . . . . . . . . .| X.X.q & * * ",
"* * * ~  .[ [ [ [ [ [ [ [ ` [ [ [ [ ` [ [ [ ` [ [ [ ` ` [ [ [  .' & * * ",
"* * @ ] [ ` ` [ [ ` ` ` [ ` [ ` _ ` ` ` ` [ ` ` ` ` ` ` [ [ ` [ ' @ * * ",
"* * $ _ _ _ _ _ ` _ _ _ _ ( ` _ _ ` _ ` _ ` _ ` ` ` ` _ _ _ ` ` ' @ * * ",
"* * @ ~ / _ _ _ ( _ ( _ ( _ ( ( _ / _ / _ / _ / / _ / ` / ` / _ ~ @ * * ",
"* * + ~ / / _ / _ / / _ ( ( ( ( / / ` / ( ( ( / / ( / / / ` / / _ @ & * ",
"* * @ ~ / / / / ! / / / / / ( / / / / / / / / / / ! ` / / / / / ~ @ & * ",
"* * @ ! W / W / W / T W W ! ! W W / W W ! / Q ! ! / T W W / W W ~ @ * * ",
"* * @ ! W W W W W W W W W W T W W W W W W T ! Q T ! T W W W W W Q @ * * ",
"* * @ Q U T T T W T T 9.w.u.u.$.u.w.u.u.;.y.t.u.1.B L W W T T T Q @ * * ",
"* * @ U U T T T I T I 9.u.O.R p u.y.f ..*.u.;.9 ^ y S T T I I I Q + * * ",
"* * @ U P P P P L I P 9.y.= 4 r u.5.= 6 -.u.D , w j S T P P L L U @ * * ",
"* * @ U P P P P P S P 8.7.: r C u.&., g >.u.; 8 S S S P P P P P U @ * * ",
"* * $ H S S P S H H H 0.7.< g S u.&.4 x ,.u., r S S H H H H H U U @ & * ",
"* * @ U P L S S H H H <.<.2 g S 9.+.5 x $.0.: r H H S Z H H H S K @ * * ",
"* * @ K S S S C H A C 3.<.3 g A q.@.5 j %.w.: r S C C C C C S S U @ * * ",
"* * @ H C C A A Z A C 6.4.2 u A r.#.5 j *.r.: w C C C C C Z A S F @ * * ",
"* * @ H A C B B n C B d 6 6 d B r 5 7 j j 7 4 u B B A M v S B B H @ & * ",
"* * @ H n A n B C n n x d g x n j u d n n g p x M B n A n B v B F @ * * ",
"* * @ H M M n n n n B n M M v v B n N n M n M n v B M M n n n B H @ * * ",
"* & @ G M n n n n n n n v v v x v n n n n n n n v M n n n n n n H # * * ",
"* * + G f v n z c c c c c c c c c c v v v x x v v x M v v v v v C + * * ",
"* * + K n f n h x x g v g c c c c v g v x v g x j x g v g v g v C @ * * ",
"* * @ m h c h h x g g x v c g c g g v g g g x g j v g g c g g v N @ * * ",
"* * O b c h h h g x g g g g g g g g g c g g j g g g g c g g c g n @ * * ",
"* * @ 4 h h g g g g g g g g g g g g g g g g g g g g g g g g g c 4 @ * * ",
"* * % o 1 u g g g g g g g g g u u c g g g g g g g g g g g g u 1 o % * * ",
"* * % % o . . . . . . . . . . . . . . . . . . . . . . . . . . o @ % * * ",
"* * * * % @ @ @ + + + + + $ + + + + $ $ $ $ o + + + + + + $ $ % * * * * ",
"* * * * * * * * * * * * * * * * * * * * * * * * * * * * * * * * * * * * "
};
