/* XPM */
static char *sa_b_png[] = {
/* columns rows colors chars-per-pixel */
"79 33 90 1 ",
"  c #17191C",
". c #181A1E",
"X c #1B1D21",
"o c #1C1E22",
"O c #22252A",
"+ c #262E37",
"@ c #272F38",
"# c #2B3037",
"$ c #283039",
"% c #2A333C",
"& c #2B343E",
"* c #2C353F",
"= c #31353B",
"- c #34383E",
"; c #2C3540",
": c #2E3742",
"> c #2F3842",
", c #2F3944",
"< c #333941",
"1 c #333B45",
"2 c #383F47",
"3 c #343D48",
"4 c #353E48",
"5 c #3B424A",
"6 c #39424C",
"7 c #3C434C",
"8 c #3E454E",
"9 c #3F454F",
"0 c #3E4852",
"q c #404750",
"w c #434A52",
"e c #464B53",
"r c #424B56",
"t c #434B56",
"y c #454B54",
"u c #474D56",
"i c #494F57",
"p c #464F5A",
"a c #4A4F58",
"s c #47505B",
"d c #4A5058",
"f c #4C515A",
"g c #4C515B",
"h c #4B525D",
"j c #4B535E",
"k c #4C555F",
"l c #4C5460",
"z c #4E5763",
"x c #535862",
"c c #515A66",
"v c #515B67",
"b c #545A64",
"n c #525C68",
"m c #535D68",
"M c #545E6A",
"N c #555F6B",
"B c #575F6B",
"V c #56606C",
"C c #5A606A",
"Z c #59616E",
"A c #5A636F",
"S c #5A6370",
"D c #5B6571",
"F c #5C6471",
"G c #5C6672",
"H c #5E6774",
"J c #5E6874",
"K c #5F6875",
"L c #606976",
"P c #636B76",
"I c #626B77",
"U c #646B77",
"Y c #626B78",
"T c #636C79",
"R c #656E7B",
"E c #676F7C",
"W c #67707C",
"Q c #68707B",
"! c #6B737F",
"~ c #6B747F",
"^ c #6C757F",
"/ c #6B7380",
"( c #6C7481",
") c #6D7582",
"_ c #6F7784",
"` c #707883",
"' c #707885",
"] c #737C87",
"[ c #747C87",
"{ c #757D88",
/* pixels */
"OOOOOOOOOOOOOOOOOOOOOOOOOOOOOOOOOOOOOOOOOOOOOOOOOOOOOOOOOOOOOOOOOOOOOOOOOOOOOOO",
"OOOOOOOOOOOOOOOOOOOOOOOOOOOOOOOOOOOOOOOOOOOOOOOOOOOOOOOOOOOOOOOOOOOOOOOOOOOOOOO",
"OOOOOOOOOOOOOOOOOOOOOOOOOOOOOOOOOOOOOOOOOOOOOOOOOOOOOOOOOOOOOOOOOOOOOOOOOOOOOOO",
"OOOO .XoooooooooooooooooooooooooooooooooooooooooooooooooooooooooooooooooX. OOOO",
"OOOo-dxbbbbbbbbbbbbbbbbcbbbbbbbbbbbbbbbbcbbbbbccbbbbbbbbbbbbbbbbbbbbbbbnxd-oOOO",
"OOO=C!_''''''''''''''''_''''''''''''''''''`'```_'''''''''''''''''''''''_)~C=OOO",
"OOOe!_____'__'__'_________________'__'__'__``___`''''''''_'''''''__'____''!eOOO",
"OOOf!))__))_))_))_)_))__)_)_)_)__))_))_)__(_(___(((_((_((('(('((_))_)))_))^fOOO",
"OOOf!)))))/_)/_)())))))/)))/))))))))/))))))))))))))/))))(_((_((_)))))))/(_/dOOO",
"OOOh/)/!/))//))/()((((//)/))(((())/))/)/)//)/)/)))/)/)!)((((((((/)/))//))//aOOO",
"OOOd!/!!/!!//)!////!()!!//)/!/!!//!!//!!/))!)/!~/))/!/!!(///((////!!/)!///!aOOO",
"OOOdRW!W!!W!WW/E!W!WR!!!!WW!E!R!W!W!!Q!!WW/EW!W~!RW!W!W!((E!EE/E!W!WW!E!//EiOOO",
"OOOaR!W!!RW!W/WW!WW!!RWWWWW!E!!!W!!WWW!RW!~WWWWWWWW!!RW!R^R!WW/W!RW!!RR!R!RiOOO",
"OOOuRWRQR!RRWWWWWWRQR!RRWWWRRRRRWr@$*zR!h&$@1cWWWWWRR!WRRRRRWWRW!RRQR!RRREYiOOO",
"OOOuIRRRRRRRRRRRRRRRRRRRRRRRRRRRz@U{c>Rm@c]^61)RRRRRRRRRRRRRRRRRRRRRRRRRRRYaOOO",
"OOOuIRIRIRIRYRRRURIRIRRRIRRRRRYRh%QWU^[WW{~Rs>'WIRRRRURURRRIRRRRIRURIRRURRIyOOO",
"OOOyKYYYIYYYYYYYYYTLTTTYIIYYYYYYS4>1rHIRK0r4&>'RIIIYYYYTTYTLTTTTYYYYYYYYYYLyOOO",
"OOOwKYIIUYLLLYYYILLULLILIIKYKYUTIEmz:*cV+5sxh1'KIIYGLUYLILILLLYLLUYYTGUYGTGyOOO",
"OOOyHHHITLLTLTLLLLTLLLLGIHKIKIGGIGIR!4kd>`^~0,'UGLIITGGTLLTLGLLGUGGYLUGLLTGyOOO",
"OOOqHHHHGLGGFGLFFGLFLGLLHHHKGILHy&mKn$Vz>IKr&,)GLLGGLGLGFGLFLHLLLGLGGLGLGGSyOOO",
"OOOqZHDDGGGGGGGGDDHDFHDDHDDDDHHDHw&%@s)I6>&4p,YHFGDGGGGGDDHDFHDDDHDDGGGGLFH9OOO",
"OOO0ZHDHDFGSGGDGHDDDSFDHDDHZDDDSDSR)~!RDD!~//E)GDFDDGGGSHDDDFFDHHSDHGDDDFSSqOOO",
"OOO8ZAZZSSSSSSSSZDDSSDZZSSSSSSSSSSZDSSSSDDDASSSSDHSSSGSSSSDSSDZZSSSSSSFSSSZ9OOO",
"OOO8ZAZANSZSSSVSSZZSZZSZSZSZSZSSZSZZSSSVDVDVBSSSSBBSSBZSSZZSZZSZZSSSBSZSZSNqOOO",
"OOO8NZZZZVZZVSVSZZZVVDVSVSZVSNSSZVVSZVSZSNSSZNSNNSSVSVDVZZZZVZZVSNSSBSSNZSm8OOO",
"OOO7VVNVVVVVVNVVnVVVVVVVNVVNNNNNVVVVNVNNVNNNVVVNVVNVNVVVVnVVVVVVNNNNNNNNNVN8OOO",
"OOO7mVmVVVVmNNNmVVVVVmVnNNNNNNNVVVNVVVVVNNNnNNNNNNVNNNVnVnVVVVVVNNNNNNNNmNm6OOO",
"OOO5mmVmnNNmNmNNnnVnVmnVNNnNNnNmmmNmmmmmnNNNNNmNNNnNNmnVmVVnnVmnMNNNNMMMmNm6OOO",
"OOO2cmnmnmmmmmNnmmmmmVnmnnmmmNnNnNNmmmmNnmnNNnNnnnmmmnVnnnnnnmmmNvNnmmmmNmv4OOO",
"OOO#zmnnmmnnnnnnmmnnnnnnnnnnnnnnvvvnmmnvnnnnnnnnnnnmnnvvnnmmnnmmnnvnnnnnmmz#OOO",
"OOOO<kmcnnnnnnnnnnnnnnnnnnnnnnnnnnnnnnnnnnnnnnnnnnnnnnnnmnnmmnmnnnnnnnvbvz<OOOO",
"OOOOOOOOOOOOOOOOOOOOOOOOOOOOOOOOOOOOOOOOOOOOOOOOOOOOOOOOOOOOOOOOOOOOOOOOOOOOOOO",
"OOOOOOOOOOOOOOOOOOOOOOOOOOOOOOOOOOOOOOOOOOOOOOOOOOOOOOOOOOOOOOOOOOOOOOOOOOOOOOO"
};
