/* XPM */
static char *sa_a_png[] = {
/* columns rows colors chars-per-pixel */
"79 33 135 2 ",
"   c #0F1012",
".  c #0F1013",
"X  c #111215",
"o  c #16181B",
"O  c #17191E",
"+  c #1C1E22",
"@  c #1C1E23",
"#  c #1C1F23",
"$  c #1D1F24",
"%  c #1D2024",
"&  c #1F2226",
"*  c #212429",
"=  c #22252A",
"-  c #2D3238",
";  c #2E3238",
":  c #30343B",
">  c #32373D",
",  c #32383E",
"<  c #353B42",
"1  c #373B42",
"2  c #363C43",
"3  c #373C43",
"4  c #373E45",
"5  c #3A3F46",
"6  c #3C4249",
"7  c #3C434A",
"8  c #3E454D",
"9  c #41474F",
"0  c #424850",
"q  c #484F58",
"w  c #49515B",
"e  c #4E5359",
"r  c #4B535D",
"t  c #4C535C",
"y  c #4E555F",
"u  c #4D5560",
"i  c #4F5762",
"p  c #4E5863",
"a  c #505761",
"s  c #555A61",
"d  c #505864",
"f  c #525A65",
"g  c #545B65",
"h  c #525C68",
"j  c #545E6A",
"k  c #555F6B",
"l  c #56606C",
"z  c #59616B",
"x  c #59626F",
"c  c #5B646F",
"v  c #5A6370",
"b  c #5B6571",
"n  c #5D6571",
"m  c #5C6672",
"M  c #5E6673",
"N  c #5F6875",
"B  c #616366",
"V  c #616467",
"C  c #61656B",
"Z  c #606872",
"A  c #616974",
"S  c #606975",
"D  c #616A77",
"F  c #636B76",
"G  c #626B77",
"H  c #646C77",
"J  c #6D6F73",
"K  c #626B78",
"L  c #646D79",
"P  c #666D78",
"I  c #656D7A",
"U  c #656E7B",
"Y  c #666E7B",
"T  c #676F7C",
"R  c #68707B",
"E  c #6D737B",
"W  c #68717D",
"Q  c #6A737D",
"!  c #75797E",
"~  c #6B7380",
"^  c #6C7481",
"/  c #6F7781",
"(  c #6D7582",
")  c #6F7784",
"_  c #707781",
"`  c #717983",
"'  c #757A82",
"]  c #707885",
"[  c #717986",
"{  c #777D86",
"}  c #767D89",
"|  c #767E89",
" . c #777F8A",
".. c #7C838E",
"X. c #80848B",
"o. c #87888B",
"O. c #818891",
"+. c #8F949B",
"@. c #949698",
"#. c #93979C",
"$. c #999B9E",
"%. c #A5A6A7",
"&. c #A7A9AB",
"*. c #A6A9AE",
"=. c #A8AAAD",
"-. c #ABADB0",
";. c #AAAFB5",
":. c #B1B2B4",
">. c #B0B3B7",
",. c #B3B5B7",
"<. c #B3B6BB",
"1. c #B6B9BE",
"2. c #B9BABB",
"3. c #BEBFC1",
"4. c #BFC0C2",
"5. c #C0C1C4",
"6. c #C1C2C4",
"7. c #C3C5C8",
"8. c #C4C6C8",
"9. c #C4C6C9",
"0. c #C9CBCF",
"q. c #D0D0D1",
"w. c #D3D3D4",
"e. c #D4D4D5",
"r. c gainsboro",
"t. c gray89",
"y. c #E3E4E5",
"u. c gray92",
"i. c #EBEBEC",
"p. c #EBECEC",
"a. c #ECECEC",
"s. c #ECEDEE",
"d. c #F6F6F6",
"f. c #F6F6F7",
"g. c white",
/* pixels */
"= = = = = = = = = = = = = = = = = = = = = = = = = = = = = = = = = = = = = = = = = = = = = = = = = = = = = = = = = = = = = = = = = = = = = = = = = = = = = = = ",
"= = = = = = = = = = = = = = = = = = = = = = = = = = = = = = = = = = = = = = = = = = = = = = = = = = = = = = = = = = = = = = = = = = = = = = = = = = = = = = = ",
"= = = = = = = = = = = = = = = = = = = = = = = = = = = = = = = = = = = = = = = = = = = = = = = = = = = = = = = = = = = = = = = = = = = = = = = = & & = = = = = ",
"= = = = s | O...O.O.O.O.O.O.O.O.O.O.O...O.O.O.O.O.O.O.O.O.O.O...O.O.O.O.O.O.O.O.O.O.O.O.O.O.O.O.O.O.O.O.O.O.O.O.O.O.O.O.O.O.O.O.O.O.....O.O.O.O.X...z = = = = ",
"= = = e ..| | | } } } | | | | | | | | | [ ..| | ..[ | | | | | } } } | | | | | | } } } } } | } } } } | } } } } } } } } } } } } } ..[ [ ..[ ..[ ........q & = = ",
"= = & _ | [ ) ) ] ] ] ] [ ] ] ] ) ) ] ] ] ] ( ] ] [ ) ) ) ] ) ) ] ] ) ) [ ] ] ] ) ) ) ] ] ) ) ) ] ] ) ) ] ] ) ) ] ] ) ) ] ] ] ] ) ) [ ) ) ] ) ( ) ( ..` & = = ",
"= = $ ` ) ) ) ) ) ) ) ) ) ) ] ) ] ) ) ) ) ) ] ] ) ) ) ] ) ) ) ) ) ) ] ) ) ) ) ) ) ) ) ) ) ) ) ) ) ) ) ) ) ) ) ) ) ) ) ) ) ) ) ) ) ) ) ) ) ) ] ] ( ) ) ` & = = ",
"= = # / / ) ) / ( ) ^ ) ^ ) / ) ^ ] ^ ) ) ) ^ ] ) ) ) ^ ) ) ) / ) ) ^ ] ^ ) ) ) ) ) ) ^ ) ) ) / ) ) ^ ) ) ) ( ) ) ) ) ( ) ( ) ) ( ) ( ) ) ) ^ ] ) ) ) Q % & = ",
"= = + / ( / ^ ^ ( ( ( ( ( ( ( ( ^ ^ ( ( ( ( ^ ( ^ ] ^ ^ ] ^ ] ^ ^ ) ^ ^ ^ ) ~ ) ^ ) ^ ) ) ^ ^ ^ ( ( ^ ^ ^ ] ^ ^ ( ( ) ( ( ) ( ( ^ ^ ) ^ ( ( ^ ^ ( ( / / # = = ",
"= & + / ^ ^ ^ ^ ~ ( ~ ( ( ~ ~ ( ^ ^ ^ ^ ^ ^ ^ ^ ^ ^ ^ ^ W ^ ^ W ~ ^ ^ ^ / ~ ~ ^ ~ ^ ~ ~ ^ ^ ~ ) ^ ^ ^ ^ ^ ^ ^ ^ ~ ~ ~ ~ ~ ~ ~ ~ ^ ^ Q ^ ^ ^ ^ ^ ( ~ ( E # = = ",
"= = % ~ ^ ~ ^ ^ ~ ( ~ ( ~ ~ ~ ~ ^ ^ W ^ ^ ^ W ^ ^ ^ ^ ^ ^ ^ ^ ^ ~ ~ ~ ~ / ~ ~ ^ ~ ~ ~ ~ / ~ _ W ^ ^ ^ ^ ^ ^ ^ ^ ~ ~ ~ ~ ~ ~ ~ ~ ^ ^ ^ ^ ^ ^ Q ^ ~ ~ / ^ # = = ",
"= = % Q T ~ T ^ W W W W W ~ W W W W ^ T W ^ W W W T W T ^ T ^ W W W ~ ~ W W W W W ~ W ~ W W W W W W W T ^ T W ^ ~ W W ~ ~ W W ~ ^ W T ^ ^ T T ^ ~ T W W # = = ",
"= = % T T T W W W ~ W W W W W W T W W ^ W T W T W W W W T W W W W W T W W W W W W W W W W W W W W T W W ^ T T T W W T T W T W W T T W T W W W T T T W W # = = ",
"= = % T T T T T L T T L T T T T R R U R U R W R W U U W R W T T T 0.g.g.f.>.M L 1.f.g.g.s.*.M L W R U W K T T T T T T T T T T T T T T T T T T T I T T E % = = ",
"= = % T T T L T T T L T T T T T U U U U R U U U U U R U T U K R ;.g.! 6 ,.g.J +.g.-.6 C u.f.q M U U U U T T T T T T T L T T T L T T T T T L T T T T T T % & = ",
"= & % T L L L L L K L K I K I K U G U U K U G U U K U K K K R K <.g.J 8 q 9 9 f f 8 9 t 5.g.1 g U U K U L K K L L K L L K L L L L K K L L K L K K L T T % = = ",
"= = % R F K K K K L N L L N L K K K G L F K L N F K K L K K K K { u.g.i.8.E a x R 8.8.y.g.g.: p N N U G K K K K K K L K K N L K K G G K K K K N L N L R % & = ",
"= = % L F N F K N F K N N K N L K N K N K N N K K N N K K N K F M i $.3.g.g.#...g.t.5.=.2.g.- a N U U M K F N K L N K N N L L N N F N G L N G N N L K L % = = ",
"= = & L N K N K N N N N N N N N N N N N N N N K N N N N N N N N F l a 9 5 w.%.%.e.1 3 9 2.r.- y N N M N N N N M N N N N N N N N N N N N N N N N N F K G % & = ",
"= = % G M M M m M N N M N N N N N N N N N M N N N M N N N M N N -.r.' f X.t.o.@.t.B 0 =.y.y.- y N N M N M N N m M N N N N N M N M N N N N N N N N N N H % = = ",
"= = + F M M M m m m m M M M m M v m M m m N m m c M M x M M c M v 3.p.a.i.&.> q q.p.u.q.:.u.B w m m m m m m m m M M m M m N m M M M m M m M M M M M N N & = = ",
"= & % N M m v m m m x m c m c M m m m m m m c m m m m m c c c M v y 6 2 < 1 8 u w 6 1 5 4 , 4 w b m m m c m m m m c m m m m m c c m m x m x m m m c M F % = = ",
"= = + F m v m l c v x m c c c x m l v v v v c c m x m m c M x x v h f r q i f j j i r w y y y j x x c x m m x v x x x v x m x l x m x c x x v m c c m M + = = ",
"= = + N v x x x x x x x x l x x x x v v l v x l x x l l c l x x v x x x x x m x v v x l x x x x x x x x l x l m m l x x x x m l x x x x x x l m l m l N % & = ",
"= = % N v l l v x l v x l x z l l x x l x z l x z x x l x z l x v x v x x x z x x l z x l x c z x l z x x z l c l l x l x x l x l l c l l c l l l c z N + = = ",
"= = % M l l l l k l l h l l l l l l l l l l l l j l l l l l l l l h l l h l l j l l l l l l l l l l l l l l l l l l l l l l l h l l l l l l l l l l l M + = = ",
"= = % c l l j j j l l j l j j l l j j l j l l j l j j l l l l l k l k l l j j l l l l l h l l h j l l j j j h l l l l l l j j l h l h l h l l l l l z c + * = ",
"= = % c j j j j j j j j j j j j j j j j j j j j j j j j h l h h h k h k j j j j h l h h l h h l j j j j j j l h h h h l j j j j l h l h l h h l l h z Z + * = ",
"= = # z j j j h j h j h j h j h j h j h j h h h j h h h j h h h h j h j j j h j h h l h h l h h j h j h h h l h h j h j j h j h h h h l h l h z h h l l + * = ",
"= = # 5 j g j j h h h h h h h h h h h h h h h h h h h h h h h h h h h h h h j f h h h h h h h h h h h h h h h h h h h h h h h h h l h h a l a h h h h 6 * = = ",
"= = * o 5 a j i h f h h h h h h h h h h h h h h h h h h h h h h h h h h j p f j h h h h h h h h h h h h h h h h h h h h h f h h p h l h l p h h h p 4 o + = = ",
"= = * # o X     X . . . . . . . . . . . . .     X       X         X   . . . . .                     . .           . . . . . . X     . . . .     . X o % * = = ",
"= = = * * + + + + + + + + + + + + + + + + + + + + + + + + + + + O % % O * O + + + + + + + + + + + + + + + + + + + + + + + + + + + O + + + + + + + * * * * = = "
};
