/* XPM */
static char *sb_d_png[] = {
/* columns rows colors chars-per-pixel */
"79 33 87 1 ",
"  c #17191C",
". c #181A1E",
"X c #1B1D21",
"o c #1C1E22",
"O c #22252A",
"+ c #262E36",
"@ c #272F38",
"# c #2B3037",
"$ c #283039",
"% c #2B333C",
"& c #2B343E",
"* c #2D363F",
"= c #31353B",
"- c #34383E",
"; c #2C3640",
": c #2D3641",
"> c #2E3842",
", c #2F3944",
"< c #333941",
"1 c #383F47",
"2 c #343D48",
"3 c #38424B",
"4 c #3B424A",
"5 c #3C434C",
"6 c #3B444E",
"7 c #3D444D",
"8 c #3E4752",
"9 c #3F4852",
"0 c #404750",
"q c #424852",
"w c #464B53",
"e c #424B55",
"r c #434C57",
"t c #474D56",
"y c #484D56",
"u c #494F57",
"i c #4A4F58",
"p c #4A5058",
"a c #4C515A",
"s c #4C515B",
"d c #4C555F",
"f c #4C5460",
"g c #4F5762",
"h c #4E5763",
"j c #535862",
"k c #535B65",
"l c #515A66",
"z c #545A64",
"x c #525C68",
"c c #535D69",
"v c #545C68",
"b c #545E6A",
"n c #555F6B",
"m c #575F6B",
"M c #56606C",
"N c #5A606A",
"B c #5A636F",
"V c #5C646F",
"C c #5A6370",
"Z c #5B6571",
"A c #5C6470",
"S c #5D6572",
"D c #5C6672",
"F c #5E6773",
"G c #5F6875",
"H c #606874",
"J c #616A77",
"K c #626B77",
"L c #626B78",
"P c #636C79",
"I c #646D79",
"U c #656E79",
"Y c #656E7B",
"T c #676F7C",
"R c #67707C",
"E c #67707D",
"W c #68707B",
"Q c #6A727F",
"! c #6B737F",
"~ c #6C757F",
"^ c #6B7380",
"/ c #6C7481",
"( c #6C7581",
") c #6D7582",
"_ c #6F7784",
"` c #707885",
"' c #747C87",
/* pixels */
"OOOOOOOOOOOOOOOOOOOOOOOOOOOOOOOOOOOOOOOOOOOOOOOOOOOOOOOOOOOOOOOOOOOOOOOOOOOOOOO",
"OOOOOOOOOOOOOOOOOOOOOOOOOOOOOOOOOOOOOOOOOOOOOOOOOOOOOOOOOOOOOOOOOOOOOOOOOOOOOOO",
"OOOOOOOOOOOOOOOOOOOOOOOOOOOOOOOOOOOOOOOOOOOOOOOOOOOOOOOOOOOOOOOOOOOOOOOOOOOOOOO",
"OOOO .Xoooooooooooooooooooooooooooooooooooooooooooooooooooooooooooooooooo. OOOO",
"OOOo-pjzzzzzzzzzzzzzzzkkzzzzzzzzzzzzzzzzzzzzzzzkzzzzzzzzzzzzzzzzkzzzzkjmju-oOOO",
"OOO=N!_`````````````````````````````````````````````````````````````````)~N=OOO",
"OOOw!_____`__`__``)`)``))`)`)`)`)```)`)`)``)`)`)`````````))``)`)````~`)```QwOOO",
"OOOa!))__))_))_)))`)`)`)`)`)`)`)`)))`)`))`)`)`)))))))))))`)`)`)`))))`)))))QaOOO",
"OOOa))))))^)))))/))))))))))/_///))))))))))))//))))//)/)/))/)))))))))))))))^aOOO",
"OOOaQ)QQ^))^)^^))/////Q)///^///^))///////////)/////////^))////////////Q))^^iOOO",
"OOOuQ~Q)^!!^//)!Q~/QQ~/Q^^^^/^E^!!!!^^!!!!^^~)QQ/////^^^)!/!!///Q///Q)Q)^^!iOOO",
"OOOuREEQ!!E!EE^TQEQQQQEQ!!/P!^^^!E!!U!!B+B!!QE~E!EE!E!!/!EE!EE!EEQEQQEQE!!TuOOO",
"OOOpEQQQ/UE^E!EEEE!ERQP!E!EET^T^U^!U!E!m@U)E!EEQEEE!/QRUE!^EE!RE^P/Q^PE^UUTiOOO",
"OOOtPERPP/PYEERREEPEEEERPEPETTTTUe$$*dUB&K9+4DEEEEEPPEP/PTUEEERRETPET!TPT^PtOOO",
"OOOtPPPTUTUTTUUUPEPTUURPRPRPTUUUf$L'l>Um&8L!3eEUURUUEPUUTYTPUUUUEUPEPUTTUULtOOO",
"OOOtPUPUPPPPPUUPPRPUPUUPKRPRLUUPs*EEUQ'B@C`Rj>PPPPUPUPPPRPUPUPUPPUPUPPPUPULtOOO",
"OOOtGKPKKLKLKLKLKPKPKLLLKGLLLLJJC222eCKm$Q!KM*DRPPPLLKLLLLKLKLLLLKLULLLKLUGtOOO",
"OOOqGPKKKKKJLGJJKJJKJJJJKGLKLGJJKKBf>;kk*/GKM%DQPGLGKKKJJJJKKJJJKKGLLGKKGGJ0OOO",
"OOOqDGGGGGKGGGGGGJKGGGGGKKKKLLLKGGKUQ2dM&BKKd*RKGPGGKGKUGLGGLLGJGGKGGGGGGGG0OOO",
"OOOqDGDGGDGKGGDJGCDGDJDGKDDDCDCJt$xDk*MB>9CB*q)PCGCGSGDDGCGGCDGCGDGKGSGGDGGqOOO",
"OOO0DDDDDDDDDGDDDDSDSDDDDDDDKDDDDq>&$s)M&e>*6EWDDDDDDDDDSSDDDDDDDDDDDDDCGDD0OOO",
"OOO0BDDDCCDCDCDCSCDCDCDDDCDDCDCCCCEQQ)RBK!EQ)PDCDDCCDDDCCDDCDDCSDCCDDCDCCCB0OOO",
"OOO0mBBBCCCCBBCCSCCCCBCBCCCCCCCCCCBBCCCCCBBBCCCCCBCCCCCCDBCCCCCBCCCCCCCCCCB0OOO",
"OOO8mBBBCCCMBBCCCCCmBBBBCMCCCMMCCCMBCMCCMBBBCMBCCBBBBBMCCCCCmBBBCMBBBCCBBBm7OOO",
"OOO5MCMCMBBxMMCMnCnCMBMBMCCMMBMBMBMBMBMBMBMBMBMCBMCMBMCMnnMCMCMBMMBMBMMBMBN7OOO",
"OOO5xMMMmMMMMMMMmnmmMMMMxMMMMMMMMMMMMMMMMMMMMMMMMMMMMMMMMMMMMMmmMMMMMMMMMMk6OOO",
"OOO5xMnnMMMmMMMMMMmxMMMMxmxMMMMMMMmMMMxMMMMMmxMMxMMMmxMMnmxnMMmxMMMMxMMMMmx6OOO",
"OOO4mxnxxxmxMxxxxxMxxMxnxMMxxMxxkMxxxxMxxMxxkMxMMxxmMxxxmmxMxxMxMxxxmxxmxMx3OOO",
"OOO1lzxmmxmxxxnxxnnxxnxxmxxxxMxxxMxxmxxMxMxxxxMxxMxxxxxMMxxxxxxMxxxMMxxxxml3OOO",
"OOO#hxxxxxxxxxxxxxxxxxxxxxxxxxxxxxxxxxxxxxxxxxxxxxxxxxxxxxxxMxxxxxxxxxxxxxg#OOO",
"OOOO<fxxxxxxxxxxxxxxxxxxmxxxxxxxxxxxxxxxxxxxxxxxxxxxxxxxxxxxxxxxxxxxxxxxxf-OOOO",
"OOOOOOOOOOOOOOOOOOOOOOOOOOOOOOOOOOOOOOOOOOOOOOOOOOOOOOOOOOOOOOOOOOOOOOOOOOOOOOO",
"OOOOOOOOOOOOOOOOOOOOOOOOOOOOOOOOOOOOOOOOOOOOOOOOOOOOOOOOOOOOOOOOOOOOOOOOOOOOOOO"
};
