/* XPM */
static char *sb_u_png[] = {
/* columns rows colors chars-per-pixel */
"79 33 143 2 ",
"   c #0F1012",
".  c #0F1013",
"X  c #111215",
"o  c #16181B",
"O  c #17191D",
"+  c #17191E",
"@  c #1C1E22",
"#  c #1C1F23",
"$  c #1D1F23",
"%  c #1D1F24",
"&  c #1D2024",
"*  c #1F2226",
"=  c #212429",
"-  c #22252A",
";  c #33373E",
":  c #363B41",
">  c #363C43",
",  c #373E45",
"<  c #3A3F46",
"1  c #3B4048",
"2  c #3B4149",
"3  c #3C434A",
"4  c #3E454D",
"5  c #41474F",
"6  c #434951",
"7  c #434A52",
"8  c #474B51",
"9  c #444A54",
"0  c #484E57",
"q  c #484E58",
"w  c #4A5059",
"e  c #4E5359",
"r  c #4A525C",
"t  c #4D555F",
"y  c #53575C",
"u  c #4D5560",
"i  c #4F5763",
"p  c #4E5863",
"a  c #505761",
"s  c #525962",
"d  c #555A61",
"f  c #505864",
"g  c #525A65",
"h  c #525C68",
"j  c #565E68",
"k  c #555E6A",
"l  c #565F6C",
"z  c #5D6067",
"x  c #56606C",
"c  c #57616D",
"v  c #59616B",
"b  c #5F6368",
"n  c #59626E",
"m  c #59626F",
"M  c #5B636F",
"N  c #5B646F",
"B  c #5A6370",
"V  c #5B6370",
"C  c #5B6571",
"Z  c #5C6672",
"A  c #5F6774",
"S  c #5E6871",
"D  c #5F6875",
"F  c #616468",
"G  c #606872",
"H  c #666A70",
"J  c #626976",
"K  c #616A77",
"L  c #636B76",
"P  c #6D6F73",
"I  c #626B78",
"U  c #646D79",
"Y  c #666D78",
"T  c #656E7B",
"R  c #666E7B",
"E  c #676F7C",
"W  c #68707B",
"Q  c #6D737B",
"!  c #68717D",
"~  c #6A737D",
"^  c #6E747D",
"/  c #717479",
"(  c #74777A",
")  c #75797E",
"_  c #797B7E",
"`  c #6B7380",
"'  c #6C7481",
"]  c #6F7781",
"[  c #6D7582",
"{  c #6F7784",
"}  c #707781",
"|  c #717983",
" . c #767B83",
".. c #707885",
"X. c #717986",
"o. c #767C84",
"O. c #797C81",
"+. c #7C7E81",
"@. c #747C88",
"#. c #767D89",
"$. c #767E89",
"%. c #777F8A",
"&. c #7B8189",
"*. c #7F838A",
"=. c #7C838E",
"-. c #81868C",
";. c #84878C",
":. c #898A8D",
">. c #818891",
",. c #8A8E94",
"<. c #8D9198",
"1. c #8E9299",
"2. c #959799",
"3. c #93979E",
"4. c #959BA2",
"5. c #989CA1",
"6. c #989DA5",
"7. c #9EA1A4",
"8. c #A4A5A6",
"9. c #A8AAAC",
"0. c #AAAFB5",
"q. c #ADB0B5",
"w. c #B0B3B7",
"e. c #B3B5B7",
"r. c #B3B6BB",
"t. c #B8BABB",
"y. c #C0C1C3",
"u. c #C5C6C6",
"i. c #C3C5C8",
"p. c #C8C9CB",
"a. c #CACBCB",
"s. c #C9CBCF",
"d. c #D7D7D7",
"f. c #D7D7D9",
"g. c gray86",
"h. c gray88",
"j. c #E3E4E5",
"k. c #E7E7E7",
"l. c #EAEAEB",
"z. c #EBEBEC",
"x. c #EEEEEE",
"c. c #F6F6F6",
"v. c white",
/* pixels */
"- - - - - - - - - - - - - - - - - - - - - - - - - - - - - - - - - - - - - - - - - - - - - - - - - - - - - - - - - - - - - - - - - - - - - - - - - - - - - - - ",
"- - - - - - - - - - - - - - - - - - - - - - - - - - - - - - - - - - - - - - - - - - - - - - - - - - - - - - - - - - - - - - - - - - - - - - - - - - - - - - - ",
"- - - - - - - - - - - - - - - - - - - - - - - - - - - - - - - - - - - - - - - - - - - = - - - - - - - - - - = = - - - - - - - - - - - - - - - - - - - - - - - ",
"- - - - d $.>.=.>.>.>.>.>.>.>.>.>.>.>.>.>.>.>.>.>.>.>.>.>.>.>.>.>.>.>.>.>.>.>.>.>.>.>.>.>.>.>.>.>.>.>.>.>.>.>.>.>.>.>.>.>.>.>.>.>.>.>.>.>.>.>.>.>. .g - - - - ",
"- - - e =.$.$.$.#.#.#.$.$.$.$.$.@.$.$.$.$.$.$.$.#.#.#.#.#.#.#.#.#.$.$.$.#.#.#.#.#.#.#.#.$.$.$.$.$.#.#.#.#.#.#.#.#.#.#.#.$.#.#.#.$.#.#.#.$.$.$.$.$.=.=.e * - - ",
"- - * } $.X.{ { ........X.......{ { X.{ { ..{ { { X.{ { { X.{ { { { { { X.{ { X.{ { ....{ { { { ....{ { ....{ { ....{ { ........{ { X.{ { ..{ { { { #.] * - - ",
"- - % | { { { { { { { { { { ..{ { { { { { { { { { { { { { { { { { { { { { { { { ..{ { { { { { { ..{ { ..{ { { ..{ { { { { { ....{ { { { { { { { { { { X.% - - ",
"- - # ] ] { { ] [ { ' { ' { ] { [ { ] { { { [ { { { { [ { { { [ { { [ { [ { { { ' { ' { { { { { { { { ' { { { ' { { ..' ' { { { ` { { { { { { { { { { ] % - - ",
"- - @ ] [ [ ` { [ [ [ [ [ [ [ [ [ [ [ [ [ [ ` [ ` { [ ` { ` { [ [ { [ ` ] [ [ ] ` { ` [ ] ' ' ] [ [ ` [ [ [ [ ` ' ' ' ' [ [ [ [ ' { ' { ' { ' ' ' ..' } % - - ",
"- * @ ] ` ` ] ` ` [ ` [ [ ` ` [ ` [ ` [ [ ` [ ` [ [ ` [ ` [ ` ` ` ` ` [ ` ] ` [ ` [ [ ` ' ' ' ' [ ` [ ` ` [ ` [ ' ' ' ` ' ' ' ' ' ' ` ' ` ` ' ` ' ' ' ~ % - - ",
"- - # ` ` ` ` ` ` [ ` [ ` ` ` ` [ ` ` ` ` ` ` [ ` ` [ ` ` ` ` ` ` ` ` ` ` ` [ ! ` ` ` ` ' ' ~ } ` [ ` [ [ ` ` ` ` ` ` ` ` ` ' ` ` ` ` ` ` ` ` ` ! ' ~ ] # = - ",
"- - # ! ` ` ! ` ! ! ! ! ! ` ! ! ! ! ` ! ! ` ! ! ! ! ! ! ` ! ` ! E ` ` ` ` ! ! 6.v.3.A ` ' ! ! ! ! ! ! ! ` ! ` ! ` ` E ` ` ! ! ` ! ` ! ` ` ! ! ` ! ' ' Q % = - ",
"- - % ! ! ! ! ! ! ` ! E ! ! ! ! ! ! ! ` ! ! ! ! ! ! ! ! ! ! ! ! ! ! ! ! ! ! W 4.v.*.s U ! ! W ! ! ! ! ! ! ! ! ` ! E ! ! ! ! ! ! E ! ! ! ! ! ! ! U ! ! ! % = = ",
"- - % ! E E U ! E U E E E E E E ! E U E E U ! E ! E E ! E ! I ! E s.v.v.c.q.A 3.v.:.f.v.j.o.K L ! U E ! ! E U E E E ! U E R R ! E E E E R R ! R R ! ! ! % = - ",
"- - # ! E E E E E U E U E E E E ! T E E E U ! T E E U E E E E U 0.v.) < r.v.P 1.v.l.b H z.f.i K T E T T ! T E E E U E E E E R R R R R R R R R R R Y R ! % = - ",
"- - @ ! U U I U U I U U I U U I U I I I I E U I I U I I U U I U r.v.P 4 w 5 4 ,.v.2.: q 7.v./ k I U U I U I I I I E U I I U U I U U U U U U U U U Y Y ! % - - ",
"- - % Y U I I I I J I U D U I I I I U I I U I I U A U U A U I I  .z.v.z.i.~ a ,.v.y 5 k -.v.,.w D I I I U I I R A I I E A I E D U I I I I I U A U U U U # = = ",
"- - # U L I U K I I D I I D U D I D D I D I I D I I A I I D U D C a :.8.g.g.;.-.g.y 0 C &.g._ 9 C D D I J J A I I D I D I A D I I K A I I A I I A I I U # = - ",
"- - # U J A G A A A A J D D D D D D D D D D D D A A A J D D D D I l a 6 < d.9. .h.+.0 A 5.h.b 7 C D D K J A J J D D D D D D D K A A J J A D D D A A K U # = - ",
"- - @ K A A A A A A A J D D D D D D S D D A D D A A A A D D D D 0.h. .g ;.k.:.( k.a.z ^ f.t.; q C A D D A A Z Z D D D D D D D A A A C J D D D S D A J U # - - ",
"- = @ J A C A C C Z Z V C A C C Z Z A C C A C C C Z Z C C A C C V y.z.x.x.9.;  .x.u.x.x.p.8 2 s C A C C C Z Z Z Z C A C C S C C Z Z Z V C A C A A C N K # - - ",
"- = @ J Z C C C C C Z C C C C C C Z C C C C C A A C Z C C C C C C t 3 > > : 4 r 0 : ; : , 2 r c C n C C Z Z Z Z Z C C C C C C C Z C Z C C C C C C C A K # - - ",
"- - # J l C C C C C n C n n C C l V C C C C c C C m n C C c C C C l d r q i i l h u r r q i c n C n C C m m C m C m C m C C C C C C C n c A C l C c C A # - - ",
"- - @ J C C l C l C n C c C n n m C l C l n c C l C n C c C n n m m m C l C C l C n C C C c C c c C l C m m m m m m l C l m m C l C c c C c c C c C C J # - - ",
"- - % A n c c c n n c n h C c x m C l l c c c c n c c n x c c x m l c c c c n l C c c x c n c c c c c c c c c c m m c c c c m c c c c n c c c c n v n G @ - - ",
"- - # A c c c x k c c l c c l c k l l k c c c c k c c l x x c l l l l c l c l c h c c l c c l c c c c c c l c c k k l l c l c l x x x x c c l c k k v G $ - - ",
"- - @ C c h h c k c h c c k k c l n k n k h h c l c h c x x c l k k l c c c k k l h h k k c c c l h k h h l c c k l l l c c h k c x x c h c c c c k v A $ - - ",
"- - @ A c h c k h k k h h c h h h h k h c h l l h k k h h c g h k k h k g h k k c h c c h k g h h k c h c h g c k k h l h h k k h x h h k h g k x h M F + - - ",
"- - & x k k h h h h h h k h h c h h h h k h h k h h h h k h h c h h c h h h h h h h c h h c h h h k h h h c h h h h c h h h h h h h h x x h h h h h x v + - - ",
"- - @ < k g h h h h h h h h h h h h h h h h h h h h h h h h h h h h h h h h h h h h h h h h h h h h h h h h h h h h h h h h h h h h h h h h h h h h k 1 = = - ",
"- - * o , p h h h h h h h h h h h h h h h h h h h h h h h h h h h h h h h h h h h h h h h h h h h h h h h h h h h h h h h h h h h h h h h h h h g i > + = = - ",
"- - - & O X     X               X               X                           . .                       X                                             o = - - - ",
"= = = = = $ $ $ + $ $ $ $ $ + $ $ $ $ $ + $ $ $ # # + # # # # % * @ @ & @ & @ O & @ & @ + & @ & @ O * @ # # # # # O # # % % # O $ $ $ # # # + $ $ $ $ - - - - "
};
