/* XPM */
static char *ss_d_png[] = {
/* columns rows colors chars-per-pixel */
"79 33 85 1 ",
"  c #17191C",
". c #181A1E",
"X c #1B1D21",
"o c #1C1E22",
"O c #22252A",
"+ c #252D36",
"@ c #272F38",
"# c #2B3037",
"$ c #28303A",
"% c #29323B",
"& c #2C353F",
"* c #31353B",
"= c #34383E",
"- c #2D3641",
"; c #2E3842",
": c #2F3944",
"> c #333941",
", c #333C47",
"< c #363D47",
"1 c #363F48",
"2 c #37404B",
"3 c #3B434B",
"4 c #3A424D",
"5 c #3C434C",
"6 c #3E454E",
"7 c #3F4853",
"8 c #404750",
"9 c #414850",
"0 c #424852",
"q c #464B53",
"w c #424A55",
"e c #454B54",
"r c #474D56",
"t c #494F57",
"y c #4A4F58",
"u c #4A5058",
"i c #48505B",
"p c #4C515A",
"a c #4C515B",
"s c #4A535E",
"d c #4B545E",
"f c #4C5460",
"g c #4E5763",
"h c #535862",
"j c #515B67",
"k c #525B66",
"l c #545A64",
"z c #525C68",
"x c #535D68",
"c c #545E6A",
"v c #555F6B",
"b c #575F6B",
"n c #56606C",
"m c #5A606A",
"M c #59626F",
"N c #5A636F",
"B c #5A6370",
"V c #5B6571",
"C c #5D6572",
"Z c #5D6672",
"A c #5E6774",
"S c #5E6874",
"D c #5F6875",
"F c #606874",
"G c #616A77",
"H c #626B77",
"J c #626B78",
"K c #646D79",
"L c #656E79",
"P c #666E79",
"I c #656D7A",
"U c #656E7B",
"Y c #67707C",
"T c #67707D",
"R c #69727D",
"E c #6A737E",
"W c #6B737F",
"Q c #6C757F",
"! c #6B7380",
"~ c #6C7481",
"^ c #6D7582",
"/ c #6E7782",
"( c #6F7784",
") c #707885",
"_ c #737B86",
/* pixels */
"OOOOOOOOOOOOOOOOOOOOOOOOOOOOOOOOOOOOOOOOOOOOOOOOOOOOOOOOOOOOOOOOOOOOOOOOOOOOOOO",
"OOOOOOOOOOOOOOOOOOOOOOOOOOOOOOOOOOOOOOOOOOOOOOOOOOOOOOOOOOOOOOOOOOOOOOOOOOOOOOO",
"OOOOOOOOOOOOOOOOOOOOOOOOOOOOOOOOOOOOOOOOOOOOOOOOOOOOOOOOOOOOOOOOOOOOOOOOOOOOOOO",
"OOOO .XoooooooooooooooooooooooooooooooooooooooooooooooooooooooooooooooooXX OOOO",
"OOOo=uhlllllllllllllllkxllllllllllllllllllllllhxllllllllllllllllllllllllhy>oOOO",
"OOO*mW())))))))))))))))())))))))))))))))))))))(())))))))))))))))(()))))((!x*OOO",
"OOOqW((((()(()(()))))^(()))))))))^)))))^)(()((((()))))))(()(())(((((((((((WrOOO",
"OOOpW^^((^^(^^(^^^^^)^(^^^^^^^^^)^^^^^)^(^^(^^(/^^^^^^^^^^(^^(^^(^(^((^(^^!uOOO",
"OOOa!^^^^^!^^^^^^^^(^^^^^^^^(!!!^^^^^^^^^^^^^^^^^^^^^^^^^^^^^^^^^^^^^^^^^^!uOOO",
"OOOa!^!!!^^!^!!^!!!!!!!^!^!!!(!!^^^W!!!^!^^!!!!^!^!^^!^!^^^!!^^!^!!^^!!!!!!tOOO",
"OOOuWW!!!WW!^^^W!!!!!^!!^!!^!!!!WWWWW!WW!^!!WWWW!!!!!!!!^!^W^!!Q!!!!!!!!!!WtOOO",
"OOOyLTT!WWTWUU^UTWTW!T!T!TT!T!TWTWYWTWTWTT!TWTWTTWTWTWTWQUWTTTWTLW!!!!U!W!WuOOO",
"OOOyU!!!!UT!W!TT!K!QWTT!TTTQ!T!WTW!TTTQTTQTTWTTQTTWT!L!!!LT!TWTT!!U!U!U!T!LtOOO",
"OOOrUULLL!LUUTYYTUYKK!KUTTTKUUKYLn1%$6DTn<$%6SYYTTTLTUUUL!UUTTYYUUUUTTTULTLrOOO",
"OOOrJUUULUUUULLLUUUKKTKUYKYKUUUKL>w(!,aT>w_!,dTYULLLUUUUUUUULLLLUUULLUUULLJtOOO",
"OOOrJKKKKKKKKKKLKKKKKKKKKKKKKKKUL@a!LT_^$i/KY)/HKKLLKKKKKKKKKKKKLLJLLLLJLLGeOOO",
"OOOrDJKGKDKKDKDUDUKKDDUDKDKDUDDULu;;7uGKd:;7pLGGJJJJGHKGKJKGKGKDGHHKGKHKGKArOOO",
"OOO0DJGGDKDKDDKDKDKDDKDKDKDKDKUDDJLd7-4GDKa7-3GGJJDJJDGGJDDJGGJJGGGGJDJDGGD0OOO",
"OOO0SDDDDDDDDDDDDDDDDDDDDDDDDDKDDJDG!x;KDKD!k:LGAJDDGDDADJDJJDDDDJDDDDJDDDD0OOO",
"OOO0VSDDDDDDDDDDDVDDADDDZDDDDVDZV+7AA41W$7DD41^GCAAADDDACDCCVDDCVDDDDVADDDV0OOO",
"OOO8NCCDCCCCSCCVACCVVDAVCCCCCCAVCk1-%1DQj2-$2A!CCDCCCDACCAAVDDVCCCCDCCCACCN8OOO",
"OOO7NCVNVVVVVVVVVVVVVVVBVVVVVVVVVVA!W!WAVDQ!^UDVVVVBVVVVVVVVNVVNVVVVVVVVVVN7OOO",
"OOO6BVNNBBBBVBBBBBBBVNBVBBBBVVBBVBBBVBVBNVVNVBBVBVBBNBVnBVVMVNNVBBBBVBBBNNn6OOO",
"OOO6bnNNBnNBBnMBVnBBbBBBBBnBBnBMnnNNBBnnNnNNnBBBNnBBnBBNBbMMbNNNBnBBBnBBNNB6OOO",
"OOO6bbMnMnMMMnMnnNbMMnMMnnBnBNbnBbnBnBnnnBnnBnnnBnnMbNBBnMnBnNNbnBnnBnnnmBc6OOO",
"OOO5cbnnnnnvcBbnnnnncMcnnnnncnnnnnnnnnnncnnnnnnnnnnnnncxnnnnnnnvcNnnnnnnbnx3OOO",
"OOO5xNbbvvvvccxcncvvvbxxcvnbccccncvxvcnbccccnbcnbcncbcccvccxvcvvccxcnbcnbvx4OOO",
"OOO3xxxxcvcvcbxccccvbxncccccccccbcvcvcvvccccccccccccccccvcncvcvvccccccccxcc2OOO",
"OOO<kxxxckxcxcjcxxcxcxcjccxcxccccccxccxxccjcjcjccxcxjccccccccxxxccccccxxccj<OOO",
"OOO#gxzzjcjccjcjjxjjxjjcjcjcjjjcjjjckzkjjcjcjcjccxjjjcjjjkjzjxckjjjjjjjcckg#OOO",
"OOOO>dzzjcjjjjcjcjjcjcjjjcjjjcjjcjjjcjcjjjcjcjjjcjcjjjcjcjzzzzjzjcjcxjjjcf>OOOO",
"OOOOOOOOOOOOOOOOOOOOOOOOOOOOOOOOOOOOOOOOOOOOOOOOOOOOOOOOOOOOOOOOOOOOOOOOOOOOOOO",
"OOOOOOOOOOOOOOOOOOOOOOOOOOOOOOOOOOOOOOOOOOOOOOOOOOOOOOOOOOOOOOOOOOOOOOOOOOOOOOO"
};
