/* XPM */
static char *ss_u_png[] = {
/* columns rows colors chars-per-pixel */
"79 33 109 2 ",
"   c #0F1012",
".  c #0F1013",
"X  c #111215",
"o  c #16181B",
"O  c #17191D",
"+  c #17191E",
"@  c #1C1E22",
"#  c #1C1E23",
"$  c #1C1F23",
"%  c #1D1F23",
"&  c #1D1F24",
"*  c #1F2226",
"=  c #212429",
"-  c #22252A",
";  c #31353C",
":  c #363C43",
">  c #373D45",
",  c #383E46",
"<  c #3A3F46",
"1  c #394047",
"2  c #3D434A",
"3  c #40454E",
"4  c #444B54",
"5  c #474E56",
"6  c #464E57",
"7  c #4B525B",
"8  c #4E5359",
"9  c #4A515C",
"0  c #4C535D",
"q  c #4E5661",
"w  c #4E5863",
"e  c #525963",
"r  c #555A62",
"t  c #525A65",
"y  c #535B65",
"u  c #585C62",
"i  c #525C68",
"p  c #545D68",
"a  c #565E69",
"s  c #545E6A",
"d  c #555F6B",
"f  c #56606C",
"g  c #59616B",
"h  c #58616E",
"j  c #59626E",
"k  c #59626F",
"l  c #5A6370",
"z  c #5B6471",
"x  c #5C6672",
"c  c #5D6672",
"v  c #5D6673",
"b  c #5E6774",
"n  c #5E6871",
"m  c #5F6875",
"M  c #61666B",
"N  c #66696D",
"B  c #606872",
"V  c #616974",
"C  c #616A77",
"Z  c #626A76",
"A  c #636B76",
"S  c #646C77",
"D  c #626B78",
"F  c #646D79",
"G  c #656E7B",
"H  c #676E7A",
"J  c #676F7C",
"K  c #68707B",
"L  c #68717D",
"P  c #6A717C",
"I  c #6A737D",
"U  c #6D747F",
"Y  c #6B7380",
"T  c #6C7481",
"R  c #6F7781",
"E  c #6D7582",
"W  c #6F7784",
"Q  c #707781",
"!  c #717983",
"~  c #707885",
"^  c #717986",
"/  c #777D86",
"(  c #767D89",
")  c #767E89",
"_  c #777F8A",
"`  c #7C8085",
"'  c #7C838E",
"]  c #84898F",
"[  c #818891",
"{  c #909294",
"}  c #969BA3",
"|  c #AEB0B4",
" . c #B1B3B6",
".. c #BDBEC0",
"X. c #C0C1C3",
"o. c #C1C2C4",
"O. c #CACBCC",
"+. c #CCCED0",
"@. c #D1D2D3",
"#. c #DADADB",
"$. c #D9DADC",
"%. c gainsboro",
"&. c #E1E1E2",
"*. c gray89",
"=. c #E4E5E7",
"-. c #ECECEC",
";. c #EDEEEF",
":. c gray96",
">. c white",
/* pixels */
"- - - - - - - - - - - - - - - - - - - - - - - - - - - - - - - - - - - - - - - - - - - - - - - - - - - - - - - - - - - - - - - - - - - - - - - - - - - - - - - ",
"- - - - - - - - - - - - - - - - - - - - - - - - - - - - - - - - - - - - - - - - - - - - - - - - - - - - - - - - - - - - - - - - - - - - - - - - - - - - - - - ",
"- - - - - - - - - - - - - - - - - - - - - - - - - - - - - - - - - - - - - - - - - - - = - - - - - - - - - - - = - - - - - - - - - - - - - - - - - - - - - - - ",
"- - - - r ) [ ' [ [ [ [ [ [ [ [ [ [ [ [ [ [ [ [ [ [ [ [ [ [ [ ' [ [ [ [ [ [ [ [ [ [ [ [ [ [ [ [ [ [ [ [ [ [ [ [ [ [ [ [ [ [ [ [ [ [ [ ' [ [ [ [ [ _ y - - - - ",
"- - - 8 ' ) ) ) ( ( ( ) ) ) ) ) ) ) ) ) ) ) ) ) ) ) ( ( ( ( ( ( ( _ ( ( _ ) ) ( ) ( ( ( ) ) ) ) ( ( ( ( ( ( ( ( ( ( ( ( ( ( ( ( _ ( ( _ ) ) ( ( _ _ ' 8 = = - ",
"- - * Q ) ^ W W ~ ~ ~ ~ ^ ~ ~ ~ W W W ^ W W W W ^ W W W W W W W W W W W W ^ ^ W W W ~ ~ ~ W W W ~ ~ ~ ~ ~ ~ ~ ~ ~ ~ ~ ~ ~ ~ ~ ~ W W W ~ W ^ W W ~ ~ ( Q = = - ",
"- - & ! W W W W W W W W W W ~ W W W W W W W W W W W W W W W W W W W W W W W W W W W W ~ W W W W ~ ~ W ~ W ~ W ~ W W ~ W W W ~ W W W W W W W W W ~ W ~ ~ & = - ",
"- - $ R R W W R E W T W T W R R T W W W W W T W W W W W W W W W W W W E W E W W ~ T W T W W T W W T W T W T W T T W T ~ T ~ T W E W E W W W E W R R E Q & = - ",
"- - # R T W T W E E W T T W T T T T W T T W T W W T T T T W T T E E E E R Y W W Y W Y W R T R W T W T T T W T T E E T E E W T T R E E E E E T E T R R R & - - ",
"- = # R Y T Y Y T T Y Y T T T T T T T T T T T T T T T T T T T T Y Y Y E Y R Y Y Y T Y Y T T Y T Y T T T Y T T Y T T Y Y T T T T T T Y T T T T T T Y Y T & - - ",
"- - $ T Y Y Y Y Y Y Y Y Y Y Y Y Y Y Y Y Y T T T T Y T T T T T T Y Y Y Y Y Y Y Y Y Y Y Y Y Y Y R T T T T T Y Y Y T Y Y Y Y Y Y Y Y Y Y Y Y Y Y Y T T T T $ - - ",
"- - $ I L Y L L Y L L Y Y L L Y L Y L L L L L L L L L Y L L L L Y J Y Y T L L L J Y I Y L Y L L L L L L Y L Y L Y Y J Y L Y L Y L Y L J Y L Y L L L L Y & * - ",
"- - $ J L L L L L L L J L L L L L L L L L L L L L L L L L L L L J L I J L L I L I J L L L L L L L L L L L L L L L L L J L L L L Y L L Y L L L H L L L L $ * - ",
"- - $ L J J J J J J J J J J J J J J J J J J J L L J J J L L L F J } =.>.>.$./ B } =.>.>.$./ V F L J J J J J J J J J J J J J J J H G G H H L H L L L L L * - - ",
"- - $ I J G G G G G J J J J J F G G G G G G G G G G F G G G G G J ;.+.3 M :.X.e ;.+.2 M :.X.e A G G J G G G G G J F J J J J J G G G G G G G L F F L F I # * - ",
"- - # J F F F F F F F D D F F F F F F F F F F F F F F F F F F F D >.O.: 6 6 3 7 >.O.> 6 6 3 7 c F F F F F F F F F F F D D F F D F F F F F G D H F F A L * - - ",
"- - # F A D D D m F F F F m m F F m m F F F m F A A F F F m F m D | >.>.O.| q p | >.>.O.| 7 a m D F v G F F v F m F m F F F F m A F m F D F D F D F D L # - * ",
"- - * K A A m D F B m m F m F m F m F m m m m m A m m m m F F m D f r ..&.>.&.e p r ..%.>.&.e m v F D m A D F m F m F m m m F m D A D m m m m D m D D F # - - ",
"- - # A m D D D m m m m m m m m m m m m m m m F m m m m m m m m A c p 9 2 { %.u y p 7 2 { %.u y m m m m m m v A m m m m m m m m m m m m m m m m m B A D $ - - ",
"- - # A m v v x m m m n m m m m m m m m m m m m m m m m m m m m I &. .y y o.@.3 &. .y y X.@.; 0 v m m m m m m v m v m m m m m m m m m B m m m m m m m A $ - - ",
"- * # A c v v v c c c m m B c m c c c x x v c x c m k A k m c c c [ #.-.-.@.N > ` #.-.-.@.N > q v v l v c x l v c x x c x c x m c m k n c n c m m c m A $ - - ",
"- * * m c l c l x x x l k k k x x x l x l x l x h x c k c h x c v i 4 , > > , 6 q 5 , , : 1 6 f l x v l c l x l x x x l l x l x x l k c x x k x x k c B $ - - ",
"- - # A c c h l c k k c x h c h l l l l h x l l k c c k k c k c h h a 0 9 9 q p h i q 8 7 w f k l x l l x l l l l l l l l l l l l c x h h k k c k x h B $ - - ",
"- - # A h h l h k h k f k k k k x f l h l h l h f c f k k h k h c l h l h c h h l l l d k k k k l f f x h l f x x f h l h l l h h h h x h h k k f c c m $ - - ",
"- - * c l f f l f h h f f h f h p f h h f f h g f h h g f f h g p h f h f h k f f f h g f k g f k k f k g f h f d d h f h h f h h f h g f h k f g h g A = - - ",
"- - * m f f f f f f f f f f f f f f f f f f f f f f f f f f f f f h f f f f f f f f f f f f f f f f f f f f f f f f f f h f f h f f f f f f f f f f g B O - - ",
"= = + m f d f f f f f f f f f f f f f f f f f f f f f f f f f f f f f f f f f f f f f f f f f f f f f i f f f f f f f f f f f p f i i f f f f f f f g h % = = ",
"= = * h f f y f p p p p i f i i i i f i i f i f i i f i i f i f p p p p p p p f i f i f y f i i f y f i f y i f i f i i i i f p f i f f y f i i p i u N = - = ",
"- - $ g a a i i i i i i p i i f p p i i f i i i i p i i f i i i i p i i i i p i f i i i i i i f y i i i i i f i i f i i i i f i i i f i i i i i i i f g % = = ",
"- - $ 1 a e i i i i i i i i i i i i i i i i i i i p i i i i i i i i i i i i i i i i i i i i i i i i i i i i i i i i i i i i i i i i i i i i i i i i p 1 = = = ",
"- - = o > w y i i i i i i i i i i i i i i i i i i i i i i i i i i i i i i i i i i i i i i i i i i i i i i i i i i i i i i i i i i i i i i i i i y q , O = = = ",
"- - = * o X     . . . . X . . . . . . . . . . .   . . . .       . X . . . . . .           . . . . . . .       . . . . . . .     . . . . . X . .   X o = = - - ",
"= = = = = % % % % O % % % % % O % $ $ $ $ O $ $ $ $ # o * # # # * # # # * # o # * # # o * # # # o * o * * # # * o # # * # # o * % % $ + = + = + % % % = = = = "
};
