/* XPM */
static char *__png[] = {
/* columns rows colors chars-per-pixel */
"26 36 151 2 ",
"   c black",
".  c #132027",
"X  c #162428",
"o  c #1D2529",
"O  c #19303C",
"+  c #212729",
"@  c #25292A",
"#  c #292A2A",
"$  c #21343E",
"%  c #203840",
"&  c #2F3C41",
"*  c #323C41",
"=  c #234551",
"-  c #244B5F",
";  c #374A53",
":  c #2B4E60",
">  c #3D6372",
",  c #465256",
"<  c #4B5256",
"1  c #505657",
"2  c #545758",
"3  c #435C66",
"4  c #4A5E66",
"5  c #4E6067",
"6  c #556167",
"7  c #5B6569",
"8  c #466473",
"9  c #466975",
"0  c #536C76",
"q  c #606669",
"w  c #627379",
"e  c #286788",
"r  c #2E79A0",
"t  c #486E80",
"y  c #40728C",
"u  c #597784",
"i  c #587E90",
"p  c #39849C",
"a  c #2C86B5",
"s  c #538296",
"d  c #5B8393",
"f  c #58879D",
"g  c #6E8288",
"h  c #658492",
"j  c #6F8B95",
"k  c #688D9F",
"l  c #4C92AA",
"z  c #5B95AB",
"x  c #4392BA",
"c  c #4E98BB",
"v  c #5091B2",
"b  c #5C9CB6",
"n  c #6D93A1",
"m  c #6D97AB",
"M  c #7597A3",
"N  c #7B9CAD",
"B  c #74A7B9",
"V  c #2C93C9",
"C  c #3597CB",
"Z  c #269DDC",
"A  c #299FDC",
"S  c #2BA3DE",
"D  c #38A1D5",
"F  c #32A4DE",
"G  c #38A8DF",
"H  c #2FA9E0",
"J  c #34A7E0",
"K  c #32ADE2",
"L  c #3BABE1",
"P  c #36B2E4",
"I  c #3AB5E5",
"U  c #3CB9E7",
"Y  c #3EBDE8",
"T  c #419DCD",
"R  c #44A1C0",
"E  c #5BA6C8",
"W  c #5FB0CD",
"Q  c #48A8D8",
"!  c #52AFDB",
"~  c #49B3D6",
"^  c #63ABCB",
"/  c #72A9C1",
"(  c #78B7CF",
")  c #62B3D6",
"_  c #69B7D7",
"`  c #6DBAD8",
"'  c #74BCD9",
"]  c #7EBBD8",
"[  c #42ACE1",
"{  c #43B1E3",
"}  c #4CB4E4",
"|  c #45BAE3",
" . c #44BEE8",
".. c #4BBEE8",
"X. c #53B4E4",
"o. c #5CB6E5",
"O. c #55BBE7",
"+. c #59BCE6",
"@. c #53BFE9",
"#. c #59BFE8",
"$. c #63BCE7",
"%. c #76BFE1",
"&. c #42C2EA",
"*. c #4CC4EB",
"=. c #52C3EA",
"-. c #5DC2EA",
";. c #56C8EC",
":. c #5DCAED",
">. c #63C4EA",
",. c #6AC5EA",
"<. c #60C8EC",
"1. c #68CDEE",
"2. c #71C3EA",
"3. c #7CC7E8",
"4. c #72CCED",
"5. c #6DD1EF",
"6. c #75D0EF",
"7. c #74D3F0",
"8. c #79D3F1",
"9. c #819297",
"0. c #8C9598",
"q. c #83A5B0",
"w. c #82ADBC",
"e. c #9AA9B2",
"r. c #A3B0B4",
"t. c #9CBDC9",
"y. c #84BDD1",
"u. c #90BBD0",
"i. c #B3C7CD",
"p. c #AECDD7",
"a. c #B4CFD8",
"s. c #85CAEC",
"d. c #8DD1E8",
"f. c #96D0EE",
"g. c #9DD7EA",
"h. c #85D8F2",
"j. c #8CDAF2",
"k. c #A1CFE6",
"l. c #B2D6E9",
"z. c #A5D7F1",
"x. c #AEDBF2",
"c. c #9DE0F4",
"v. c #A4E2F6",
"b. c #B2E6F7",
"n. c #BCE1F4",
"m. c #BFEBF8",
"M. c #C5DDE4",
"N. c #C4E5F5",
"B. c #C9E7F6",
"V. c #C7EDF9",
"C. c #D1F1FA",
/* pixels */
"                  # 0.a.C.C.C.C.M.0.2               ",
"                r.V.v.j.8.6.7.8.h.c.m.i.2           ",
"            # a.c.8.:.*.&.&.&.&.*.:.5.j.m.7         ",
"            p.j.:.&.&.&.&.&.&.&.&.&.&.;.8.b.1       ",
"          9.j.;.&.&.&.p =       p | &.&.*.8.t.      ",
"        @ g.:.&.&.~ =             X R &.&.*.j.7     ",
"        g 8.*.Y *.%                 X ~ &.&.1.q.    ",
"        w.:.Y &.l                     > &.&.=.d.#   ",
"      @ j.*.Y =.9                       +.Y &.6.w   ",
"      , 4. .U :.                        b  . .<.M   ",
"      j <.U U W                         s *.U =.y.  ",
"      n =.U  .z                         3 =.U  .3.  ",
"      B =.I ..d                         & -.U U 6.@ ",
"      ( ..I @.d                         + >.U I 1., ",
"      ' | I @.u                           >.I I -.5 ",
"      ` U P @.0                           1.P P -.5 ",
"      4.I P #.3                           ) I P #.4 ",
"      ,.P P #.4                           _ I P #.4 ",
"      >.K K -.4                           ` P P #.4 ",
"      ) P K O.0                           2.K K @.4 ",
"      _ I J O.u                           ,.K K O.4 ",
"      ^ K H O.u                         + $.H K +.* ",
"      b I J } h                         * $.H H o.+ ",
"      f L H } m                         5 +.H H o.  ",
"      i { H { /                         h X.H J E   ",
"      ; } S L %.                        k } S L s   ",
"        ! S S ,.6                       ] [ S [ 8   ",
"        v S S X.N                     6 ,.J A } o   ",
"        t L S G s.<                 # u.X.S S c     ",
"        o Q S F X.k.q             # t.2.L A L >     ",
"          y F S G $.z.e.2       0.l.3.[ A S x       ",
"            T A A F X.s.x.N.B.n.f.$.L A A D %       ",
"            $ C A Z S L X.o.o.X.[ F A Z F :         ",
"              . r A Z Z Z Z Z Z Z Z A a %           ",
"                  O e a A Z Z Z V e -               ",
"                                                    "
};
