/* XPM */
static char *__png[] = {
/* columns rows colors chars-per-pixel */
"26 36 110 2 ",
"   c black",
".  c #254652",
"X  c #2F6072",
"o  c #404243",
"O  c #396E81",
"+  c #2F758E",
"@  c #38788F",
"#  c #427283",
"$  c #567383",
"%  c #567483",
"&  c #577483",
"*  c #577684",
"=  c #597784",
"-  c #597884",
";  c #5A7985",
":  c #5B7A85",
">  c #3E9CBE",
",  c #798589",
"<  c #608F9F",
"1  c #259DDB",
"2  c #269DDC",
"3  c #279EDC",
"4  c #279FDC",
"5  c #2AA3DE",
"6  c #2DA0DC",
"7  c #2BA4DE",
"8  c #2DA7DF",
"9  c #30A3DE",
"0  c #32A7DF",
"q  c #2EA8E0",
"w  c #2FAAE0",
"e  c #35ABE1",
"r  c #33AFE3",
"t  c #37AEE2",
"y  c #35B1E3",
"u  c #36B2E4",
"i  c #37B4E4",
"p  c #39B1E3",
"a  c #38B5E5",
"s  c #3CB4E4",
"d  c #3EB7E5",
"f  c #3BB9E7",
"g  c #3FBBE7",
"h  c #3DBCE8",
"j  c #3FBFE9",
"k  c #41ACD3",
"l  c #6DADC4",
"z  c #76B0C4",
"x  c #60ABD1",
"c  c #62ADD3",
"v  c #64AFD3",
"b  c #64B0D3",
"n  c #66B2D5",
"m  c #6AB6D7",
"M  c #6AB8D7",
"N  c #6BB8D8",
"B  c #6DBBD9",
"V  c #6FBDD9",
"C  c #47ACE1",
"Z  c #48AEE2",
"A  c #4AB0E2",
"S  c #4BB3E4",
"D  c #4CB4E4",
"F  c #4FB8E5",
"G  c #42BBE8",
"H  c #41BEE8",
"J  c #44BEE9",
"K  c #4ABEE9",
"L  c #50B8E6",
"P  c #53BDE7",
"I  c #55BFE8",
"U  c #70C0DA",
"Y  c #72C1DA",
"T  c #73C3DB",
"R  c #43C0EA",
"E  c #45C0EA",
"W  c #48C3EB",
"Q  c #4FC3EA",
"!  c #48C4EB",
"~  c #49C5EB",
"^  c #51C1EA",
"/  c #52C3EA",
"(  c #56C0E9",
")  c #58C3EB",
"_  c #59C6EB",
"`  c #54C9EC",
"'  c #5CC8EC",
"]  c #63CBED",
"[  c #68CEEE",
"{  c #6FCEEE",
"}  c #77D3F0",
"|  c #80888A",
" . c #829298",
".. c #869498",
"X. c #8B9598",
"o. c #91A1A6",
"O. c #97BCC9",
"+. c #90CCDF",
"@. c #ACC4CC",
"#. c #80D3F0",
"$. c #8BDAF3",
"%. c #9BDEF4",
"&. c #BBD9E3",
"*. c #A0DFF4",
"=. c #A2E0F4",
"-. c #A6E2F5",
";. c #BDE9F7",
":. c #CBDFE5",
">. c #D1F1FA",
",. c #DAF3FB",
/* pixels */
"                              o ,.>.:.              ",
"                              O.$.} +.              ",
"                             .$.` ! T               ",
"                          , =.] E ! T               ",
"                        ..-.[ ~ E ! T               ",
"                      o.=.[ E j R E T               ",
"                  o @.%.] E h j j E T               ",
"                X.;.$.' R j R h j R U               ",
"            | &.*.{ Q H H > + E H H T               ",
"            O.#._ J h J @   # ^ g H V               ",
"            z ^ g g > .     * _ g G V               ",
"            l K k X         ; ) f G V               ",
"            < O             : _ f G B               ",
"                            ; ( u H B               ",
"                            ; ( a d B               ",
"                            ; I i d B               ",
"                            ; ( u d m               ",
"                            ; I y d M               ",
"                            ; D r p m               ",
"                            ; L r p m               ",
"                            = L r t n               ",
"                            = F w t m               ",
"                            ; F w t n               ",
"                            * D w e n               ",
"                            * D 8 0 n               ",
"                            * S 8 e b               ",
"                            & D 7 0 b               ",
"                            & A 5 0 v               ",
"                            & A 5 9 v               ",
"                            & Z 5 9 v               ",
"                            $ Z 4 9 c               ",
"                            $ Z 4 9 c               ",
"                            $ C 4 6 c               ",
"                            $ C 4 6 x               ",
"                            $ C 1 6 x               ",
"                                                    "
};
