/* XPM */
static char *__png[] = {
/* columns rows colors chars-per-pixel */
"26 36 136 2 ",
"   c black",
".  c #122328",
"X  c #1B2529",
"o  c #1D333E",
"O  c #21272A",
"+  c #292A2A",
"@  c #23373F",
"#  c #253940",
"$  c #343D41",
"%  c #393F42",
"&  c #3E4143",
"*  c #224250",
"=  c #3A4E55",
"-  c #284F61",
";  c #2E5362",
":  c #2D5C70",
">  c #326373",
",  c #32677E",
"<  c #35697F",
"1  c #405055",
"2  c #4D5557",
"3  c #515557",
"4  c #555758",
"5  c #5B6468",
"6  c #416875",
"7  c #596F77",
"8  c #64696A",
"9  c #6C7679",
"0  c #346F82",
"q  c #316C8A",
"w  c #31758E",
"e  c #367A8F",
"r  c #3C798F",
"t  c #347EA2",
"y  c #457A8F",
"u  c #577985",
"i  c #667A85",
"p  c #3B87AE",
"a  c #388FB8",
"s  c #3D98B5",
"d  c #538192",
"f  c #638191",
"g  c #728D95",
"h  c #4599B5",
"j  c #529DB5",
"k  c #5A9EB6",
"l  c #79A0AE",
"z  c #7DABBB",
"x  c #3696C3",
"c  c #269DDC",
"v  c #299FDD",
"b  c #2DA4DE",
"n  c #36A4D7",
"m  c #31A4DE",
"M  c #38A6DF",
"N  c #2FA8E0",
"B  c #33ACE1",
"V  c #3AACE1",
"C  c #37B3E3",
"Z  c #3CB4E4",
"A  c #3CB9E7",
"S  c #3EBDE8",
"D  c #4FA5C1",
"F  c #4AA4C8",
"G  c #44B2D6",
"H  c #43B0DB",
"J  c #56B4D6",
"K  c #52B7DF",
"L  c #42ADE2",
"P  c #48ADE1",
"I  c #41B4E5",
"U  c #4CB4E4",
"Y  c #4CBCE7",
"T  c #41BFE9",
"R  c #4ABDE8",
"E  c #55B3E3",
"W  c #5DB6E5",
"Q  c #58B9E6",
"!  c #61BDE8",
"~  c #42C2EA",
"^  c #4BC3EA",
"/  c #5AC4EA",
"(  c #55C8EC",
")  c #5BCAED",
"_  c #66C1E2",
"`  c #61C7EC",
"'  c #6AC4EA",
"]  c #62CCED",
"[  c #69CCED",
"{  c #72C3EA",
"}  c #7DC5EA",
"|  c #73CBED",
" . c #6ED0EF",
".. c #71D0EF",
"X. c #73D2F0",
"o. c #7AD5F1",
"O. c #869498",
"+. c #8B9699",
"@. c #8B9FA5",
"#. c #919FA5",
"$. c #95A3A6",
"%. c #87A4B0",
"&. c #8DA4B0",
"*. c #8CB2C5",
"=. c #98BEC9",
"-. c #89C0D3",
";. c #81C5DC",
":. c #ACC3CB",
">. c #A9CEDE",
",. c #B0CDD7",
"<. c #BCD3D9",
"1. c #80C6EA",
"2. c #82CAEC",
"3. c #8BCCED",
"4. c #93D2EF",
"5. c #9DD3EF",
"6. c #83D5F0",
"7. c #8ED5F1",
"8. c #8BDAF2",
"9. c #93DCF3",
"0. c #9EDFF4",
"q. c #A0D3E8",
"w. c #ABD6EA",
"e. c #ABD8E9",
"r. c #B1D1E0",
"t. c #A2D8F1",
"y. c #ABDDF2",
"u. c #A5E2F5",
"i. c #AEE5F6",
"p. c #B6E8F7",
"a. c #BEEAF8",
"s. c #C3E4F5",
"d. c #C9E7F6",
"f. c #CBEFFA",
"g. c #D5ECF8",
"h. c #D2F1FA",
/* pixels */
"                  4 +.<.h.h.f.h.h.$.#.              ",
"              8 <.a.u.8.X.X.X.X.o.9.i.f.+.          ",
"            +.p.8. .) ^ ~ ~ ~ ~ ~ ( ] o.u.:.+       ",
"          O.u. .^ ~ ~ ~ ~ ~ ~ ~ ~ ~ ~ ^ ) 9.,.      ",
"        2 u.[ ^ ~ ~ G e .       0 s ~ ~ ~ ) 8.@.    ",
"        =...^ S ~ h                 > ^ ~ ~ ) 0.1   ",
"      2 8.^ S ~ h                     > ~ S ^  .O.  ",
"      g [ ~ S ^ #                       D S S ( -.  ",
"      z / S T j                         6 ^ S ^ 6.  ",
"      ;.^ S ^ d                         = / A S [ & ",
"        r w J u                         = ` A A [ O ",
"                                        7 ` A A _   ",
"                                        l / A S k   ",
"                                      & 7.Y C R d   ",
"                                      %.' A Z K X   ",
"                                    9 7.Y C A y     ",
"                                  3 q./ Z C F       ",
"                                & e.' I Z H @       ",
"                              & >.| I B Z ;         ",
"                            4 >.| I B Z <           ",
"                          3 e.{ I B V 0             ",
"                        5 w.' I B V ,               ",
"                      9 y.' Z B V :                 ",
"                    #.t.! V b V -                   ",
"                + :.4.Q V b n *                     ",
"              1 r.2.U N b x o                       ",
"            & >.{ L N b a                           ",
"          & ,.! V b m t                             ",
"        + >.! P b m q                               ",
"        &.} M b m q                                 ",
"      5 3.P b b p                                   ",
"      *.E v c m W 5.s.d.d.d.d.d.d.d.d.d.d.d.d.d.g.& ",
"    % 1.M c c b V E W W W W W W W W W W W W W W 1.$ ",
"    i W v c c c c c v c c c c c c c c c c c c c E $ ",
"    f P c c c c c c c c c c c c c c c c c c c c E $ ",
"                                                    "
};
