/* XPM */
static char *__png[] = {
/* columns rows colors chars-per-pixel */
"26 36 153 2 ",
"   c black",
".  c #1D2529",
"X  c #1B353E",
"o  c #27292A",
"O  c #292A2A",
"+  c #25363F",
"@  c #29383F",
"#  c #1E3E4F",
"$  c #2C3B41",
"%  c #203F4F",
"&  c #373E41",
"*  c #3F4243",
"=  c #2A4953",
"-  c #274C60",
";  c #2C4F61",
":  c #355563",
">  c #3A6574",
",  c #4A5356",
"<  c #505557",
"1  c #535758",
"2  c #556368",
"3  c #4C6774",
"4  c #66696A",
"5  c #637379",
"6  c #6E777A",
"7  c #72787A",
"8  c #276788",
"9  c #306A89",
"0  c #2F718B",
"q  c #31748D",
"w  c #3C718B",
"e  c #367A8F",
"r  c #367596",
"t  c #377C99",
"y  c #4C788E",
"u  c #677D86",
"i  c #3E89A6",
"p  c #2E86B6",
"a  c #2B8DBF",
"s  c #368CB0",
"d  c #49869D",
"f  c #5C8291",
"g  c #6E8288",
"h  c #638493",
"j  c #6F8894",
"k  c #7E8F97",
"l  c #4584A4",
"z  c #4A87A5",
"x  c #5B97AB",
"c  c #4297BB",
"v  c #439EBF",
"b  c #4F9EBE",
"n  c #5C9FB7",
"m  c #569DBE",
"M  c #699BAE",
"N  c #7497A3",
"B  c #709EAE",
"V  c #389DC6",
"C  c #269DDC",
"Z  c #299FDC",
"A  c #2BA2DD",
"S  c #3EA3D7",
"D  c #33A5DE",
"F  c #2EA8E0",
"G  c #32ACE1",
"H  c #39ACE1",
"J  c #36B2E4",
"K  c #3AB4E5",
"L  c #3DBAE7",
"P  c #3EBDE8",
"I  c #46A2C0",
"U  c #56AFCD",
"Y  c #45B2D6",
"T  c #4DB4D7",
"R  c #51B1DC",
"E  c #72A8C1",
"W  c #6FB5D6",
"Q  c #7BBAD0",
"!  c #43ADE1",
"~  c #4CAFE2",
"^  c #42B3E3",
"/  c #4AB3E4",
"(  c #42B8E6",
")  c #4CBAE6",
"_  c #42BEE9",
"`  c #55B4E4",
"'  c #5BB6E5",
"]  c #51BAE7",
"[  c #59BDE4",
"{  c #53BFE8",
"}  c #65BCE7",
"|  c #6CBEE8",
" . c #42C2EA",
".. c #4BC3EA",
"X. c #54C3EA",
"o. c #5AC3EA",
"O. c #55C8EC",
"+. c #5CCAEC",
"@. c #65C6EB",
"#. c #6BC4EA",
"$. c #60CBED",
"%. c #7AC4E8",
"&. c #7DCFEE",
"*. c #6CD0EF",
"=. c #75D2EF",
"-. c #7CD0EF",
";. c #73D2F0",
":. c #7AD4F0",
">. c #819297",
",. c #889397",
"<. c #8D9598",
"1. c #909799",
"2. c #859DA5",
"3. c #94A2A6",
"4. c #87AABA",
"5. c #9AA9B2",
"6. c #9EBAC8",
"7. c #90C2DA",
"8. c #AEC5CC",
"9. c #A7C5D3",
"0. c #ABC9D5",
"q. c #B3CDD7",
"w. c #BAD2D9",
"e. c #82C7EB",
"r. c #84CFEE",
"t. c #89CDED",
"y. c #97CEE6",
"u. c #90CEED",
"i. c #8BD1EF",
"p. c #96D4E9",
"a. c #9CD4ED",
"s. c #82D7F2",
"d. c #8DDAF2",
"f. c #93DCF3",
"g. c #9BD8F1",
"h. c #A2D0E7",
"j. c #A9DBEB",
"k. c #A4DBF2",
"l. c #A8DCF2",
"z. c #9EE0F5",
"x. c #A5E3F5",
"c. c #AEE5F6",
"v. c #BCE1F4",
"b. c #BCEAF8",
"n. c #C8DBE3",
"m. c #C4E0EC",
"M. c #C0E3F5",
"N. c #C9E7F6",
"B. c #C1E8F7",
"V. c #CEE8F0",
"C. c #CCEEF9",
"Z. c #D2F1FA",
"A. c #D8F0FA",
/* pixels */
"                  4 <.V.Z.Z.Z.Z.5.1.                ",
"              1 w.b.z.s.;.;.;.:.z.x.C.1.            ",
"            7 b.d.*.+... . . . .O.$.:.x.8.O         ",
"          6 c.=... . . . . . . . . . .$.d.q.        ",
"        o j.*... . .Y e       X i  . . .O.f.>.      ",
"        2.:... . .I               X Y  . .+.a.o     ",
"      o p.O.P  .T                   = ..P  .-.g     ",
"      5 -. .P ..>                     U  .P $.N     ",
"      N $._ P [                       x ..P O.B     ",
"        > q v n                       M ..L X.M     ",
"                                      Q ) L X.f     ",
"                                    5 :._ L X.$     ",
"                                  7 k.o.L ( d       ",
"                              <.q.k.@.( L I         ",
"                      * A.C.B.k.&.o.( L i           ",
"                      2 i.@.@.{ ( K L i             ",
"                      u o.J J K J J ^ @.l.3.        ",
"                      h b 0 9 q V J K ) #.g.q.O     ",
"                                  X s J K ] r.0.    ",
"                                      t J G ) r.k   ",
"                                        c G G ] y.  ",
"                                        : ^ F H %., ",
"                                          R G G { j ",
"                                          m G F / h ",
"        <.,.n.<.                          E G A / f ",
"      m.l.u.t.4.                          W H F ^ u ",
"      E ` ! ^ %.                        & #.D A / 3 ",
"      y H A D } u                       j ' A A ~ . ",
"      @ ! A A ~ 7.                    , u.! A D z   ",
"        l D A D | 6.                < h.' D A S $   ",
"        + S Z A ! %.9.<.        7 5.l.} D A D w     ",
"          ; D Z Z ! | a.v.N.N.M.l.e.` D Z A r       ",
"            - D C Z D ! ` ' ' ' ~ D Z Z D 9         ",
"              X p Z Z Z C C C C Z Z Z p %           ",
"                  # 8 a Z C C C a 8 #               ",
"                                                    "
};
