/* XPM */
static char *__png[] = {
/* columns rows colors chars-per-pixel */
"26 36 102 2 ",
"   c black",
".  c #172328",
"X  c #27292A",
"o  c #292A2A",
"O  c #24373F",
"+  c #233840",
"@  c #3D4143",
"#  c #2E4953",
"$  c #4E5557",
"%  c #495C66",
"&  c #526067",
"*  c #626769",
"=  c #6A757A",
"-  c #2A6A89",
";  c #3A6B80",
":  c #3B7A8F",
">  c #41798F",
",  c #4C788E",
"<  c #5C7884",
"1  c #5B7E90",
"2  c #6B7E86",
"3  c #3A839B",
"4  c #338CB7",
"5  c #3694B3",
"6  c #4F8091",
"7  c #5E8292",
"8  c #758288",
"9  c #608592",
"0  c #428EB1",
"q  c #4391B2",
"w  c #549ABC",
"e  c #639FBE",
"r  c #64A1BF",
"t  c #269EDC",
"y  c #2BA5DE",
"u  c #35A5DE",
"i  c #2FA9E0",
"p  c #32ACE1",
"a  c #39ACE1",
"s  c #36B2E4",
"d  c #3CB3E4",
"f  c #3DB9E7",
"g  c #3EBEE9",
"h  c #4AA5C8",
"j  c #4DAACB",
"k  c #44ADDA",
"l  c #44B1DC",
"z  c #68A6C1",
"x  c #6DACC3",
"c  c #70B1C5",
"v  c #43ACE1",
"b  c #43B4E5",
"n  c #4BB4E4",
"m  c #44BAE7",
"M  c #4DB9E7",
"N  c #44BEE9",
"B  c #4ABEE9",
"V  c #53B6E5",
"C  c #53BBE7",
"Z  c #5ABAE6",
"A  c #53BEE8",
"S  c #5BBEE8",
"D  c #62BDE7",
"F  c #42C1EA",
"G  c #4CC3EA",
"H  c #54C3EA",
"J  c #58C3EA",
"K  c #5DCAED",
"L  c #64C4EA",
"P  c #6DC3EA",
"I  c #64CBED",
"U  c #69CCED",
"Y  c #70CCED",
"T  c #7DCAEC",
"R  c #75D3F0",
"E  c #7DD5F1",
"W  c #819297",
"Q  c #899EA5",
"!  c #8FA7B0",
"~  c #94B2BD",
"^  c #89B9C9",
"/  c #9EC5D4",
"(  c #B8C9CD",
")  c #A2C7D5",
"_  c #A2CDDF",
"`  c #88CFEE",
"'  c #99CEE6",
"]  c #81D0EF",
"[  c #90D1EF",
"{  c #9DD5E9",
"}  c #86D4F0",
"|  c #8ED8F2",
" . c #90D3F0",
".. c #93DDF3",
"X. c #9BDCF3",
"o. c #A0D1E0",
"O. c #AEDDF3",
"+. c #B9E2F5",
"@. c #CADFE4",
"#. c #C1E5F6",
"$. c #CBE9F7",
"%. c #D3F1FA",
/* pixels */
"                                o @.%.%.(           ",
"                                Q ..R E /           ",
"                              = X.K F G c           ",
"                            X o.U G F G c           ",
"                            ^ E G F F G c           ",
"                          = X.H F F F G c           ",
"                        $ o.I N F F g G c           ",
"                        ~ Y G F 5 F g F c           ",
"                      W | H N 3 : G f G x           ",
"                    @ { K N j   6 H f G c           ",
"                    ) Y N B #   7 H f N x           ",
"                  W } B N >     9 H f G x           ",
"                $ X.J m j       9 H f N x           ",
"                / U f B +       9 H d N x           ",
"              Q ] B b >         9 A d N x           ",
"            $ X.A d h           7 A s m x           ",
"          X _ L d l O           9 A s b z           ",
"          ! T b b >             9 C s b x           ",
"        =  .M s q               7 M p f z           ",
"      X { S d k O               7 M p b z           ",
"      ~ P d d ;                 7 M p d z           ",
"    8 ` n p 0                   7 n p b z           ",
"  + ' C p k .                   7 n i a z           ",
"  2 P a u M [ #.$.$.$.$.$.$.$.+.T b i a P O.$.$.%.* ",
"  2 V y u a V D D D D D D D D Z b p y u b Z D D ] & ",
"  < n y y i y y y y y y y i y y y y i y y y y y V % ",
"  < n y y y y y y y y y y y y y y y y y y y y y V % ",
"                                - u y y 4           ",
"                                , v y u w           ",
"                                1 v t u r           ",
"                                1 v y u r           ",
"                                1 v t u r           ",
"                                1 v t u e           ",
"                                1 v t u e           ",
"                                1 v t u e           ",
"                                                    "
};
