/* XPM */
static char *__png[] = {
/* columns rows colors chars-per-pixel */
"26 36 144 2 ",
"   c black",
".  c #122127",
"X  c #162328",
"o  c #1C2529",
"O  c #1A313D",
"+  c #24282A",
"@  c #292A2A",
"#  c #1E3E4F",
"$  c #213F4F",
"%  c #373E42",
"&  c #393F42",
"*  c #3A4042",
"=  c #2A4552",
"-  c #324B54",
";  c #274C60",
":  c #2D4F61",
">  c #275161",
",  c #2B576E",
"<  c #2E596F",
"1  c #455155",
"2  c #4D5357",
"3  c #505557",
"4  c #536268",
"5  c #5B6569",
"6  c #4B6B76",
"7  c #5F7278",
"8  c #73787A",
"9  c #276788",
"0  c #3E6D81",
"q  c #2F728C",
"w  c #30718C",
"e  c #367A8F",
"r  c #3A7E99",
"t  c #2C7FAB",
"y  c #426B80",
"u  c #507383",
"i  c #507A8F",
"p  c #557E90",
"a  c #697F87",
"s  c #348BAF",
"d  c #2E86B6",
"f  c #2B8DBF",
"g  c #3A97BB",
"h  c #51899D",
"j  c #5C8B9E",
"k  c #6C8A95",
"l  c #628B9E",
"z  c #718A95",
"x  c #4585A4",
"c  c #5A91A9",
"v  c #569FBF",
"b  c #6B90A0",
"n  c #6595AA",
"m  c #6A97AB",
"M  c #739DAE",
"N  c #6FA0B6",
"B  c #77A2B7",
"V  c #7BABBC",
"C  c #269DDC",
"Z  c #299FDC",
"A  c #2BA2DE",
"S  c #3EA3D7",
"D  c #33A4DE",
"F  c #3AA7DF",
"G  c #37A8DF",
"H  c #2FA9E0",
"J  c #38A7E0",
"K  c #33ADE2",
"L  c #3CABE1",
"P  c #36B2E4",
"I  c #3AB5E5",
"U  c #3DB9E7",
"Y  c #3EBDE8",
"T  c #449AC4",
"R  c #5EACC8",
"E  c #48AAD2",
"W  c #4DB2DC",
"Q  c #72AFCC",
"!  c #7CB8CF",
"~  c #7BBAD0",
"^  c #43ACE1",
"/  c #4AAFE2",
"(  c #44B3E3",
")  c #4CB3E4",
"_  c #42B9E6",
"`  c #4DBCE7",
"'  c #42BEE9",
"]  c #4BBCE8",
"[  c #56B3E4",
"{  c #5BB6E5",
"}  c #50B8E6",
"|  c #5CB8E6",
" . c #53BFE9",
".. c #63BCE7",
"X. c #69BFE8",
"o. c #73C3DB",
"O. c #42C2EA",
"+. c #4BC3EB",
"@. c #56C4EB",
"#. c #5BC3EA",
"$. c #5AC9ED",
"%. c #67C3E2",
"&. c #62C2E9",
"*. c #68C5EA",
"=. c #61CBED",
"-. c #6BCBED",
";. c #72C2E9",
":. c #7EC7EB",
">. c #74CDEE",
",. c #7BCDED",
"<. c #6CD0EF",
"1. c #72D2F0",
"2. c #7AD3F0",
"3. c #808F96",
"4. c #8D9598",
"5. c #83A0AE",
"6. c #84A8B9",
"7. c #9DACB3",
"8. c #9BB4BE",
"9. c #90B7C7",
"0. c #A8BAC0",
"q. c #A5BDC9",
"w. c #9DC7DC",
"e. c #ADC3CC",
"r. c #ADCBD6",
"t. c #BFD0D8",
"y. c #82C7EB",
"u. c #85CCED",
"i. c #91CEEE",
"p. c #88D0E7",
"a. c #84D1EE",
"s. c #9CD3EF",
"d. c #8BD5F0",
"f. c #97DEF4",
"g. c #A5DCF3",
"h. c #AAD9F2",
"j. c #BCE1F4",
"k. c #C1E2ED",
"l. c #C9E7F6",
"z. c #CCEAF7",
"x. c #CCEDF9",
"c. c #D3E9F0",
"v. c #D2EEF9",
"b. c #D0F0FA",
/* pixels */
"              c.b.b.b.b.b.b.b.b.b.b.b.b.b.b.b.c.    ",
"            * f.1.1.1.1.1.1.1.1.1.1.1.1.1.1.1.p.    ",
"            7 <.O.O.O.O.O.O.O.O.O.O.O.O.O.O.+.o.    ",
"            k =.O.O.O.O.O.O.O.O.O.O.O.O.O.O.+.o.    ",
"            V $.O.O.e                               ",
"            p.@.Y @.-                               ",
"          + 2.O.' %.                                ",
"          7 -.Y +.R                                 ",
"          k =.Y +.j                                 ",
"          V @.Y @.6                                 ",
"          ~ +.U =.o                                 ",
"        + a._ U R     4.7.b.x.x.b.0.4.              ",
"        4 -.U ' h a k.g.d.>.-.-.>.d.g.x.4.          ",
"        k $.I _ %.d.,.#.] U I I U ] @.>.g.e.@       ",
"        M  .I _  . ._ I I I I I I I I I #.d.r.@     ",
"        ! ] P I I I g 9         > q U I I ` a.8.    ",
"      + ,.U P L _ r                 . g I I ] d.5   ",
"      1 *.P P U r                     X E K I ..9.  ",
"        = w s E                         0 U P ( u.* ",
"                                          W K K &.z ",
"                                          v K K } b ",
"                                          c I K ) m ",
"                                          p ( A ( m ",
"                                          l ( K ( n ",
"                                          N ( H ( j ",
"      t.z.z.v.4.                          Q I A ( u ",
"      B X...;.6.                        & ;.J A ) % ",
"      i J A G :.&                       z | A A T   ",
"      o ) A A | 5.                    2 i.^ A G y   ",
"        x A A ^ y.3.                3 w.| A A T     ",
"        X S A A ) i.q.4.        8 7.h.X.D A J =     ",
"          : D C A / ;.s.j.l.l.j.h.y.[ D Z D <       ",
"            ; D Z Z S E ) { { { / F Z Z D ,         ",
"              O t Z C C C C C C Z Z Z d $           ",
"                  # 9 C Z C C C f 9 #               ",
"                                                    "
};
