/* XPM */
static char *__png[] = {
/* columns rows colors chars-per-pixel */
"26 36 154 2 ",
"   c black",
".  c #1A2529",
"X  c #1A343E",
"o  c #292A2B",
"O  c #20353F",
"+  c #333D41",
"@  c #3D4143",
"#  c #244652",
"$  c #244A5F",
"%  c #344953",
"&  c #3C4E55",
"*  c #275161",
"=  c #29566E",
"-  c #2B5D71",
";  c #355D71",
":  c #376574",
">  c #414243",
",  c #465156",
"<  c #4A5356",
"1  c #525658",
"2  c #465C66",
"3  c #5D6669",
"4  c #4D6B76",
"5  c #5A6E77",
"6  c #66696A",
"7  c #677479",
"8  c #73787A",
"9  c #266687",
"0  c #356F82",
"q  c #336C8A",
"w  c #2F718C",
"e  c #3B758D",
"r  c #387A8F",
"t  c #266E93",
"y  c #347495",
"u  c #387696",
"i  c #446C80",
"p  c #437383",
"a  c #42768D",
"s  c #5B7784",
"d  c #507B8F",
"f  c #39849C",
"g  c #368DB0",
"h  c #43879D",
"j  c #538192",
"k  c #778D95",
"l  c #5E91A9",
"z  c #4F98BC",
"x  c #5897B3",
"c  c #579DB6",
"v  c #7A99A3",
"b  c #759FAE",
"n  c #7E9EAE",
"m  c #2E94CA",
"M  c #3C9EC6",
"N  c #2C9AD3",
"B  c #269DDC",
"V  c #299EDC",
"C  c #2CA3DE",
"Z  c #33A5DF",
"A  c #39A6DF",
"S  c #3BABDD",
"D  c #2FA9E0",
"F  c #32ACE2",
"G  c #3BADE1",
"H  c #36B3E4",
"J  c #3AB4E5",
"K  c #3CB9E7",
"L  c #3EBDE8",
"P  c #40A1C0",
"I  c #54A9CB",
"U  c #4FA6D0",
"Y  c #44A6D8",
"T  c #42AEDB",
"R  c #5CAED3",
"E  c #50B5D7",
"W  c #56B4DD",
"Q  c #6DA6C1",
"!  c #6DB4D5",
"~  c #6CBADF",
"^  c #78BBD4",
"/  c #41ABE0",
"(  c #4BAEE2",
")  c #41B6E5",
"_  c #4BB4E4",
"`  c #43B9E7",
"'  c #4CBBE5",
"]  c #42BEE9",
"[  c #4DBEE8",
"{  c #53B3E4",
"}  c #5BB6E5",
"|  c #54BBE4",
" . c #54BFE9",
".. c #5DBEE8",
"X. c #63BDE7",
"o. c #6ABDE7",
"O. c #76BFE1",
"+. c #43C2EA",
"@. c #4CC4EA",
"#. c #56C3EA",
"$. c #5DC2EA",
"%. c #56C9EC",
"&. c #5CCBED",
"*. c #63C3EA",
"=. c #69C6EB",
"-. c #63CAED",
";. c #6DCAED",
":. c #7AC7E4",
">. c #70C5EB",
",. c #7BC5EA",
"<. c #72CAED",
"1. c #7BCEEE",
"2. c #72D2EF",
"3. c #74D3F0",
"4. c #7BD4F0",
"5. c #819297",
"6. c #889297",
"7. c #8C9698",
"8. c #899DA5",
"9. c #86A4B0",
"0. c #91AAB2",
"q. c #A2B0B4",
"w. c #A1B4BE",
"e. c #87B0C4",
"r. c #8FC9DD",
"t. c #9CC6DC",
"y. c #ADC3CB",
"u. c #B2C6CD",
"i. c #AECCD7",
"p. c #B4CFD8",
"a. c #BCD2D9",
"s. c #8BCBE5",
"d. c #8CCCED",
"f. c #84D1EF",
"g. c #8AD3EF",
"h. c #95D1EE",
"j. c #9CD5ED",
"k. c #85D4F1",
"l. c #8BDAF2",
"z. c #99DBF3",
"x. c #ABD4E2",
"c. c #B4DEEC",
"v. c #A5D7F0",
"b. c #A1DCF3",
"n. c #ADDEF3",
"m. c #B5DEF3",
"M. c #9CE0F4",
"N. c #A6E3F6",
"B. c #B8E5F6",
"V. c #C3E4F6",
"C. c #C9E7F6",
"Z. c #C5ECF9",
"A. c #CEEDF9",
"S. c #D2F1FA",
/* pixels */
"                    o 7.u.S.S.S.S.a.7.@             ",
"                o q.A.N.l.4.2.2.3.l.N.Z.q.          ",
"              1 B.z.3.&.%.+.+.+.+.@.&.2.M.p.o       ",
"            1 c.k.&.+.+.+.+.+.+.+.+.+.+.&.l.i.      ",
"          o x.4.@.+.+.P r       $ f +.+.+.%.l.5.    ",
"          0.k.@.+.+.0               # @.+.+.&.j.o   ",
"        @ z.%.L +.h                   : +.+.+.4.7   ",
"        v 2.+.L E .                     I +.L -.v   ",
"        r.#.L @.p                       d @.L #.r.  ",
"      < f.] L | .                                   ",
"      k -.K ] c                                     ",
"      b #.K [ j                                     ",
"      ^  .K #.4       6 7.C.A.A.S.a.7.o             ",
"      :.` H #.&   > u.B.z.1.;.;.;.f.b.Z.7.          ",
"      <.K H $.+ 3 c.g.*.' ` J J J `  .;.b.y.o       ",
"    + ;.J H *.2 n.<.' J J H H H J H J J  .g.i.      ",
"    + *.H H  .~ =.) J g -       X w J H H | f.8.    ",
"    + *.G H ) ' ) S *               X M H H | z.@   ",
"    + ..F H H H ) #                   O T F H o.9.  ",
"    + $.F F F G e                       a J F ' s.  ",
"    + ..H D D ' .                       % ' F F >., ",
"    . ..D D F I                           W F F ..5 ",
"      X.Z D G x                           I F F | s ",
"      R F C ) l                           Q F C _ s ",
"      x F Z J Q                           ! G D _ s ",
"      d G C G O.                          ~ D D _ 2 ",
"      % _ C Z X.7                       , X.D V { . ",
"        U C C { e.                      n { D V z   ",
"        a Z V A ,.k                   < d./ V G i   ",
"        . Y C C ( h.7               @ t.{ D V U     ",
"          ; Z C Z { j.w.8       > 6.n.o.G B G ;     ",
"            q C V C { ,.v.V.C.C.m.d.} A V V u       ",
"              q C V D F ( } } } { Y D B V y         ",
"                $ g V B B B B B V V B m =           ",
"                    $ 9 N B B B C t 9               ",
"                                                    "
};
