/* XPM */
static char *__png[] = {
/* columns rows colors chars-per-pixel */
"26 36 135 2 ",
"   c black",
".  c #182529",
"X  c #26292A",
"o  c #27292A",
"O  c #253840",
"+  c #313D41",
"@  c #363E41",
"#  c #2C4953",
"$  c #354953",
"%  c #2D6273",
"&  c #3C6574",
"*  c #465155",
"=  c #4E5557",
"-  c #576368",
";  c #506E77",
":  c #5A6D76",
">  c #607078",
",  c #49788E",
"<  c #4E7A8E",
"1  c #527282",
"2  c #557B8F",
"3  c #447E91",
"4  c #46879D",
"5  c #55839B",
"6  c #738389",
"7  c #658392",
"8  c #638994",
"9  c #6E8894",
"0  c #718D96",
"q  c #788D95",
"w  c #788E96",
"e  c #4A8EA9",
"r  c #4A9BB5",
"t  c #5092B2",
"y  c #5693B2",
"u  c #519FBE",
"i  c #6C95AA",
"p  c #7EA0AE",
"a  c #76A2B7",
"s  c #269DDC",
"d  c #2BA1DD",
"f  c #2AA3DE",
"g  c #2DA6DF",
"h  c #30A2DD",
"j  c #31A4DE",
"k  c #35A4DE",
"l  c #39A6DF",
"z  c #2EA8E0",
"x  c #33A9E0",
"c  c #33AFE3",
"v  c #34AFE2",
"b  c #3BAAE1",
"n  c #3FA8E0",
"m  c #36B1E3",
"M  c #38B2E3",
"N  c #3DB3E4",
"B  c #38B4E4",
"V  c #3FB5E5",
"C  c #3CBAE7",
"Z  c #3EBAE7",
"A  c #3FBDE8",
"S  c #4EA1C0",
"D  c #53A0C7",
"F  c #50A3C7",
"G  c #4FACD2",
"H  c #4EB5D7",
"J  c #53B0DC",
"K  c #6FA5C0",
"L  c #6AA8CA",
"P  c #70B1C5",
"I  c #67AED3",
"U  c #42AAE0",
"Y  c #44ACE1",
"T  c #47AFE2",
"R  c #42B5E5",
"E  c #46B4E5",
"W  c #48B2E3",
"Q  c #4DB0E3",
"!  c #4AB6E5",
"~  c #41B8E6",
"^  c #4BBAE7",
"/  c #43BFE9",
"(  c #4BBEE8",
")  c #4DBDE8",
"_  c #53B3E4",
"`  c #58B6E4",
"'  c #53B9E5",
"]  c #57B8E6",
"[  c #52BCE7",
"{  c #52BEE8",
"}  c #5ABEE8",
"|  c #6ABEE7",
" . c #40C0E9",
".. c #41C2EA",
"X. c #42C3EA",
"o. c #44C1E9",
"O. c #49C2EA",
"+. c #48C3EB",
"@. c #4BC2EA",
"#. c #4FC4EB",
"$. c #4EC6EB",
"%. c #54C0E9",
"&. c #50C5EB",
"*. c #5AC7EB",
"=. c #5CC5EB",
"-. c #5BCBED",
";. c #5CCBED",
":. c #6BC1E8",
">. c #6BCCED",
",. c #7BC0E1",
"<. c #7DCCE6",
"1. c #73CBED",
"2. c #77CAEC",
"3. c #76CEEE",
"4. c #72D2F0",
"5. c #7CD5F1",
"6. c #8C9699",
"7. c #8A9EA5",
"8. c #81A8B9",
"9. c #89B9C9",
"0. c #9EC7D4",
"q. c #90C6DC",
"w. c #B8C9CD",
"e. c #A5CAD6",
"r. c #81C4E2",
"t. c #87C8E4",
"y. c #96D0E7",
"u. c #97D1E8",
"i. c #9ED5E9",
"p. c #85D4F0",
"a. c #85D8F2",
"s. c #9DDDF3",
"d. c #D0F0FA",
"f. c #D4F1FA",
"g. c #D6F2FB",
/* pixels */
"      w.f.d.d.d.d.d.d.d.d.d.d.d.d.d.d.d.d.d.d.d.g.6.",
"      9.5.4.4.4.4.4.4.4.4.4.4.4.4.4.4.4.4.4.4.4.a.0 ",
"      P $.X.X.X.X.X.X.X.X.X.X.X.X.X.X.X. ...X.X.-.8 ",
"      P $.X.X.X.X.X.X.X.X.X.A X. . .X.X.X.A X.X.-.; ",
"                                      % @.X.X.@.4   ",
"                                    + <.#.X.X.r     ",
"                                    e.4.@./ H .     ",
"                                  7.a.&.A @.#       ",
"                                = s.*.X./ 4         ",
"                                0.>./ Z J .         ",
"                              6 p.( Z o.&           ",
"                            X i.*.Z Z S             ",
"                            w 3.R C ( O             ",
"                          X u.%.B ~ e               ",
"                          w 1.~ B ) O               ",
"                        X y.{ B C e                 ",
"                        w 1.V m ^ O                 ",
"                        q.[ m M u                   ",
"                      - 2.N c R ;                   ",
"                      p } c v G                     ",
"                    X t.E c M ,                     ",
"                    > :.M z ! $                     ",
"                    8.' z c F                       ",
"                    r.N z b ,                       ",
"                  * :.x g W $                       ",
"                  9 ] z g J                         ",
"                  a W f j t                         ",
"                  ,.b d b <                         ",
"                @ | g d W $                         ",
"                : ` d d _                           ",
"                7 Q d d D                           ",
"                i Y s j y                           ",
"                K n s l 5                           ",
"                L k s n 2                           ",
"                I h s U 1                           ",
"                                                    "
};
