/* XPM */
static char *__png[] = {
/* columns rows colors chars-per-pixel */
"26 36 161 2 ",
"   c black",
".  c #132328",
"X  c #1D2529",
"o  c #1A323D",
"O  c #212729",
"+  c #25292A",
"@  c #282A2A",
"#  c #22353E",
"$  c #223840",
"%  c #3A4042",
"&  c #294753",
"*  c #354953",
"=  c #254E61",
"-  c #375462",
";  c #315A6F",
":  c #2A5F7C",
">  c #2F6273",
",  c #2C637D",
"<  c #404243",
"1  c #455156",
"2  c #535758",
"3  c #455A65",
"4  c #476976",
"5  c #616769",
"6  c #66696A",
"7  c #6C7679",
"8  c #70787A",
"9  c #246587",
"0  c #296788",
"q  c #34728C",
"w  c #3E758D",
"e  c #367A8F",
"r  c #307998",
"t  c #2C7FAB",
"y  c #487383",
"u  c #4F7A8F",
"i  c #567583",
"p  c #5B7784",
"a  c #547D90",
"s  c #657C86",
"d  c #2A86B4",
"f  c #348AB7",
"g  c #3E98B5",
"h  c #3593BB",
"j  c #3998BB",
"k  c #47819A",
"l  c #5F8191",
"z  c #628D9F",
"x  c #728994",
"c  c #788E96",
"v  c #7B9097",
"b  c #5E98AB",
"n  c #4C8FB0",
"m  c #4896B6",
"M  c #5895B2",
"N  c #689BAD",
"B  c #78A1AF",
"V  c #6DA5B9",
"C  c #79A5B8",
"Z  c #74A8BA",
"A  c #3C94C2",
"S  c #2E9BD4",
"D  c #269DDC",
"F  c #299FDC",
"G  c #3AA4CF",
"H  c #2BA3DE",
"J  c #39A1D6",
"K  c #3EAAD6",
"L  c #32A4DE",
"P  c #39A7DF",
"I  c #3EB0DB",
"U  c #2FA9E0",
"Y  c #34ABE1",
"T  c #3BACE2",
"R  c #36B1E3",
"E  c #3BB3E5",
"W  c #3CB9E7",
"Q  c #3EBDE8",
"!  c #48ABCB",
"~  c #55A6C2",
"^  c #5EAFCD",
"/  c #49AFDB",
"(  c #5EAED3",
")  c #44B2D6",
"_  c #57B4D6",
"`  c #69B4D6",
"'  c #7BBAD0",
"]  c #7CBAD8",
"[  c #44ACE1",
"{  c #48AFE2",
"}  c #43B4E4",
"|  c #4BB4E4",
" . c #41B8E6",
".. c #4ABAE7",
"X. c #43BDE8",
"o. c #4CBDE8",
"O. c #52B3E4",
"+. c #5BB6E5",
"@. c #50BBE7",
"#. c #5CB9E6",
"$. c #54BEE8",
"%. c #65BCE7",
"&. c #6CBEE7",
"*. c #6DBFE8",
"=. c #42C2EA",
"-. c #4CC3EA",
";. c #53C5EB",
":. c #5DC3EA",
">. c #5BC9EC",
",. c #64C4EA",
"<. c #69C7EB",
"1. c #66C9ED",
"2. c #6CCCED",
"3. c #72C4EA",
"4. c #73C9ED",
"5. c #7CCDEE",
"6. c #6CD0EF",
"7. c #73D1EF",
"8. c #7ED1EF",
"9. c #73D3F0",
"0. c #7AD4F1",
"q. c #839097",
"w. c #889297",
"e. c #8C9598",
"r. c #869CA4",
"t. c #81A3B0",
"y. c #8FA6B0",
"u. c #9AACB3",
"i. c #A3B0B4",
"p. c #8EC2D3",
"a. c #9CC5D4",
"s. c #B3C7CD",
"d. c #A0C1D3",
"f. c #ABCDD7",
"g. c #B4CFD8",
"h. c #BAD2D9",
"j. c #8FCAE4",
"k. c #89CEEE",
"l. c #91CFEE",
"z. c #86D0EE",
"x. c #95D0EE",
"c. c #83D6F2",
"v. c #8DD5F1",
"b. c #8ADAF2",
"n. c #9FDDF3",
"m. c #AFD2E1",
"M. c #A7D5E9",
"N. c #A9DBEB",
"B. c #B8D8E6",
"V. c #A1DDF3",
"C. c #B4DEF3",
"Z. c #9EE0F5",
"A. c #A7E3F6",
"S. c #AFE3F5",
"D. c #BCEAF8",
"F. c #C5E5F6",
"G. c #C9E7F6",
"H. c #C1E8F7",
"J. c #C7ECF9",
"K. c #CDECF8",
"L. c #D1F0FA",
/* pixels */
"                  @ e.s.L.L.L.L.K.e.6               ",
"                i.J.A.b.0.0.9.9.0.Z.D.h.2           ",
"            < g.Z.9.>.;.=.=.=.=.=.>.6.b.D.8         ",
"          @ f.b.>.=.=.=.=.=.=.=.=.=.=.;.9.S.8       ",
"          r.b.>.=.=.) e .       > g -.=.-.6.N.+     ",
"        + n.>.=.=.! .               e =.=.-.8.v     ",
"        c 7.=.Q -.$                   m =.=.>.p.    ",
"        B >.Q =.~                     4 -.Q =.c.+   ",
"        Z ;.Q -.b                     X >.Q X.2.1   ",
"        V -.W -.N                     O 1.Q Q 1.1   ",
"        z $.W -.'                     1 <.W Q 1.X   ",
"        4 ;.W X.8.%                   t.:.W W ^     ",
"          _ W W ,.a.+               7 b.-.E X.y     ",
"          & X.E ..0.m.e.        6 u.V.,.W E m       ",
"            & K W o.4.n.H.K.K.J.S.v.:. .Q m         ",
"                q I  .$.,.<.<.,.:... .j >           ",
"              s ` ..R R R R R R R R W $.z +         ",
"          < g.n.<. .R R R R R R R R E @.v.B.5       ",
"        @ m.z.$.E R h q         = r E T ..4.S.5     ",
"        y.5.} R E ,                 o G Y E ,.M.+   ",
"      % x.| Y R w                     o ) Y E 3.r.  ",
"      x ,.Y U /                         w T Y | j.  ",
"      C | Y T k                         $ | L R 3.1 ",
"      ] E H } a                           O.U U #.s ",
"      ` Y U | i                           ( U U | p ",
"      ` P H } l                           %.U F | i ",
"      M L H { z                         + %.U U | 3 ",
"      u T H [ ]                         x +.F F O.X ",
"      * | U U &.c                     @ j.[ F U n   ",
"        m F F { l.q.                @ d.%.U F T -   ",
"        # J F L O.l.m.e.<       2 w.C.3.T D U k     ",
"          ; L F L { *.x.C.F.G.F.C.k.%.P F D A       ",
"            = L D D L [ O.+.+.+.O./ F D D f .       ",
"              o t F D D F D D F D D D S :           ",
"                  o 0 d D D D D H 9 ,               ",
"                                                    "
};
