/* XPM */
static char *__png[] = {
/* columns rows colors chars-per-pixel */
"26 36 159 2 ",
"   c black",
".  c #162428",
"X  c #1B2428",
"o  c #1C373F",
"O  c #22272A",
"+  c #26292A",
"@  c #292A2B",
"#  c #24373F",
"$  c #313D41",
"%  c #244A5F",
"&  c #3A4D55",
"*  c #295061",
"=  c #29566E",
"-  c #345864",
";  c #2B5B70",
":  c #345C70",
">  c #2F6479",
",  c #33687F",
"<  c #414343",
"1  c #424F55",
"2  c #485256",
"3  c #525658",
"4  c #445B65",
"5  c #466774",
"6  c #5B6F77",
"7  c #5C7078",
"8  c #65686A",
"9  c #71777A",
"0  c #73787A",
"q  c #276687",
"w  c #2C6988",
"e  c #366F82",
"r  c #326D8A",
"t  c #367A8F",
"y  c #2C7696",
"u  c #2C7897",
"i  c #27769F",
"p  c #42748C",
"a  c #537784",
"s  c #5B7985",
"d  c #6C7E86",
"f  c #2F87AD",
"g  c #3D85A5",
"h  c #3E98B5",
"j  c #3693BA",
"k  c #538091",
"l  c #5C8192",
"z  c #528B9E",
"x  c #6E8288",
"c  c #628593",
"v  c #698894",
"b  c #608C9F",
"n  c #7A8E96",
"m  c #4E9CBE",
"M  c #5A99B3",
"N  c #519FBE",
"B  c #6797AB",
"V  c #6D9BAD",
"C  c #7498A7",
"Z  c #77A7B9",
"A  c #2E8EC0",
"S  c #2C93C9",
"D  c #2F9BD4",
"F  c #269DDC",
"G  c #299FDC",
"H  c #38A0CF",
"J  c #2CA2DD",
"K  c #2FA8DF",
"L  c #33A6DF",
"P  c #38A7DC",
"I  c #33A8D9",
"U  c #2FAAE0",
"Y  c #32ACE1",
"T  c #3BACE1",
"R  c #36B2E4",
"E  c #3AB3E4",
"W  c #3BB9E7",
"Q  c #3EBDE8",
"!  c #44A1C0",
"~  c #51A6CF",
"^  c #43A6D8",
"/  c #4BABDA",
"(  c #57ABD2",
")  c #4CB4D6",
"_  c #52B5D7",
"`  c #58B7D7",
"'  c #67ADCB",
"]  c #64B7D8",
"[  c #7BBAD1",
"{  c #40ABE1",
"}  c #4BAFE2",
"|  c #45B6E5",
" . c #45BAE5",
".. c #4CBAE6",
"X. c #43BEE8",
"o. c #50B5E4",
"O. c #5BB6E5",
"+. c #52BAE6",
"@. c #52BEE8",
"#. c #5BBEE8",
"$. c #61BBE7",
"%. c #6ABEE8",
"&. c #71BEE1",
"*. c #43C2EA",
"=. c #4CC4EB",
"-. c #54C3EB",
";. c #5BC4EB",
":. c #54C9EC",
">. c #5DCAED",
",. c #63C4EA",
"<. c #6BC3EA",
"1. c #65C8EC",
"2. c #6EC9EC",
"3. c #7AC9E4",
"4. c #7BC5EA",
"5. c #76CBED",
"6. c #73D2EF",
"7. c #74D2F0",
"8. c #7AD4F0",
"9. c #819297",
"0. c #8D9699",
"q. c #849BA4",
"w. c #8E9EA5",
"e. c #939FA5",
"r. c #89A5B0",
"t. c #81ADBC",
"y. c #9EB3BD",
"u. c #87B0C4",
"i. c #9DBAC8",
"p. c #ABBCC1",
"a. c #90C2DA",
"s. c #AECCD7",
"d. c #B0CBD6",
"f. c #BBD2D9",
"g. c #8ACDE6",
"h. c #85C8E8",
"j. c #90CEED",
"k. c #97D5E9",
"l. c #9DD7EA",
"z. c #83D7F1",
"x. c #8BD9F2",
"c. c #93D5F0",
"v. c #93DDF3",
"b. c #9FD9F1",
"n. c #ABD4E2",
"m. c #B4DCE8",
"M. c #A5D7F0",
"N. c #ACDAF2",
"B. c #BFE3EE",
"V. c #A5E2F5",
"C. c #ACE4F6",
"Z. c #BDE4F5",
"A. c #CFE4EE",
"S. c #C1E3F5",
"D. c #CBE9F7",
"F. c #C3ECF9",
"G. c #CCECF9",
"H. c #D3ECF8",
"J. c #D2F1FA",
/* pixels */
"                  < 0.f.J.J.J.J.y.0.                ",
"              @ d.F.V.z.8.6.6.8.v.C.G.0.            ",
"            3 B.v.6.>.=.*.*.*.*.:.>.8.V.f.@         ",
"          2 B.8.:.*.*.*.*.*.*.*.*.*.=.>.x.m.@       ",
"        @ n.8.=.*.*. .t o       > h *.*.=.z.s.      ",
"        q.z.=.*.*.! .               e *.*.:.x.9.    ",
"      + k.;.*.*.) .                   k *.*.>.l.@   ",
"      n 7.*.Q =.-                       _ Q *.6.x   ",
"      t.;.X.X.`                         z *.X.;.t.  ",
"      [ =.X.X.z                         5 -.Q =.g.  ",
"      3.X.W -.a                         & ;.W Q 6.2 ",
"      5.W W -.s                         # 1.W W 1.7 ",
"      2.Q W -.s                         & 1.W W ;.v ",
"      ] W W -.c                         6 ,.E W -.c ",
"      M W W +.Z                         C @.W E @.c ",
"      k  .R  .h.+                     @ g...R E @.V ",
"      & #.R W <.r.                    q.5.R R R ..V ",
"        N R Y ..c.9.                e.c.+.R R R ..B ",
"        $ W Y R #.c.s.0.        0.s.c.;.R I Y R | b ",
"          , W Y R ..5.M.Z.G.G.S.b.4.+.E u j R Y ..s ",
"            , T Y Y E +.#.%.,.#...E E g   m E Y ..l ",
"              * H Y Y Y Y U U Y K P ;     ' T U ..a ",
"                  , y Y Y Y Y f r         &.T U ..4 ",
"                                        O <.Y K #.X ",
"                                        6 O.U U (   ",
"                                        C o.U U M   ",
"      9 H.D.D.A.                        h.{ G T ,   ",
"      1 4.$.$.h.9                     d %.U U / X   ",
"        ~ J J o.u.                    a.} G P p     ",
"        p Y G T &.n               @ p.%.U J ^ X     ",
"        X ^ G G } j.i.0       8 w.Z.4.T G P :       ",
"          : L G L o.&.M.S.D.S.N.h.O.T J L r         ",
"            r L F G T } O.O.O.} T G G J r           ",
"              = D F F F F F F F F G A %             ",
"                  w i G F F F S q %                 ",
"                                                    "
};
