/* XPM */
static char *_0_png[] = {
/* columns rows colors chars-per-pixel */
"262 22 67 1 ",
"  c #282814",
". c #26271B",
"X c #343410",
"o c #393A10",
"O c #3A3B10",
"+ c #212221",
"@ c #272822",
"# c #272823",
"$ c #27292D",
"% c #393C21",
"& c #4B4D1D",
"* c #555918",
"= c #595A18",
"- c #7A7F0F",
"; c #646811",
": c #6D6E1D",
"> c #424520",
", c #7D810C",
"< c #7E820C",
"1 c #7F8023",
"2 c #85890D",
"3 c #8B8E12",
"4 c #8E9114",
"5 c #919417",
"6 c #949719",
"7 c #979A1C",
"8 c #9CA207",
"9 c #9CA008",
"0 c #A1A707",
"q c #A4AA05",
"w c #A6AC07",
"e c #A9AE09",
"r c #A8AD0C",
"t c #ACB10C",
"y c #AEB30E",
"u c #AFB40E",
"i c #B2B711",
"p c #B6BA14",
"a c #B9BE18",
"s c #888925",
"d c #9D9F22",
"f c #9B9D26",
"g c #A0A224",
"h c #A2A42C",
"j c #ABAD2F",
"k c #ACAE2F",
"l c #AEB02E",
"z c #B0B22F",
"x c #BDC21B",
"c c #C1C51F",
"v c #C5C922",
"b c #C9CD26",
"n c #CDD029",
"m c #D1D42D",
"M c #CECF35",
"N c #D5D830",
"B c #D7DA33",
"V c #D6D935",
"C c #D8DB33",
"Z c #DBDE36",
"A c #D2D438",
"S c #DADD39",
"D c #DFE139",
"F c #DFE13C",
"G c #E1E43B",
"H c #E3E53D",
"J c #E4E63D",
/* pixels */
"$$$$$$$$$$$$$$$$$$$$$$$$$$$$$$$$$$$$$$$$$$$$$$$$$$$$$$$$$$$+ XooOOOOOOOOOOOOOOOOOOOOOOOOOOOOOOOOOOOOOOOOOOOOOOOOOOOOOOoooOOOOOOoOOOOOOOOOOOOOOOOOoOOOOOOOOOOOOOOOOOOOOOOOOOOoOOOOOOOOOOOOOOOOOOOOOOOOOOOOOO.+$$$$$$$$$$$$$$$$$$$$$$$$$$$$$$$$$$$$$$$$$$$$$$$$$$$$$$$$$",
"$$$$$$$$$$$$$$$$$$$$$$$$$$$$$$$$$$$$$$$$$$$$$$$$$$$$$$$$$$.=shkkkkkkkkkkkkkkkkkkkkkkkkkkkkkkkkkkkkkkkkkkkkkkkkkklklkkkzzzkkzlllkkllllkkkzzkkkkzzkkkkkzkkkkkzkkkkzzllkllzzkklkzkkkkkzkkkkzzkkkklkklkkkzkkkkhs*.$$$$$$$$$$$$$$$$$$$$$$$$$$$$$$$$$$$$$$$$$$$$$$$$$$$$$$$$",
"$$$$$$$$$$$$$$$$$$$$$$$$$$$$$$$$$$$$$$$$$$$$$$$$$$$$$$$$$#:zAFHJJJJJJJJJJJJJJJJJJJJJJJJJJJJJJJJJJJJJJJJJJJJJJJJJJJDDGJJJJJGJJJJDFGJJJJGGJJGFGJJJJJGGJJGGGJJJJJJJJJFDGJJJJJFJJJGGGJJJJJJJJJGZJJJJJJFJJJGGGJFAl:@$$$$$$$$$$$$$$$$$$$$$$$$$$$$$$$$$$$$$$$$$$$$$$$$$$$$$$$",
"$$$$$$$$$$$$$$$$$$$$$$$$$$$$$$$$$$$$$$$$$$$$$$$$$$$$$$$$$&lSGGGGGGGGGGGGGGGGGGGGGGGGGGGGGGGGGGGGGGGGGGGGGGGGGGGGDJDDFJDDFGSGGGGDGGGGGGGGDJDDFGGGGGGFGGGDGGGGGGFFFDDDFFFFGFJFGGGDGGGGGGFFDJDGGZGJGGGGGGGDFGGGFl&$$$$$$$$$$$$$$$$$$$$$$$$$$$$$$$$$$$$$$$$$$$$$$$$$$$$$$$",
"$$$$$$$$$$$$$$$$$$$$$$$$$$$$$$$$$$$$$$$$$$$$$$$$$$$$$$$$$-MDDDDDGDDDDGZGDDGDDDGDDDDGDDDDGDDDDDGGDDGDDDDDDDDGDDDDDDDDDDDDFFDDDDDDDDDDFDDDDDDDDFDDFDDDDDDDDDDDDDDDDDDDDDDDDDDDDDDDDDDFDDDDDDDGDGDDFDDDDDDDDDFFDM1$$$$$$$$$$$$$$$$$$$$$$$$$$$$$$$$$$$$$$$$$$$$$$$$$$$$$$$",
"$$$$$$$$$$$$$$$$$$$$$$$$$$$$$$$$$$$$$$$$$$$$$$$$$$$$$$$$$fVZZZZZZZZZZZZZZZZZZZZZZZZZZZZZZDZZZZZZZZZZZZZZZZZZZZZZNDDDVDDDDFDGGmDGDCDCFDCDCDDBDBDDDDCDCDCDZZZDDDZZDDNDDBDFDDCDCDCDZZZCDDDCDGDmDNDGDDCGCDCDCCDFDNd$$$$$$$$$$$$$$$$$$$$$$$$$$$$$$$$$$$$$$$$$$$$$$$$$$$$$$$",
"$$$$$$$$$$$$$$$$$$$$$$$$$$$$$$$$$$$$$$$$$$$$$$$$$$$$$$$$$hNZCCCCCCCZCCCCCCCCCCCCCCCCCZCCZNNZNNZNNCCCNZNZNZZNNZNZNDGNNCCCDCCCNNGNNCCCCCCCDNFCmNDNCCCCCCCCNCCCCCNCFNBBmBBBCCCCCCCCCCCCCCCCCCGNNNCCCCCCCCCCCCCCCCg$$$$$$$$$$$$$$$$$$$$$$$$$$$$$$$$$$$$$$$$$$$$$$$$$$$$$$$",
"$$$$$$$$$$$$$$$$$$$$$$$$$$$$$$$$$$$$$$$$$$$$$$$$$$$$$$$$$hNNNNNNNCmmCmNNmCmCmNNNNmNNNNNmNNNNNNNNNNNNNNNNNNNNNNNmNNmNNNNNmmNNNNmmNNNNNNNNNmmNNNNNNNNNNNNNNNNNNNNNNNNNNNBBNNNNNNNNNNNNNNNNNNnNNNNCmNNNmBNNNmNNNmg$$$$$$$$$$$$$$$$$$$$$$$$$$$$$$$$$$$$$$$$$$$$$$$$$$$$$$$",
"$$$$$$$$$$$$$$$$$$$$$$$$$$$$$$$$$$$$$$$$$$$$$$$$$$$$$$$$$fmmmmmmmmmmmmmmmmmmmmmmmmmmmmmmmmmmmmmmmmmmmmmmmmmmmmmmmmmmmmmmmmmNmmmmmmmmmmmmmmmmMmmmmmmmmmmmmmmmmmmmmmmmmmmmmmmmmmmmmmmmmmmmmmmmmmmmmmNbmmmnmmmmmmg$$$$$$$$$$$$$$$$$$$$$$$$$$$$$$$$$$$$$$$$$$$$$$$$$$$$$$$",
"$$$$$$$$$$$$$$$$$$$$$$$$$$$$$$$$$$$$$$$$$$$$$$$$$$$$$$$$$dnnnnnnnnnnnnnnnnnnnnnnnnnnnnnnnnnnnnnnnnnnnnnnnnnnnnnnnnnnnnnnnnnnnnnnnnnnnnnnnnnnnbnnnnnnnnnnnnnnnnnnnnnnnnnnnnnnnnnnbnnnnnnnnnnnnnnnnnnmmbmnnnnnnn7$$$$$$$$$$$$$$$$$$$$$$$$$$$$$$$$$$$$$$$$$$$$$$$$$$$$$$$",
"$$$$$$$$$$$$$$$$$$$$$$$$$$$$$$$$$$$$$$$$$$$$$$$$$$$$$$$$$7bbbbbbbbbbbbbbbbbbbbbbbbbbbbbbbbbbnbbbbbbbbbnbbbbbbbbbbbbbbbbbbbnbbbbbbbbbbbbbbbbbbbbbbbbbbbbbbbbbbbbbbbbbbbbbbbbbbbbbbnbbnbncbnbbnbbbbbbbbbbbbbbbbb7$$$$$$$$$$$$$$$$$$$$$$$$$$$$$$$$$$$$$$$$$$$$$$$$$$$$$$$",
"$$$$$$$$$$$$$$$$$$$$$$$$$$$$$$$$$$$$$$$$$$$$$$$$$$$$$$$$$6vvvvvvvvvvvvvvvvvvvvvvvvvvvvvcvvvvcbccbcbcbccccvvvvvvvvvvvvvvvccccbcbcvvvvvvvvvvvvvvvvvvvvvvvvvvvvvvvvvvvvvvvvvvvvvvvvccbcnccccbccvvccvvvvvcvvvvvvvv6$$$$$$$$$$$$$$$$$$$$$$$$$$$$$$$$$$$$$$$$$$$$$$$$$$$$$$$",
"$$$$$$$$$$$$$$$$$$$$$$$$$$$$$$$$$$$$$$$$$$$$$$$$$$$$$$$$$5ccccccccccccccccccccccccccccccccccccccccccccccccccccccxccccccxccccccccxvxxxxxcccxcccxcxvccxvxvcxxxxvccccccccccccccccccccxxxxxcccxcccxcccccxcccxxxxcc5$$$$$$$$$$$$$$$$$$$$$$$$$$$$$$$$$$$$$$$$$$$$$$$$$$$$$$$",
"$$$$$$$$$$$$$$$$$$$$$$$$$$$$$$$$$$$$$$$$$$$$$$$$$$$$$$$$$3xxxxxxxxxxxxxxxxxxxxxxxcxxxxxxxcxxxxxxcxxxxxxxxxxccccaxxxxxxxxccxxxxxxxxxxxxxxxxxxxxxxxxxxxxxxxxxxxxxxxxxxxxxxxxxxxxxxccxxxxxxccxxxxxxcxxxxxxxxxxcxx4$$$$$$$$$$$$$$$$$$$$$$$$$$$$$$$$$$$$$$$$$$$$$$$$$$$$$$$",
"$$$$$$$$$$$$$$$$$$$$$$$$$$$$$$$$$$$$$$$$$$$$$$$$$$$$$$$$$3aaaaaaaaaaaaaaaaaaaaaaaaaaaaaaaaaaaaaapxxpaaaxppaaaapaxppxxpxppxxxxppxxxxxxxxxxxxxxxpxaxxpxiixxxxxuxxxxpxxxpxpxxxxxiixccaxxxucxxuxxxxcxxxpxxxxxxcaca3$$$$$$$$$$$$$$$$$$$$$$$$$$$$$$$$$$$$$$$$$$$$$$$$$$$$$$$",
"$$$$$$$$$$$$$$$$$$$$$$$$$$$$$$$$$$$$$$$$$$$$$$$$$$$$$$$$$3pppppppppppppppppppppppppppppppppppppppppppppppppppppppppppppppppippppxuuxiiiiipiiipppipppixixiiuxuxuxpiippipiipiiixixauucucuiucuxupuiippiiiuixuiuaa2$$$$$$$$$$$$$$$$$$$$$$$$$$$$$$$$$$$$$$$$$$$$$$$$$$$$$$$",
"$$$$$$$$$$$$$$$$$$$$$$$$$$$$$$$$$$$$$$$$$$$$$$$$$$$$$$$$$2iiiiiiiiiiiiiiiiiiiiiiiiiiiiiiiiiiiiiiiiiiiiiiiiiiiiiiiiiiiiiiiiiiiiiiiiiiiiiiiiiiiiiiiiiiiiiiiiiiiiiiiiiiiiiiiiiiiiiiiiiiiiiiiiiiiiiiiipiiiiiiiiiii2$$$$$$$$$$$$$$$$$$$$$$$$$$$$$$$$$$$$$$$$$$$$$$$$$$$$$$$",
"$$$$$$$$$$$$$$$$$$$$$$$$$$$$$$$$$$$$$$$$$$$$$$$$$$$$$$$$$-yiyyiyuuuuuuuuuuuuuuuuuuuuuuuuuuuuuuyyuuuuuuuuuuuuuuuuuuuuuuuuuuuuuuuuuuuuuuuuuuuuuuuuuyyyuuuuuuuuuuuuuuuuuuuuuuuuuuuuuuuuuuuuuuuuuuuuuuuuuuuuuuuuuu,$$$$$$$$$$$$$$$$$$$$$$$$$$$$$$$$$$$$$$$$$$$$$$$$$$$$$$$",
"$$$$$$$$$$$$$$$$$$$$$$$$$$$$$$$$$$$$$$$$$$$$$$$$$$$$$$$$$;ruttryttttttttttttttttttttttttttttttytttttttttttttttttttttttttttttttttttttttttttttttttyryettyrttttttttttttttttttttttttttttttttttttttttettrtttttttyte;$$$$$$$$$$$$$$$$$$$$$$$$$$$$$$$$$$$$$$$$$$$$$$$$$$$$$$$",
"$$$$$$$$$$$$$$$$$$$$$$$$$$$$$$$$$$$$$$$$$$$$$$$$$$$$$$$$$o9reeeeeeeeeeeeeeeeeeeeeeeeeeeeeeeeeeeeeeeeeeeeeeeeeeeeeeeeeeeeeeeeeeeeeeeeeeeeeeeeeeeeeereeeeeeeeeeeeeeeeeeeeeeeeeeeeeeeeeeeeeeeeeeeeeeweeeeeeeeewe8%$$$$$$$$$$$$$$$$$$$$$$$$$$$$$$$$$$$$$$$$$$$$$$$$$$$$$$$",
"$$$$$$$$$$$$$$$$$$$$$$$$$$$$$$$$$$$$$$$$$$$$$$$$$$$$$$$$$$*0qwwwwwwwwwwwwwwwwwwwwwwwwwwwwwwwwwwwwwwwqwwwwwwwwwwwwwwwwwwwwwwwwwwwwwwwwwwwwwwwwwwwwwwwwwwwwwwwwwwwwwwwwwwwwwwwwwwwwwwwwwwwwwwwwwwwwwwwwwwwwwwq8*$$$$$$$$$$$$$$$$$$$$$$$$$$$$$$$$$$$$$$$$$$$$$$$$$$$$$$$$",
"$$$$$$$$$$$$$$$$$$$$$$$$$$$$$$$$$$$$$$$$$$$$$$$$$$$$$$$$$$$>-9qqqqqqqqqqqqqqqqqqqqqqqqqqqqqqqqqqqqqqqqqqqqqqqqqqqqqqqqqqqqqqqqqqqqqqqqqqqqqqqqqqqqqqqqqqqqqqqqqqqqqqqqqqqqqqqqqqqqqqqqqqqqqqqqqqqqqqqqqqw09-&$$$$$$$$$$$$$$$$$$$$$$$$$$$$$$$$$$$$$$$$$$$$$$$$$$$$$$$$$"
};
