/* XPM */
static char *_1_png[] = {
/* columns rows colors chars-per-pixel */
"262 22 65 1 ",
"  c #281E14",
". c #26211B",
"X c #342310",
"o c #3B2610",
"O c #212121",
"+ c #272422",
"@ c #272423",
"# c #27292D",
"$ c #3A2F21",
"% c #4C351D",
"& c #5A3B18",
"* c #583D18",
"= c #433421",
"- c #7F500F",
"; c #674311",
": c #6E471D",
"> c #81500C",
", c #82500C",
"< c #89540D",
"1 c #8B560F",
"2 c #8E5812",
"3 c #945C17",
"4 c #975E19",
"5 c #9A611C",
"6 c #A16107",
"7 c #A76407",
"8 c #A96605",
"9 c #AA6605",
"0 c #AC6707",
"q c #A06108",
"w c #AE6909",
"e c #AD680C",
"r c #B16B0C",
"t c #B36E0E",
"y c #B46E0E",
"u c #B77011",
"i c #BA7314",
"p c #BE7618",
"a c #805423",
"s c #895925",
"d c #9D6526",
"f c #A26724",
"g c #A36926",
"h c #A46B2C",
"j c #AD712F",
"k c #AE712F",
"l c #B0722E",
"z c #C2781B",
"x c #C57B1F",
"c c #C97E22",
"v c #CD8126",
"b c #D08429",
"n c #D4872D",
"m c #CF8635",
"M c #D88A30",
"N c #DA8C33",
"B c #DB8D33",
"V c #D98C35",
"C c #DE8F36",
"Z c #D48938",
"A c #DD8F39",
"S c #E19139",
"D c #E4943B",
"F c #E1913C",
"G c #E6953D",
/* pixels */
"####################################################O XooooooooooooooooooooooooooooooooooooooooooooooooooooooooooooooooooooooooooooooooooooooooooooooooooooooooooooooooooooooooooooooooooooooooooooooooooooooooooX..##################################################",
"###################################################.&shkkkkkkkkjklklkkkkkkkkkkkkkkkkklkklklkkkjkjkkkkkkkkkkkkkkkkllklkkkjkkkklklkkkkkkkklkkkklklkkkkklklkkkkkkkkkllklkjjjjjlkjkkkkkkkkkkkkkkkkkkkkkkkkkkkkkkkkkkjhs&.#################################################",
"##################################################@:lZFGGGGGGGGGGGDDGGGGGGGGGGGGDGGGGGGGDGDDGGGGGGDGGGGDGGGGGGGGGGGDGGGGGGDGGGGGGGGGGGGGGGGDDDGGGGGGGGGDDGGGGGGGDGDDGGGGGGGGGGGDGGGGGGGGGGDDDGGGGGGGGGGGGGGGGGGGDFVk:@################################################",
"##################################################%lADDDGDDDDDDDDDDDDDDDDGSGDDDDGSGDDDDDDDDDGDGDDDDDDDDDDDDDDDDDDDDDGSGDDDDDDDDDDDDDDDDDDDDDDDDDDDDDDDDDDDDDDDDDDDDDGDDDDDDDDDDDDDDDDDDDDDDDDDDDDDDDDDDDDDDDDDDDDDDAj%################################################",
"##################################################amSSSSSSSSSSSSSSSSSSSSSSSSSSSSSSCDSSSSSSSSSSSSDSSSSSSSSSSSDCDCSSSSSSSSSSSSSSSSSSSSSSSSSSSSSSSSDSDCSSSSSSSSDCDCSSSSSSSSDSSSSSSSSSSSDSSSSSSSSSSSDSDSSSDCSSSSDDCDDCSSm-################################################",
"##################################################dVCCCCCCCCCCCCCCCCCCCSCCCCCCCCCCCCCCCCCCCCCCCCCCCCCCCCCCCCCCCCCCCCCCCCCCCCCCCCCCCCCCCCCCCCCCCCCCCCCCCCCCCCCCCCCCCCCCCBCCCCCCCCCCCCCCCCSBBSSBSBCCCCCBCCCCCCBCCCCCCCZd################################################",
"##################################################gNNNBBBBBBBBNNBBBBBBMBNBBBBBBBNBBBBBNBBBBBBBBBBBBBBBBBNNCNNCCNBBBBBBBBNNBBBBBBBBBBBNVNBBBBBBBBNNNBNCNNNNCNMCCNBBBBBBBBBBBBBBBBBBBBBBVBBBBBBBBBBBBBBBBBBBBBBNVNNBVVAg################################################",
"##################################################fMMMMMMMMMMMMMMMMMMMMMMMMMMMMMMMMMMMMMMMMMMMMMMMMMMMMMMMMMnMMMMMMMMMMMMMMMMMMMMMMMMMMMMMMMMMMMMMMMMMMMMMMMMMNnMMMMMMMMMMMMMMMMMMMMMMMMMMMMMMMMMMMMMMMMMMMMMMMMMMMMMg################################################",
"##################################################fnnnnnnnnnnnnnnnnnnnnnnnnnnnnnnnnnnnnnnnnnnnnnnnnnnnnnnnnnnnnnnnnnnnnnnnnnnnnnnnnnnnnnnnnnnnnnnnnnnnnnnnnnnnnnnnnnnnnnnnbbnnnbnnnnnnnnnnnnnnnnnnnnnnnnnnnnnnnnnnnnnd################################################",
"##################################################5bbbbbbbbbbbbbbbbbbbbbbbbbbbbbbbbbbvbbbbbbvvbbbbbvbbvvnvbvbbbbbbbbbbbbbbbbbbbbbbbbbbbbbbbbbbbbbbbbbbbbbbbbbbbbvvbbbbbvbbbvbbbvbbbbbvbbbbbbbvbbbbbvbbvvnvbvbbbbbvbbb5################################################",
"##################################################5vvvvvvvvvvvvvvvvvvvvvvvvvvvvvvvvvvvvvvvvvvvvvvvvvvvvvvvvvvvvvvvvvvvvvvvvvvvvvvvvvvvvvvvvvvvvvvvvvvvvvvvvvvvvvvvvvvvvvvvvvvvvvvvvvvvvvvvvvvvvvvvvvvvvvvvvvvvvvvvvvv5################################################",
"##################################################3vxvxvvxvxxvxvccccccccccccccccxvxvxvxvvxvvvxvvvvvzvvvvvxvxvxvvccccccccccccccccxvxvxvxvxvxvxvxvxvxvxvxvvxvxxvxvvzvvvzvvvvvxvvvvvzvvxvxvvzvvvzvvvvvzvvvvvxvxvxvvxvxxv5################################################",
"##################################################3vxxxxxxxxxxxxxxxxxxxxxxxxxxxxxxxxxxxxzzxxxxxxpxxxxxxxxxxxzzxxxxxxxxxxxxxxxxxxxxxxxxxxxxxxxxxxxxxxxxxxxxxxxxxxxxxxxxzvzzvzxxxxzxvpvpvxpvxxxxxxpxxxxxxxxxxxzxxxvpvvv5################################################",
"##################################################1zzzzzzzzzzzzzzzzzzzzzzzzzzzzzzzzzzzzzzzzzzzzzpzzzzzzzzzzzzzzzzzzzzzzzzzzzzzzzzzzzzzzzzzzzzzzzzzzzzzzzzzzzzzzzzzzzzzpzzzzpzzzzzpzzzpzzppzzzzzzpzzzzzzzzzzzpzzzzzizi2################################################",
"##################################################1ppppppppppppppppppppppzpppppzzppppppppppppppppppppppppppppppppppppppppppppppzzpppppppppppppppppppppppppppppppppppppzppzpppppzzpppppppppppppppppppppppppppppzpppppi2################################################",
"##################################################1iiiiiiiiiiiiiiiiiiiiiiiiupuuiypiiiiiiiiiiiiiiiiiiiiiiiiiiiiiiiiiiiiiiiiiiiiuiuiiiiiiiiiiiiiiiiiiiiiiiiiiiiiiiiiiiiiiiuiiupuuiuiiiiiiiiiiiiiiiiiiiiiiiiiiiiiiuiiiii2################################################",
"##################################################<uuuuuuuuuuuuuuuuuuuuuuuuuuuuuuuuuuuuuuuuuuuuuuuuuuuuuyiyiyiyiyiyiyiyiyiyiyuuuuuuuuuuuuuuuuuuuyuuuuuuuuuuuuuuuuuuuuuuuuuuuuuuuuuuuuuuuuuuuuuuuuuuuuuuuuuuuuuyiyiyuu<################################################",
"##################################################,yttttytttyyyyyyyyyyyyyyyyyyyyyyyyyyyyyyyyyyyyytyyyyyyytyyyyyyyyyyyyyyyyyyyyyyyyyyyyyyyyyyyyyyyyyyyyyyyyyyyyyyyyyyyyyyyyyyyyyyyyyyyyyyyyyyyyyyttyyyyyytttyyyttyyyyy,################################################",
"##################################################;wwttwtrrrrrrrrrrrrrrrrrrrrrrrrrrrrrrrrrrrrrrrrrrrrrrrrrtwrrrrrrrrrrrrrrrrrrrrrrrrrrrrrrrrrrrrrrrrrrrrrrrrrrrrrrrrrrrrrrrrrrrrrrrrrrrrrrrrrrrrrrrrrrrrrrrrtrrrrrrry;################################################",
"##################################################$6www0wwwwwwwwwwwwwwwwwwwwwwwwwwwwwwwwwwwwww0rwwwwwwwwwwwwwwwwwwwwwwwwwwwwwwwwwwwwwwwwwwwwwwww0r0rwwwwwwwwwwwwwwwwwwwwwwwwwwwwwwwwwwwwwwwwwwwwwwwwwwwwwwwwwwwwwwww6o################################################",
"###################################################*700000000000000000000000000000000000000000000000w00000000000000000000000000000000000000000000000009000000000000000000000000000000000000000000009000000000000www6*#################################################",
"####################################################%-q7888808889999999999999999999999999999088899999989999999999999999999999999999999999999999900999999999999999999999999999999999999999999999999990099999999996q-%##################################################"
};
