/* XPM */
static char *_2_png[] = {
/* columns rows colors chars-per-pixel */
"262 22 64 1 ",
"  c #1F1E25",
". c #1D1329",
"X c #1F1929",
"o c #221035",
"O c #25103A",
"+ c #25103B",
"@ c #2D1E3F",
"# c #22202B",
"$ c #23202B",
"% c #27292D",
"& c #321E47",
"* c #341C4E",
"= c #3A165B",
"- c #39185A",
"; c #401069",
": c #461D6E",
"> c #4D0B82",
", c #4D0C81",
"< c #510D89",
"1 c #530F8B",
"2 c #55128E",
"3 c #571491",
"4 c #591794",
"5 c #5B1997",
"6 c #5E1C9A",
"7 c #601F9C",
"8 c #512281",
"9 c #572589",
"0 c #62229F",
"q c #62269D",
"w c #5E07A2",
"e c #5D08A0",
"r c #6205AA",
"t c #6307AC",
"y c #6509AE",
"u c #670CB1",
"i c #6A0EB3",
"p c #6A0EB4",
"a c #6C11B7",
"s c #6F14BA",
"d c #7218BE",
"f c #6424A2",
"g c #6626A3",
"h c #682CA4",
"j c #6E2FAE",
"k c #6F2EB0",
"l c #712FB2",
"z c #741BC2",
"x c #771FC5",
"c c #7A22C9",
"v c #7D26CD",
"b c #8235CF",
"n c #8029D0",
"m c #832DD4",
"M c #8738D4",
"N c #8630D8",
"B c #8933DB",
"V c #8835D9",
"C c #8B36DE",
"Z c #8B39DD",
"A c #8D39E1",
"S c #8F3CE1",
"D c #903BE4",
"F c #923DE6",
/* pixels */
"%%%%%%%%%%%%%%%%%%%%%%%%%%%%%%%%%%%%%%%%%%%%% .o+++++++++++++++++++++++++++++++++++++++++++++++++++++++++++++++++++++++++++++++++++++++++++++++++++++++++++++++++++++++++++++++++++++++++++++++++++++++++++++++++++++++o. %%%%%%%%%%%%%%%%%%%%%%%%%%%%%%%%%%%%%%%%%%%%",
"%%%%%%%%%%%%%%%%%%%%%%%%%%%%%%%%%%%%%%%%%%%%X-9hjjjjjkjjjjjjjjjjkljjjjjljjjjlljjjjlljjjjjkjjjjjljjjjkkjjjjjkjjjjjljjjjjjjjjjjkjjjjjljjjjjkjjjjjkjjjjjkjjjjjkjjjjjljjjjjjjjjjjkjjjjjkjjjjjkjjjjjkjjjjjkjjjjjkjjjjjljjjjjh9- %%%%%%%%%%%%%%%%%%%%%%%%%%%%%%%%%%%%%%%%%%%",
"%%%%%%%%%%%%%%%%%%%%%%%%%%%%%%%%%%%%%%%%%%%$:lMDFDDFFFFDFFFFFFFFFFFFDDFFFFDDFFFDDDDDFFFFFFFDDFFFFFFFFFFFDFFFFFDFFFDDDFFFFFFFFFFDDFFFFFFFFFFDDFFFFFFFFFFFDFFFFFDFFFDDDFFFFFFFFFFDDFFFFFDFFFFDDFFFFFFFFFFDDFFFFFFFFFDDDFFFMl:#%%%%%%%%%%%%%%%%%%%%%%%%%%%%%%%%%%%%%%%%%%",
"%%%%%%%%%%%%%%%%%%%%%%%%%%%%%%%%%%%%%%%%%%%*jZDDAAFFDDDDDDDDDDDDDDDDDDDDDDDDDDDDDDDDDDDDDDDDDDDDDDDDDDDSDDDDDDDDDDDDDDDDDDDDDDDDDDDDDDDDDDDDDDDDDDDDDDDSDDDDDDDDDDDDDDDDDDDDDDDSDDDDDDDDDDDDDDDDDDDDDDDDDDDDDDDDDDDDDDDDDZk*%%%%%%%%%%%%%%%%%%%%%%%%%%%%%%%%%%%%%%%%%%",
"%%%%%%%%%%%%%%%%%%%%%%%%%%%%%%%%%%%%%%%%%%%8bAAAAAAAAAAAAAAAAAAADAAAAAAAAAAAAAAAAAAASAAAAAAAAAAASAAAAAAAAAAASAAAAAAAAAAASAAAAAAAAAAASAAAAAAAAAAASAAAAAAAAAAAAAAAAAAAAAAASAAAAAAAAAAASAAAAAAAAAAASAAAAAAAAAAASAAAAAAAAAAAAAb8%%%%%%%%%%%%%%%%%%%%%%%%%%%%%%%%%%%%%%%%%%",
"%%%%%%%%%%%%%%%%%%%%%%%%%%%%%%%%%%%%%%%%%%%qVCCCCZCCCCCCCCCCCCCCBAABBABACABABABACCCCCCCCCCCCCCCCCCCCCCCCCCCCACCCCCCCCCCCCZCCCCCCCCCCCCCCCCCCCCCCAZCACCCCCCCCACCCCCCCCCCCCCCCCCCCCCCCACCCCCCCCCCCCZCCCCCCCCCAZACCCCCCCCCCCCVq%%%%%%%%%%%%%%%%%%%%%%%%%%%%%%%%%%%%%%%%%%",
"%%%%%%%%%%%%%%%%%%%%%%%%%%%%%%%%%%%%%%%%%%%fBBBBCBBBBBBBBBBBBBVBBBBBBBBBVBBBBBBBBBBBBBVBBBBBBBBBVBBBBBBBBBBBBBNCBBBBBBCBBBBBBBBBBBBBBBVBBBBBBBBBNBBBBBBBBBBBBBBBBBBBBBBBCBBBBBBBBBBBBBBBBBBBBBBBBBBBBBBBBBBBBBNBBBBBBBBBBBBf%%%%%%%%%%%%%%%%%%%%%%%%%%%%%%%%%%%%%%%%%%",
"%%%%%%%%%%%%%%%%%%%%%%%%%%%%%%%%%%%%%%%%%%%fNNNNmCmBmBNNNNNNNNNNNNNNNNNNNNNNNNNNNNNNNNNNNNNNNNNNNNNNNNNNNNNNNNNNNNNNNNNNNNNNNNNNNNNNNNNNNNNNNNNNNNNNNNNNNNNNNNNNNNNNNNNNNNNNNNNNNNNNNNNNNNNNNNNNNNNNNNNNNNNNNNNNNNNNNNNNNNNf%%%%%%%%%%%%%%%%%%%%%%%%%%%%%%%%%%%%%%%%%%",
"%%%%%%%%%%%%%%%%%%%%%%%%%%%%%%%%%%%%%%%%%%%0mmmmmmmmmmmmmmmmmmmmNnNnNnNmmmmmmmmmmmmmmmmmmmmmmmmmmmmmmmmmmmmmmmmmmmmmmmmmmmmmmmmmmmmmmmmmmmmmmmmmmmmmmmmmmmmmmmmmmmmmmmmmmmmmmmmmmmmmmmmmmmmmmmmmmmmmmmmmmmmmmmmmmmmmmmmmmmnf%%%%%%%%%%%%%%%%%%%%%%%%%%%%%%%%%%%%%%%%%%",
"%%%%%%%%%%%%%%%%%%%%%%%%%%%%%%%%%%%%%%%%%%%7nnnnnnnnnnnnnnnnnnnnnnnnnnnnnnnnnnnnnnnnnnnnnnnnnnnnnnnnnnnvnvnnnnnnnvnnnnnnnnnnnnnvnnnnnnnnnnnnnnnnnnnnnnnnnnnnnnnnnnnnnnnnnnnnnnnnnnnnnnnnnnnnnnnnnnnnnnnnnvnnnnnnnnnnnnnnnnn7%%%%%%%%%%%%%%%%%%%%%%%%%%%%%%%%%%%%%%%%%%",
"%%%%%%%%%%%%%%%%%%%%%%%%%%%%%%%%%%%%%%%%%%%6vvvvvvvvvvvvvvvvvvvvnxnnnnnnvvnnvvnnvvvvvvvvvvvvvvvvvvvvvvvvvvvvvvvvvvvvvvvvvvvvvvvvvvvvvvvvvvvvvvvvvvvvvvvvvvvvvvvvvvvvvvvvvvvvvvvvvvvvvvvvvvvvvvvvvvvvvvvvvvvvvvvvvvvvvvvvvvv6%%%%%%%%%%%%%%%%%%%%%%%%%%%%%%%%%%%%%%%%%%",
"%%%%%%%%%%%%%%%%%%%%%%%%%%%%%%%%%%%%%%%%%%%5ccccccccccccccccccccnxxxxxxxvxxvxxxxccccccccccccccccccccccccccccccccccccccccccccccccccccccccccccccccccccccccccccccccccccccccccccccccccccccccccccccccccccccccccccccccccccccccccc4%%%%%%%%%%%%%%%%%%%%%%%%%%%%%%%%%%%%%%%%%%",
"%%%%%%%%%%%%%%%%%%%%%%%%%%%%%%%%%%%%%%%%%%%4xxxxxxxxxxxxxxxxxxxxxxxxxxxxxxxxxxxxxxxxxxxxxxxxxxxxcxxxxxxxxxxxcxxxxxxxxxxxcxxxxxxxxxxxxxxxxxxxxxxxxxxxxxxxxxxxxxxxxxxxxxxxxxxxxxxxxxxxxxxxxxxxxxxxxxxxxxxxxxxxxxxxxxxxxxxxxxx4%%%%%%%%%%%%%%%%%%%%%%%%%%%%%%%%%%%%%%%%%%",
"%%%%%%%%%%%%%%%%%%%%%%%%%%%%%%%%%%%%%%%%%%%3zzzzzzzzzzzzzzzzzzzzzzzzzzzzzzzzzzzzzzzzzzzzzzzzzzzzzzzzzzzzzzzzzzzzzzzzzzzzzzzzzzzzzzzzzzzzzzzzzzzzzzzzzzzzzzzzzzzzzzzzzzzzzzzzzzzzzzzzzzzzzzzzzzzzzzzzzzzzzzzzzzzzzzzzzzzzzzz3%%%%%%%%%%%%%%%%%%%%%%%%%%%%%%%%%%%%%%%%%%",
"%%%%%%%%%%%%%%%%%%%%%%%%%%%%%%%%%%%%%%%%%%%2ddddddddddddddddddddzsszzszszzzzzszxddddddddddddddddddddddddddddddddddddddddddddddddddddddddddddddddddddddddddddddddddddddddddddddddddddddddddddddddddddddddddzdszzsddddddddddd2%%%%%%%%%%%%%%%%%%%%%%%%%%%%%%%%%%%%%%%%%%",
"%%%%%%%%%%%%%%%%%%%%%%%%%%%%%%%%%%%%%%%%%%%1sssssssssssssssssssssssssssspsspsaaasssssssssssssssssssssssssssssssssssssssssssssssssssssssssssssssssssssssssssssssssssssssssssssssssssssssssssssssssssssssssssssssssssssssssss1%%%%%%%%%%%%%%%%%%%%%%%%%%%%%%%%%%%%%%%%%%",
"%%%%%%%%%%%%%%%%%%%%%%%%%%%%%%%%%%%%%%%%%%X<aaaaaaaasaaaaaaaaaaaaaaaaaaaaaaaaaaaaaaaaaaaaaaaaaaaaaaaaaaaaaaaaaaaaaaaaaaaaaaaaaaaaaaaaaaaaaaaaaaaaaaaaaaaaaaaaaaaaaaaaaaaaaaaaaaaaaaaaaaaaaaaaaaaaaaaaaaaaaaaaaaaaaaaaaaaaaa1%%%%%%%%%%%%%%%%%%%%%%%%%%%%%%%%%%%%%%%%%%",
"%%%%%%%%%%%%%%%%%%%%%%%%%%%%%%%%%%%%%%%%%%%:pppppppppppppppppppppppppppppppppppppppppppppppppiiiiipppppppppppppppppppppppppppppppppppppppppppppppppppppppppppppppppppppppppppppppppppppppppppppppppppppppppppppppppppppppii>%%%%%%%%%%%%%%%%%%%%%%%%%%%%%%%%%%%%%%%%%%",
"%%%%%%%%%%%%%%%%%%%%%%%%%%%%%%%%%%%%%%%%%%%;yuuuuuuuuuuuuuuuuuuuuuuuuuuuuuuuuuuuuuuuuuuuuuuuuuiiuuuuuuuuuuuuuuuuuuuuuuuuuuuuuuuuuuuuuuuuuuuuuuuuuuuuuuuuuuuuuuuuuuuuuuuuuuuuuuuuuuuuuuuuuuuuuuuuiyuuuuuuuuuuuuuuuuuuuuuuuuy;%%%%%%%%%%%%%%%%%%%%%%%%%%%%%%%%%%%%%%%%%%",
"%%%%%%%%%%%%%%%%%%%%%%%%%%%%%%%%%%%%%%%%%%%&rytuyyyyyyyytyyyyyyyyyyyyyyyyyyyyyyyyyyyyyyyyyyyyyyyyyyyyyyyyyyyyyyyyyyyyyyyyyyyyyyyyyyyyyyyyyyyyyyyyyyyyyyyyyyyyyyyyyyyyyyyyyyyyyyyyyyyyyyyyyyyyyyyyyyyyyyyyyyyyyyyyyyyyyyyyte@%%%%%%%%%%%%%%%%%%%%%%%%%%%%%%%%%%%%%%%%%%",
"%%%%%%%%%%%%%%%%%%%%%%%%%%%%%%%%%%%%%%%%%%%%=rttttryrtttttttttttttttttttttttttttttttttttttttyryrttttttttttttttttttttttttttttttttttttttttttttttttttttttttttttttttttttttttttttttttttttttttttttttttttttttttttttttttttttttttyr;%%%%%%%%%%%%%%%%%%%%%%%%%%%%%%%%%%%%%%%%%%%",
"%%%%%%%%%%%%%%%%%%%%%%%%%%%%%%%%%%%%%%%%%%%%%&:rrrrrrrrrrrrrrrrrrrrrrrrrrrrrrrrrrrrrrrrrrrrrrrrrrrrrrrrrrrrrrrrrrrrrrrrrrrrrrrrrrrrrrrrrrrrrrrrrrrrrrrrrrrrrrrrrrrrrrrrrrrrrrrrrrrrrrrrrrrrrrrrrrrrrrrrrrrrrrrrrrrrrrrrw:&%%%%%%%%%%%%%%%%%%%%%%%%%%%%%%%%%%%%%%%%%%%%"
};
