/* XPM */
static char *_4_png[] = {
/* columns rows colors chars-per-pixel */
"262 22 68 1 ",
"  c #1D2125",
". c #1D2225",
"X c #122329",
"o c #182429",
"O c #1E262B",
"+ c #102C35",
"@ c #10303A",
"# c #10313B",
"$ c #1D343F",
"% c #27292D",
"& c #1C3947",
"* c #1B414E",
"= c #15465B",
"- c #184B5A",
"; c #104F69",
": c #1D5B6E",
"> c #0E5F80",
", c #0B6282",
"< c #0D6789",
"1 c #0F6A8B",
"2 c #126D8E",
"3 c #147091",
"4 c #177394",
"5 c #197697",
"6 c #1C799A",
"7 c #1F7C9C",
"8 c #226A81",
"9 c #257289",
"0 c #227F9F",
"q c #0676A2",
"w c #0876A0",
"e c #077AA7",
"r c #057BAA",
"t c #077EAC",
"y c #26809D",
"u c #0980AE",
"i c #0C80AD",
"p c #0C83B1",
"a c #0E86B3",
"s c #0E87B4",
"d c #118AB7",
"f c #148EBA",
"g c #1892BE",
"h c #2482A2",
"j c #2685A3",
"k c #2C88A4",
"l c #2F8FAD",
"z c #2F90AE",
"x c #2E90B0",
"c c #2F93B2",
"v c #1B96C2",
"b c #1F9AC5",
"n c #229EC9",
"m c #26A2CD",
"M c #35AACF",
"N c #29A6D0",
"B c #2DAAD4",
"V c #38AFD4",
"C c #30AED8",
"Z c #33B1DA",
"A c #33B2DB",
"S c #35B1D9",
"D c #36B5DE",
"F c #39B5DD",
"G c #39B8E1",
"H c #3CBAE1",
"J c #3BBBE4",
"K c #3DBEE6",
/* pixels */
"%%%%%%%%%%%%%%%%%%%%%%%%%%% X+##################################################################################################################################################################################@########################+Xo%%%%%%%%%%%%%%%%%%%%%%%%%%",
"%%%%%%%%%%%%%%%%%%%%%%%%%%o=9kllllxllllxzzzzzzzzzzzzzzzzzzzzzzzzzzzzzzzzzzzzzzzzzzzzzzzzzxzzzzzzzzzzzzzzzzzzzzzzzzzzzzzzzzzzzzzzzzzzzzzzzzzzzzzzzzzzzzzzzzzzzzzzzzzzzzzzzzzzzzzzzzzzzzzzzzzzzzzzzzzzzzzzzzzzzzzzzzzzzzzzzzzzzzzzzzzzzzzzzk9-o%%%%%%%%%%%%%%%%%%%%%%%%%",
"%%%%%%%%%%%%%%%%%%%%%%%%%O:cVGKKKKKKKKKKKKKKKKKKKKKKKKKKKKKKKKKKKKKKKKKKKKKKKKKKKKKKKKKKKKKKKKKKKKKKKKKKKKKKKKKKKKKKKKKKKKKKKKKKKKKKKKKKKKKKKKKKKKKKKKKKKKKKKKKKKKKKKKKKKKKKKKKKKKKKKKKKKKKKKKKKKKKKKKKKKKKKKKKKKKKKKKKKKKKKKKKKKKKKKKKKKGVx:O%%%%%%%%%%%%%%%%%%%%%%%%",
"%%%%%%%%%%%%%%%%%%%%%%%%%&cGJJJJKGKGJJKKJJJJJJJJJJJJJJJJJJJJJJJJJJJJJJJJJJJJJJJJJJJJJJJJJJJJJJJJJJJJJJJJJJJJJJJJJJKKJJJJJJJJJJJJJJJJJJJJJJJJJJJJJJJJJJJJJJJJJJJJJJKKJJJJJJJJJJJJJJJJJJJJJJJJJJJJJJJJJJJJJJJJJJJJJJJKJJJJJJJJJJJJJJJJJJJJJJKDz*%%%%%%%%%%%%%%%%%%%%%%%%",
"%%%%%%%%%%%%%%%%%%%%%%%%%8MGGGGGGGGGGGGGGGGGGGGGGGGGGGGGGGGGGGGGGGGGGGGGGGGGGGGGGGGJGGGGGGGGGGGGGGGGGGGGGGGJGGGGJDJDJDJJDDDJDJDJDJFJDJJDJDJDDJDJJDJFJDJDGGGGJFJGJDJDDJDJDJFJDJDJJFJDFJDJGGGGGGGJGGGGGGGGGGGGGGGGJDJJDJJJDFJGGGGGGGGGGGGGGGGGV:%%%%%%%%%%%%%%%%%%%%%%%%",
"%%%%%%%%%%%%%%%%%%%%%%%%%hSDDDDDDDDDDDDDDDDDDDDDDDDDDDDDDDDDDDDDDDDDGAGGGAGAGAGADDDAAGGAAGGAAGAGGAGAGAGADDDAAGGADDDDDDDDDDDDDDDDDDDDFDDDDDDDDDDDDDDDDDDDDDDDDDDDDDDDDDDDDDDDDDDDDDDDDDDDDDDDDDDADDDDDDDDDDDDDDDDDDADDDADDDDDDDDDDDDDDDDDDGDDDy%%%%%%%%%%%%%%%%%%%%%%%%",
"%%%%%%%%%%%%%%%%%%%%%%%%%jAAAAAAAAAAADAAAAAAAAAAAAAAAAAAAAAAAAAAAAAACAAAAAAAAAAAAAAAAAAAAAAAAAAAAAAAAAAAAAAAAAAAAAAACADCDAAAAAAAAAAAAAAAAAAAAAAAAAAAAAAAAAAAAAAAAAAAAAAAAAAAAAAAAAAAAAAAAAAAAAAAAAAAAAAAAAAAAAAAAAAAAAAAAAAAAAAAAAAAAAAAAAAAAj%%%%%%%%%%%%%%%%%%%%%%%%",
"%%%%%%%%%%%%%%%%%%%%%%%%%hCCCCCCCCCCCBABCCCCCCCBCCCCCCCCCCCCCCCCCCCCCCCCCCCCCCCCCCCCCCCCCCCCCCCCCCCCCCCCCCCCCCCCCCCCCCCCCCCCCCCCCCCCCCCCCCCCCCCCCCCCCCCCCCCCCCCCCCCCCCCCCCCCCCCCCCCCCCCCCCCCCCCCCCCCCCCCCCCCCCCCCCCCCCCCCCCCCCCCCCCCCCCCCCCCCh%%%%%%%%%%%%%%%%%%%%%%%%",
"%%%%%%%%%%%%%%%%%%%%%%%%%0BBBBBBBBBBBBBBBBBBBBBBBBBBBBBBBBBBBBBBBBBBBBBBBBBBBBBBBBBBBBBBBBBBBBBBBBBBBBBBBBBBBBBBBBBBBBBBBBBBBBBBBBBBBBBBBBBBBBBBBBBBBBBBBBBBBBBBBBBBBBBBBBBBBBBBBBBBBBBBBBBBBBBBBBBBBBBBBBBBBBBBBBBBBBBBBBBBBBBBBBBBBBBBBBBBBh%%%%%%%%%%%%%%%%%%%%%%%%",
"%%%%%%%%%%%%%%%%%%%%%%%%%7NNNNNNNNNNNNNNNNNNNNNNNNNNNNNNNNNNNNNNNmNNNNNNNNNNNNNNNNNNNNNNNNNNNNNNNNNNNNNNNNNNNNNNNNNNNNNNNNNNNNNNNNNNNNNNNNNNNNNNNNNNNNNNNNNNNNNNNNNNNNNNNNNNNNNNNNNNNNNNNNNNNNNNNNNNNNNNNNNNNNNNNNNNNNNNNNNNNNNNNNNNNNNNNNNNN7%%%%%%%%%%%%%%%%%%%%%%%%",
"%%%%%%%%%%%%%%%%%%%%%%%%%6mmmmmmmmmmmmmmmmmmmmmmmmmmmmmmmmmmmmmmmmmmmmmmmmmmmmmmmNmmNmmNmNmmmmmmmmmmmmmmmmmmmmmmmmmNmmmmmmmmmmmmmNmmmmmmmmmmmmmmmmmmmmmmmmmmmmmmmmmmmmmmmmmmmmmmmNmmmmmmmmmmmmmmmmmmmmmmmmmmmmmmmmmmmmmmmmmmmmmmmNmmmmmmmmmmm6%%%%%%%%%%%%%%%%%%%%%%%%",
"%%%%%%%%%%%%%%%%%%%%%%%%%5nnnnnbnnnnnnnnnnnnnnnnnnnnnnnnnnnnnnnnmbmbnnnnbmbmbmbbbbmbbmbbbbmbnnbmnnnnnnnnmbnnnnnnbmbbnnnnmbmbbmbmbbmbbmbmbmbmnnnnnnnnnnnnmbnnnnnnnnnnnnnnnnnnbmbmbbmbnnbmnnnnnnnnnnnnnnnnmbnnnnnnnnnnnnnnnbmbmbmbbbmbnnbmnnnnn5%%%%%%%%%%%%%%%%%%%%%%%%",
"%%%%%%%%%%%%%%%%%%%%%%%%%4bbvvbbnbbbbbbbbbbbbbbbbbbbbbbbbbbbnbbbvbbbbbbvbbbbbbbbbbvbbbbbbbvbbbvbbbbbbbbbbbbbbbbbbbbbbbbbbbbbbbbbbbvbbbbbbbbbbbbbbbbbbbbbbbbbbbbbbbbbbbbbbbbbvbbbbbvbbbbbbbbbbbbbbbbbbbbbbbbbbbbbbbbbbbbbbbbbvbbbbbvbbbbbbbbbb4%%%%%%%%%%%%%%%%%%%%%%%%",
"%%%%%%%%%%%%%%%%%%%%%%%%%3vvvvvvvvvvvvvvvvvvvvvvvvvvvvvvvvvvvvvvvvvvvvvvvvvvvvvvvvvvvvvvvvvvvvvvvvvvvvvvvvvvvvvvvvvvvvvvvvvvvbvvvvvvvvvvvvvvvvvvvvvvvvvvvvvvvvvvvvvvvvvvvvvvvvvvvvvvvvvvvvvvvvvvvvvvvvvvvvvvvvvvvvvvvvvvvvvvvvvvvvvvvvvvvvvvv3%%%%%%%%%%%%%%%%%%%%%%%%",
"%%%%%%%%%%%%%%%%%%%%%%%%%2vvvvfvggggggggggggggggggggggggggggggggggggvgggggvvgggvvvfvggggvvfvvgggggggggggggggggggggggggggggggggggvvfvgggggggggggggggggggggggggggggggggggggggggggvvvfvgggggggggggggggggggggggggggggggggggggggggggvvvfvggggggggg2%%%%%%%%%%%%%%%%%%%%%%%%",
"%%%%%%%%%%%%%%%%%%%%%%%%%<fdffdvfffffffffffffffffffffffffffffffffffffffffffffffffffffffffffffffffffffffffffffffffffffffffffffffffffffffffffffffffffffffffffffffffffffffffffffffffffffffffffffffffffffffffffffffffffffffffffffffffffffffffffff1%%%%%%%%%%%%%%%%%%%%%%%%",
"%%%%%%%%%%%%%%%%%%%%%%%%%1dddddddddddddddddddddddddddddddddddddddddddddddddddddddddddddddddddddddddddddddddddddddddddddddddddddddddddddddddddddddddddddddddddddddddddddddddddddddddddddddddddddddddddddddddddddddddddddddddddddddddddddddddsd<%%%%%%%%%%%%%%%%%%%%%%%%",
"%%%%%%%%%%%%%%%%%%%%%%%%O:ssssssssssssssssssssssssssssssssssssssssssssssssssssssssssssssssssssssssssssssssssssssssssssssssssssssssdasssssssassssssssaadssssdssssssssssaaaadasassssdasssaaaadsssssssssssssssssssdsssdsssssssssssdsssssssssssss:%%%%%%%%%%%%%%%%%%%%%%%%",
"%%%%%%%%%%%%%%%%%%%%%%%%%;ipsspsppppppppppppppppppipppppppppppppppppppppppppppppppppppppppppppppppppppppppuuppppppppppppauuuauauusppsuuuaususuuuppupppuuusupppupusuuususpuusppuuusppsuuusuausuuuupppppppsuuususuupppppupsuuusuausssusuppspppu;%%%%%%%%%%%%%%%%%%%%%%%%",
"%%%%%%%%%%%%%%%%%%%%%%%%%&wtttttuuuuuuuuuuuuuuuuuuuiuuuuptuuuuituuuuuuuuuuuuuuuuuuuuuuuuuuuuuuuuuuuuuuuuuuuuuuuuuuuuuuuuuuuuuuuuuuuuuuuuuuuuuuuuuuuuuuuuuuuuuuuuuuuuuuuuuuuuuuuuuuuuuuuuuuuuuuuuiuuuuuuuuuuuuuiuuuuuuuuuuuuuuuiutruuutuuuuuuq&%%%%%%%%%%%%%%%%%%%%%%%%",
"%%%%%%%%%%%%%%%%%%%%%%%%%%;rtttttttttttttttttttttttttttttttttttttttttttttttttttttttttttttttttttturuuurururuuruuruuruuuurururururuurururuiuuuruuruuururuuuruuuuururuuruuruuuruuruuuruuuruuuurruurruruuururuururuuuuruuuurururururtttttttttttr=%%%%%%%%%%%%%%%%%%%%%%%%%",
"%%%%%%%%%%%%%%%%%%%%%%%%%O%&:qrrrrrrrrrrrrrrrrrrrrrrrrrrrrrrrrrrrrrrrrrrrrrrrrrrrrrrrrrrrrrrrrrrrrrrrrrrrrrrrrrrrrrrrrrrrrrrrrrrrrrrrrrrrrrrrrrrrrrrrrrrrrrrrrrrrrrrrrrrrrrrrrrrrrrrrrrrrrrrrrrrrrrrrrrrrrrrrrrrrrrrrrrrrrrrrrrrrrrrrtrrtq:&%%%%%%%%%%%%%%%%%%%%%%%%%%"
};
