/* XPM */
static char *_5_png[] = {
/* columns rows colors chars-per-pixel */
"262 22 63 1 ",
"  c #12281B",
". c #10341D",
"X c #103A1E",
"o c #103B1E",
"O c #1D2222",
"+ c #1D3C2C",
"@ c #27292D",
"# c #1C442F",
"$ c #1C452F",
"% c #1B4D2D",
"& c #185A2E",
"* c #155931",
"= c #106832",
"- c #1D6E38",
"; c #0E7F3A",
": c #0B8137",
"> c #0D893A",
", c #128E3F",
"< c #199746",
"1 c #1C9A48",
"2 c #228042",
"3 c #258946",
"4 c #229F4C",
"5 c #269D4E",
"6 c #06A241",
"7 c #07A742",
"8 c #08A041",
"9 c #05A943",
"0 c #05AA43",
"q c #07AC44",
"w c #09AE46",
"e c #0CAD47",
"r c #0CB149",
"t c #0EB34B",
"y c #0EB44B",
"u c #11B74E",
"i c #14BA51",
"p c #18BE54",
"a c #24A24F",
"s c #26A350",
"d c #2CA454",
"f c #2FAD59",
"g c #2FAE59",
"h c #2EB059",
"j c #2FB25B",
"k c #1BC257",
"l c #1FC55A",
"z c #22C95D",
"x c #26CD60",
"c c #35CF68",
"v c #29D063",
"b c #2DD466",
"n c #38D46D",
"m c #30D869",
"M c #33DB6C",
"N c #35D96C",
"B c #36DE6F",
"V c #39DD6F",
"C c #39E171",
"Z c #3CE173",
"A c #3BE473",
"S c #3DE576",
"D c #3DE676",
/* pixels */
"@@@@@@@@@@@@@@@@@@@@  .XXXoooooooooooooooooooooooooooooooooooooooooooooooooooooXooXoooooooooooXooooooooXooXooooooooooooooooooooXooooooooooooooXoooooooooooXoooooXoooooXoooooXoooooXooooooooooooooooooooooooooooooooooooooooooooooooooooooooooooo. O@@@@@@@@@@@@@@@@@@@",
"@@@@@@@@@@@@@@@@@@@ &3dffffhghghggghghggghghggghghgghhggggfhfhffhhhhghghgggghhhgggghgggghhhhghghgggghhhgggghgggghhggggghgggghhfhhffhfhffhhhhghghgggghhhgggghgggghhgggghhgggghhgggghhgggghhhhfhfhfhffhhhgggghgggghhhhhhghgggghhhfhffhfhffhhhhhhfhd3& @@@@@@@@@@@@@@@@@@",
"@@@@@@@@@@@@@@@@@@@-gnSSSSSSDDDASSSSSSSSDDDSSSSSSSSSDDDDSSSSDDDDSDSASSDDDDSSSDSSSSDDDDSDDDDAASDDDDSDSDSSSSSDDDSDDDDDADDDDDDDDDDASSSSDDDDDDDASSDDDDSDDDDASSSDDDSDDDDDSSSDDSSSDDDDSSSDSSSSDDAASDDDDDDDDDSSSSSSDDSSDDDAASDDDDSSDDDASSSSDDDDDDDAASDSAnh-@@@@@@@@@@@@@@@@@@",
"@@@@@@@@@@@@@@@@@@%hVSCZAAASAAAAAAAAAAAAAAAAAAAAAAAAAAAAAAAAAAAAAAAAAAAAAAAAAAAAAAAAAAAAAAAAAAAAAAAAAAAAAAAAAAAAAAAAAAAAAAAAAAAAAAAAAAAAAAAAAAAAAAAAAAAAAAAAAAAAAAAAAAAAAAAAAAAAAAAAAAAAAAAAAAAAAAAAAAAAAAAAAAAAAAAAAAAAAAAAAAAAAAAAAAAAAAAAAAAAASVh%@@@@@@@@@@@@@@@@@",
"@@@@@@@@@@@@@@@@@@2cCCCCCCCCCCCCCCCCCCCCCCCCCCCCCCCCCCCCCCCCCCCCCCCCCCCCCCCCCCCCCCCCCCCCCCCCCCCCCCCCCCCCCCCCCCCCCCCCCCCACCCCCCCCCCCCACCCCCCCCCCCCCCCCCCCCCCCCCCCBABACABACCCCCCCCCCCCCCCCCCCCCCCCACCCCCCCCCCCCCCCCCCCCCCCCCCCCCCCCCCCACCCCCCCCCCCACCc2@@@@@@@@@@@@@@@@@",
"@@@@@@@@@@@@@@@@@@5NBBBVVCCMCMBBBBBBCVBBBBBBBBBVBBBBBBBBBBBBBBBBBBBBBBVVBCBCBBBCBBBBBBBBBBBBCMVVBCBCBBBCBBBBBBBBBBBBBBBVBVBBBBBBBBBBVBBBBBBBBMVVBCBBBBBBBBBCCBBBBBBBVBBBBBBBBBBBBBBCCBBBBBBBBBVVBVBBBBBBBBBBCBBBBBBBBVVVVCBBBBBBBBBBVBBBBVBBMVVVVVCm5@@@@@@@@@@@@@@@@@",
"@@@@@@@@@@@@@@@@@@aMMMMMMMMMMMMMMMMMMMMMMMMMMMVmMMMMMMMMMMMMMMVmBmmBBmNNNmMMmMMMMMMMMMNMMMMMNMNNNmMMmMMMMMMMMMNMMMMMMMnMNMMMMMMMMMMMMMNNMMMMMMNNNNMMMMMMmBMMMMNmMMMMNMNNMMMMMMMMmMMMMMNmMMMMMMNNNMMMMMMMMMMMMMNNBmmBBmNNNMMMMMMMMMMMMMNMMMMMMMNNNNNMa@@@@@@@@@@@@@@@@@",
"@@@@@@@@@@@@@@@@@@ammmmmmmmmmmmmmmmmmmmmmmmmmmmmmmmmmmmmmmmmmmmmmmmmmmmNmmmmmmmmmmmmmmmmmmmmmmmNmmmmmmmmmmmmmmmmmmmmmmmmmmmmmmmmmmmmmmmmmmmmmmmNmmmmmmmmmmmmmmmmmmmmmmmmmmmmmmmmmmmmmmmmmmmmmmmNmmmmmmmmmmmmmmmmmmmmmmmNmmmmmmmmmmmmmmmmmmmmmmbNmmmma@@@@@@@@@@@@@@@@@",
"@@@@@@@@@@@@@@@@@@abbbbbbbbbbbbbbbbbmbbbbbbbNbbbbbbbbbbbbbbbbbbbbbbbbbbbbbbbbbbbbbbbbbbbbbbbbbbbbbbbbbbmbbbbbbbbmbbmbbmbbmbmbmbmbbbbbbbbbbbbbbbbbbbbbbbbbbbbbbbbbbbbbbmbbmbmbmbmbbbbbbbbbbbbbbbbbbbbbbbbbbbbbbbbbbbbbbbbbbbbbbbmbbbbbbbbbbbbbbbbbbbba@@@@@@@@@@@@@@@@@",
"@@@@@@@@@@@@@@@@@@1vvvvvvvvvvvvvvvvvvvvvvvvvzbvvvvvvvvvvvvvvvvvvvvvvvvvvvvvvvvvbvvvvvvvvvvvvvbvvvvvvvvvzvvvvvvvvvvzbbzvvzbzbzbzvvvvvvvvvvvvvvbvvvvvvvvvvvvvvvvvvvbvvvvvvxvxvxvxxvvvvvvvvvvvvvbvvvvvvvvvvvvvvvvvvvvvvvvvvvvvvvvvvvvvvvvvvvvvvvvvvvvvba@@@@@@@@@@@@@@@@@",
"@@@@@@@@@@@@@@@@@@4zzzvvxxxxzvzvvzzvzvzzvzzvzzzzzvzvzvzzzvvzzvvzzvzzzvzvzzzvzvzzvzzvzzzzzvvzzzzzzvzvzvzzzvzvzvvzzzzzzvzvvzvzvzzzvzzvzzzzzvvzzzzzzvzvzvzzzxxxxxxxvzzzzvzvxxxxxxzzzvzvzzzzzvvzzzzzzvzvzvzzzvzvxxxxzvzzzvzvzvvvzzzzvzzvzzzzzvvzzvzzxxxx<@@@@@@@@@@@@@@@@@",
"@@@@@@@@@@@@@@@@@@<zzzzzzzzzzzzzzzzzzzzzzzzzzzzzzzzzzzzzzzzzzzzzzzzzzzzzzzzzzzzzzzzzzzzzzzzzzzzzzzzzzzzzzzzzzzzzzzzzzzzzzzzzzzzzzzzzzzzzzzzzzzzzzzzzzzzzzzzzzzzzzzzzzzzzzzzzzzzzzzzzzzzzzzzzzzzzzzzzzzzzzzzzzzzzzzzzzzzzzzzzzzzzzzzzzzzzzzzzzzzzzzzx,@@@@@@@@@@@@@@@@@",
"@@@@@@@@@@@@@@@@@@,zzzkzllllllllzkzkzzzkzzzzzpzzzzzpzzkzzzzzzzzkzzkzkzzzzzzkkzzkzzzzkzzzzzzzkzzzzzzkzzkzzzkzzzkzzkzzkzkzzzzzzkzzzzzzkzzzzzzzkzzzzzzkzzkzzzkzzzkzkzkzzzzzzzzzzkzzzzzzkzzzzzzzkzzzzzzkzzkzzzzzzzkzzzkzkzzzzzzkzkzkzzzzkzzzzzzzkzzzzkzk,@@@@@@@@@@@@@@@@@",
"@@@@@@@@@@@@@@@@@@,kkkkkkkkkkkkkkkkkkpkkkpkkzppzzpkkpzpkpkpkkkkkkkpkpkpklkkkkkkkkkkkpppzkkkkppkkkkkpkkpkpkpzkkkkkkkkkkkkzpppkkpkkkkkpppzkkkkppkkkkkpkkpkpkpzkkkkkkkkpppkpkppkkpkkkkkpppzkkkkppkkkkkppzpkpkpkkkkkkkpkpkpkkkkkkkkkkkkkpppzkkkkppkkkkkk,@@@@@@@@@@@@@@@@@",
"@@@@@@@@@@@@@@@@@@,pipkiikkikiikkpppppppppppipppppppppppipppppkpppppppppppikkppkikkkppppppppppppppppppppipppkkikpppkkpkikkpkkuukikkkppppppppppppppppppppippppkikkpikpikikppkkuukikpkppppppppppppppppppppipppkkikppppppppppipkikkikkkpppppppppppppkkk,@@@@@@@@@@@@@@@@@",
"@@@@@@@@@@@@@@@@@@,iiiiiiiiiiiiiuiiiiiiiiiiiuiiiiiiiiiiiiuiiiiuuiiiiiiiiiiiiiiuiuiuiuiiiiiiiiiiiiiiiiiiiiiiiuiiuiiuiiuiuuputkuukuiuiuiiiiiiiiiiiiiiiiiiiiiiiuiiuiiiiiiiuupuukuukiiuiuiiiiiiiiiiiiiiiiiiiiuiuuiuuiiiiiiiiiiiiiiuiuiuiuiiiiiiiiiiiuuuu>@@@@@@@@@@@@@@@@@",
"@@@@@@@@@@@@@@@@@@>uuuuuuuuuuuuuuuuuuuuuuuuuuuuuyyiyuuuuuuuuuuuuuuuuuuuuuuuuuuuuuuuuuuuuuuuuuuuuuuuuuuuuuuuuuuuuuuuuuuuuuuuuuuuuuuuuuuuuuuuuuuuuuuuuuuuuuuuuuuuuuuuuuuuuuuuuuuuuuuuuuuuuuuuuuuuuuuuuuuuuuuuuuuuuuuuuuuuuuuuuuuuuuuuuuuuuuuuuuuuuuuuu>@@@@@@@@@@@@@@@@@",
"@@@@@@@@@@@@@@@@@@:tyyyyyyyyyyyyyyyyyyyyyyyyyyyyyyyyttyyyyyyyyyyyyyyyyyyyyyyyyyyyyyyyyyyyyyyyyyyrurrruuryuyyyyyuyyyuyyyyyuyyyyyuyyyyyyyyyyyyyyyrtyyyyyyyyyyyyyyyyyyyyyyyyyyyyyyyyyyyyyyyyyyyyyyyyyrruryyyuyyyyyuyyyuyyyyyuyyyyyuyyyrtttryyyyyyytyyyy:@@@@@@@@@@@@@@@@@",
"@@@@@@@@@@@@@@@@@@=errttrretrrrrrrrrrrrrrrrrrrrrrtytrrrtrrrrrrrrrrrrrrrrrrrrrrrrrrrrrrrrrrrrrrrrtqrtrrrrrrrrrrrrrrrrrrrrrrrrrrrrrrrrrrrrrrrrrrrrrqttrrrrrrrrrrrrrrrrrrrrrrrrrrrrrrrrrrrrrrrrrrrryqrtrrrrrrrrrrrrrrrrrrrrrrrrrrrrrrrrtrrrrrtrrrtrrrte=@@@@@@@@@@@@@@@@@",
"@@@@@@@@@@@@@@@@@@+8wwwwwwwwwwwwwwwwwwwwwwwwwwww0qeewwwqwwwwwwwwwwwwwwwwwwwwwwwwwwwwwwwwwwwwwwwweeqtrqqqwwqqqqrqqqrqqrqqqqrqqqrqwwwwwwwwwwwwwwrqqqeewwwqwwwwwwwwwwwwwwwwwwwwwwwwwwwwwwwwwwwwwwwweeqrqqrqwwqqqqrqqqrqqrqqwwwwqqrqrqrqr0rqwqwqqrqqe0t8+@@@@@@@@@@@@@@@@@",
"@@@@@@@@@@@@@@@@@@@*70qqqqqqq0w0qqqqqqqqqqqqqqqqqqqqqqqqqqqqqqqqqqqqqqqqqqqqqqqqqqqqqqqqqqqqqqqqqqqqqqqqqqqqqqqqqqqqqqqqqqqqqqqqqqqqqqqqqqqqqqqqqqqqqqqqqqqqqqqqqqqqqqqqqqqqqqqqqqqqqqqqqqqqqqqqqqqqqqqqqqqqqqqqqqqqqqqqqqqqqqqqqqqqqqqqqqqqqqq0qq7&@@@@@@@@@@@@@@@@@@",
"@@@@@@@@@@@@@@@@@@@@#;6q700000000000000000000000qq07000000000000000000000000000000000000000000000q77qq7q000000000000qq00000000000000000000000000qe77q7000000q000000000000000000000000000000000000007qqqq00000000000000000000000000000000qq00qq008:$@@@@@@@@@@@@@@@@@@@"
};
