/* XPM */
static char *_6_png[] = {
/* columns rows colors chars-per-pixel */
"262 22 70 1 ",
"  c #282814",
". c #26271B",
"X c #343410",
"o c #393A10",
"O c #3A3B10",
"+ c #212221",
"@ c #272823",
"# c #27292D",
"$ c #393C21",
"% c #4B4D1D",
"& c #555918",
"* c #595A18",
"= c #7A7F0F",
"- c #646811",
"; c #6D6E1D",
": c #424520",
"> c #424421",
", c #7E820C",
"< c #7F8023",
"1 c #85890D",
"2 c #888B0F",
"3 c #8B8E12",
"4 c #8E9114",
"5 c #919417",
"6 c #949719",
"7 c #979A1C",
"8 c #9A9C1F",
"9 c #9CA207",
"0 c #9CA008",
"q c #A1A707",
"w c #A3A905",
"e c #A4AA05",
"r c #A6AC07",
"t c #A9AE09",
"y c #A8AD0C",
"u c #ACB10C",
"i c #AEB30E",
"p c #AFB40E",
"a c #B2B711",
"s c #B6BA14",
"d c #B9BE18",
"f c #888925",
"g c #9D9F22",
"h c #9B9D26",
"j c #A0A224",
"k c #A1A326",
"l c #A2A42C",
"z c #ABAD2F",
"x c #ACAE2F",
"c c #AEB02E",
"v c #B0B22F",
"b c #BDC21B",
"n c #C1C51F",
"m c #C5C922",
"M c #C9CD26",
"N c #CDD029",
"B c #D1D42D",
"V c #CECF35",
"C c #D5D830",
"Z c #D7DA33",
"A c #D6D935",
"S c #D8DB33",
"D c #DBDE36",
"F c #D2D438",
"G c #DADD39",
"H c #DFE139",
"J c #DFE13C",
"K c #E1E43B",
"L c #E3E53D",
"P c #E4E63D",
/* pixels */
"###########+ XoooOOOOOOOOOOOOOOOOOOOOOOOOOOOOOOOOOOOOOOOOOOOOOOOOOOOOOOOOOOOOOOOOOooOOOOOOOOOOOOOOOOOOOOOOOOOOOOOOOOOOOOOOOOOOOOOOOOOOOOOOOOOOOOOOOOOOOOOOOOOOOOOOOOOOOOOOOOOOOOOOOOOOOOOOOOOOOOOOOOOOOOOOOOOOOOOOOOOOOOOOOOOOOOOOOOOOOOOOOOOOOOOOOOOOOOOX +##########",
"##########.*flxxxxxxxxxxxxxxxxxxxxxxxxxxxcxxxxxcxxxxxcxxxxxxxxxxcccxxxccxxxxvvcxxxvvxxxxvvxxxxxvxxxxxvxxxxxvxxxxxxxxxxxxxxxxxxxxxxxxxxxxxxxxxxxxxxxxxxxxxxxxxxxxxxxxxxxxxxxxxxxxxxxxxxxxxxxxxxxxxxxxxxxxxxxxxxxxxcxxxxxxxxxxxxxxxxxxxxxxxxxxxxxxxxxxxxxxxlf*.#########",
"#########@;vFJLPPPPPPPPPPPPPPPPLPPPPPPPPPPPKKPPPPPKPPPKKPPPPPPPPKPKKPPPLPPLPPPHHJPPPPPJPPPHHJPPPPPJPPPPKKKPPPPKPPPPPPPPPPPPPPPPPPPPPPPPPPPPPPPPPPPPPPPPPPPPPPPPPPPPLPPPPPPPPPPPPPPPPPPPPPPPPPPPPPPPPPPPPPPPPPPPPPPPKPPPPPPPPPPPPPPPPPPPPPPPPPPPPPPPPPPPPKHFc;@########",
"#########%cGKKKKKKKKKKKKKKKKKKKKKKKKKKKKKKKKKKKKKKKKKKKKKKKKKKKKKKKHHJLKKKJJHKHHHPHPKKPJHHJHJPHPHPHPKKKHKKKKKKKKKKKKKKKKKKKKKKKKKKKKKKKKKKKKKKKKKKKKKKKKKKKKKKKKKKKKKKKKKKKKKKKKKKKKKKKKKKKKKKKKKKKKKKKKKKKKKKKKKKKKKKKKKKKKKKKKKKKKKKKKKKKKKKKKKKKKKKKKKKLGc%########",
"#########=VHHHHHHHHHHHHKKHHHHHHHHKDKHHHHKKHHHKDKKHKHHHKKHHHKKKHHHHHHHHHHJHHHHHHHHHHHHHHHHHHHHHHHHHHHHHHHHHHHHHHHHHHHHHHHHHHHHHHHHHHHHHHHHHHHHHHHHHHHHHHHHHHHHHHHHHHHHHHHHHHHHHHHHHHHHHHHHHHHHHHHHHHHHHHHHHHHHHHHKHHHHHHHHHHHHHHHHHHHHHHHHHHHHHHHHHHHHHHHHHHHV<########",
"#########hADDDDDDDDDDDDDDDDDDDDDDDDDDDDDCKSHCKCKHSDDDSDDDDDDSDDSHHCHHCHHHHHHHZHSHSHHHHSHCHHHHAHHHHHHSSSHDDDHHHDDDDDDDDDDDDDDDDDDDDDDDDDDDDDDDDDDDDDDDDDDDDDDDDDDDDDDDDDDDDDDDDDDDDDDDDDDDDDDDDDDDDDDDDDDDDDDDDDDSHSHSHSHDDDDDDDDDDDDDDDDDDDDDDDDDDDDDDDDDDDDAh########",
"#########lCDSSSSSSSSSSSSCDCDCDCDSSSSSDSSSSSSSSSSZSSSSSSSCSSSSDSSSSSSCSHCZHCCCHCHCCSSSZZZCHCHCCAZDZSSSSSSCSSSSSZSSSSSSSDASSSSSSSSSSSSSSSSSSSSSSSSSSSSSSSSSSSSSSSSSSSSSSSSSSSSSSSSSSSSSSSSSSSSSSSSSSSSSSSSSSSSSSSSSSSSSSSSSSSSSSSSSSSSSSSSSSSSSSSSSSSSSSSSSSDZCk########",
"#########lCCCCCCCCCCCCCCCCCCCCCCSBCCCCCBCCCCCCCCCCCCCCCCCCCCCCCBCCCCCCCCCCCCBCBCCCCCCCCCCCCCCCCZBZCCCCCCCCCCCCCCCCCCCCCCCCCCCCCCCCCCCCCCCCCCCCCCCCCCCCCCCCCCCCCCCCCCCCCCCCCCCCCCCCCCCCCCCCCCCCCCCCCCCCCCCCCCCCCCCCCCCCCCCCCCCCCCCCCCCCCCCCCCCCCCCCCCCCCCCCCCCj########",
"#########hBBBBBBBBBBBBBBBBBBBBBBBBBBBBBBBBBBBBBBBBBBBBBBBBBBBBBBBBBBBBBBBBBBBBBBBBBBBBBBBBBBBBBBBBBBBBBBBBBBBBBBNBBBBBBBNCNCNCNCBBBBBBBBBBBBBBBBBBBBBBBBBBBBBBBBBBBBBBBBBBBBBBBBBBBBBBBBBBBBBBBBBBBBBBBBBBBBBBBBBBBBBBBBBBBBBBBBBBBBBBBBBBBBBBBBBBBBBBBBBBBBBj########",
"#########gNNNNNNNNNNNNNNNNNNNMBMMBBMNNNNNNNNNNNNNNNNNNNNNNNBNNNNNNNNNNNNNNNNNNNNMBNMNNNNNNNNNNNNNNNNNNNMMMBMMNNNNNNNNNNNNNNNNNNNNNNNNNNNNNNNNNNNNNNNNNNNNNNNNNNNNNNNNNNNNNNNNNNNNNNNNNNNNNNNNNNNNNNNNNNNNNNNNNNNNNNNNNNNNNNNNNNNNNNNNNNNNNNNNNNNNNNNNNNNNNNNN8########",
"#########7MMMMMMMMMMMMMMMMMMMMMMMMMMMMMMMNMMNMMMMMNNMMMMMMMMMMMMMMMMMMMMMMNNMMNNMMMMMMMMMMMMMMMMMMMMMMMMMMMMMMMMMMMMMMMMNMMMMMMMMMMMMMMMMMMMMMMMMMMMMMMMMMMMMMMMMMMMMMMMMMMMMMMMMMMMMMMMMMMMMMMMMMMMMMMMMMMMMMMMMMMMMMMMMMMMMMMMMMMMMMMMMMMMMMMMMMMMMMMMMMMMM6########",
"#########6mmmmmmmmmnmmmmmmmmmmmmnMnnnMnnnnMnnMnnnnnMnnMnnmmmmmmnmmmnmmmmnnnMnnnnmmmmmmmmmmmmmmmmmmmmmmmmMmmmmmmmmmmmmmmmmmmmmmmmmmmmmmmmmmmmmmmmmmmmmmmmmmmmmmmmmmmmmmmmmmmmmmmmmmmmmmmmmmmmmmmmmmmmmmmmmmmmmmmmmmmnmmmmmmmmmmmnmmmmmmmmmmmmmmmmmmmmmmmmmmmmm6########",
"#########5nnnnnnnnnnnnnnnnnnnnnnnnnnnnnnnnnnnnnnnnnnnnnnnnnnnnnnnnnnnnnnnnnnnnnnbmbbbbbnnnnnnnbbnnnnnnnnnnbbmbnnbmnnnnnbbmnnbnnnnnnnnnnnnnnnnnnnnnnnnnnnnnnnnnnnnnnnnnnnnnnnnnnnnnnnnnnnnnnnnnnnnnnnnnnnnnnnnnnnnnnnnnnnnnnnnnnnnnnnnnnnnnnnnnnnnnnnnnnnnnnnn5########",
"#########3bbbbbbbbbbbbbbnbbbbbbbnnnnbbbbnnbbbbbbnnbbbbbbbbbnnnbbbbbbbbbbnnbbbbbbbbbbbbbbbbbbbbbbbbbbbbbbbbbbbbbbbbbbbbbbbbbbbbbbbbbbbbbbbbbbbbbbbbbbbbbbbbbbbbbbbbbbbbbbbbbbbbbbbbbbbbbbbbbbbbbbbbbbbbbbbbbbbbbbbbbbbbbbnbbbbnbbbbbbbbbbbbbbbbbbbbbbbbbbbbbbb4########",
"#########3ddddddddddddddddddddddsdddsdddbdddddddsbbsddddsdddddsdbssbbsbssbbbddddbbbbbbabbbabbbbbbbbbbabbbbbabbbbddddbdbddbbdbaabddddddddddddddddddddddddddddddddddddddddddddddddddddddddddddddddddddddddddddddddddddddddddsbddddddddddddddddddddddddddddddddd3########",
"#########3ssssssssssssssssssssssssssssssssssssssssssssssssssssssssssssssssaassssbppbabaaabasaaaaasaabaaaaabaaapbsdadaassassabaabsssssssssssssssssssssssssssssssssssssssssssssssssssssssssssssssssssssssssssssssssssssssssssssssssssssssssssssssssssssssssssss2########",
"#########1aaaaaaaaaaaaaaaaaaaaaaaaaaaaaaaaaaaaaaaaaaaaaaaaaaaaaaaaaaaaaaaaaaaaaaaaaaaaaaaaaaaaaaaaaaaaaaaaaaaaaaaaaaaaaaaaaaaaaaaaaaaaaaaaaaaaaaaaaaaaaaaaaaaaaaaaaaaaaaaaaaaaaaaaaaaaaaaaaaaaaaaaaaaaaaaaaaaaaaaaaaaaaasaaaaaaapspsspspaaaaaaaaaaaaspaaaaaaa1########",
"#########,ppppppppppppppppppppppppppppppppppppppppppppppppppppppppppppppppppppppppppppppppppppppippppppppppppppppppppppppppppppppppppppppppppppppppppppppppppppppppppppppppppppppppppppppppppppppppppppppppppppppppppppppppppppppppppppappppppppppppppppppppp,########",
"#########-yuuuuuuuuuuuuupuupupupuuuuuuuuuuuuuuuuuuuuuuuuuuuuuuuuuuuuuuuuuuuuputpuuuuuuuuuuuuuuuuytiiittiittiiititiitiiituuuuuuuuuuuuuuuuuuuuuuuuuuuuuuuuuuuuuuuuuuuuuuuuuuuuuuuuuuuuuuuuuuuuuuuuuuuuuuuuuuuuuuuuuuuuuuuuuuuuuuuuuuuutpptuuuuuuuuuutiuuuuuuuut-########",
"#########$0tttttttttttttttrrrtrttttttttrtttttttrtttttttrtttttttttttrtttttttttttrtttttttrtttttttryyyttttttttttttttttttttttttttttttttttttttttttttttttttttttttttttttttttttttttttttttttttttttttttttttttttttttrurttttttttttttrrurrurtrurueytrtttttttttttttrurtttt0$########",
"##########&qrrrwrrrrwtrrrrrrrrrrrrrrrrrrrrrrrrrrrrrrrrrrrrrrrrrrrrrrrrrrrrrrrrrrrrrrrrrrrrrrrrrrrrrrrrrrrrrrrrrrrrrrrrrrrrrrrrrrrrrrrrrrrrrrrrrrrrrrrrrrrrrrrrrrrrrrrrrrrrrrrrrrrrrrrrrrrrrrrrrrrrrrrrrrrrrrrrrrrrrrrrrrrrrrrrrrrrrrrrrrrrrrrrrrrrrrrrrrrrrq*#########",
"###########:=9wwrwwrwwwweeeeeeeereeeeeeereeeeeeerreeeeeeeeeereeeeeeeeeeeereeeeeereeeeeeereeeeeeeeeeeeeeeeeeeeeeeeeeewweeeeeeeeeeeeeeeeeeeeeeeeeerweeeeeeeeeeeeeeeeeeeeeeeeeeeeeeeeeeeeeeeeeeeeeeeeeewreeeeeeeeeeeeeewreeeeeeeeeeeeeeeeeeeerwwwwwwwwrrweee0=>##########"
};
