/* XPM */
static char *_7_png[] = {
/* columns rows colors chars-per-pixel */
"262 22 68 1 ",
"  c #281E14",
". c #26211B",
"X c #342310",
"o c #3A2610",
"O c #3B2610",
"+ c #212121",
"@ c #272422",
"# c #272423",
"$ c #27292D",
"% c #3A2F21",
"& c #4C351D",
"* c #5A3B18",
"= c #583D18",
"- c #433421",
"; c #7F500F",
": c #674311",
"> c #6E471D",
", c #81500C",
"< c #82500C",
"1 c #89540D",
"2 c #8E5812",
"3 c #915A14",
"4 c #945C17",
"5 c #975E19",
"6 c #9A611C",
"7 c #9C631F",
"8 c #A16107",
"9 c #A76407",
"0 c #A96605",
"q c #AA6605",
"w c #AC6707",
"e c #A06108",
"r c #AE6909",
"t c #AD680C",
"y c #B16B0C",
"u c #B36E0E",
"i c #B46E0E",
"p c #B77011",
"a c #BA7314",
"s c #BE7618",
"d c #895925",
"f c #9F6522",
"g c #9D6526",
"h c #A26724",
"j c #A36926",
"k c #A46B2C",
"l c #AD712F",
"z c #AE712F",
"x c #B2732F",
"c c #C2781B",
"v c #C57B1F",
"b c #C97E22",
"n c #CD8126",
"m c #D08429",
"M c #D4872D",
"N c #CF8635",
"B c #D88A30",
"V c #DA8C33",
"C c #DB8D33",
"Z c #D98C35",
"A c #DE8F36",
"S c #D48938",
"D c #DD8F39",
"F c #E19139",
"G c #E4943B",
"H c #E1913C",
"J c #E5943D",
"K c #E6953D",
/* pixels */
"$$+ XoooOOOOOOOOOOOOOOOOOOOOOOOOOOOOOOOOOOOOOOOOOOOOOOOOOOOOOOOOOOOOOOOOOOOOOOOOOOOOOOOOOOOOOOOOOOOOOOOOOOOOOOOOOOOOOOOOOOOOOOOOOOOOOOOOOOOOOOOOOOOOOOOOOOOOOOOOOOOOOOOOOOOOOOOOOOOOOOOOOOOOOOOOOOOOOOOOOOOOOOOOOOOOOOOOOOOOOOOOOOOOOOOOOOOOOOOOOOOOOOOOOOOOOOOOoX +$$",
"$.*dkzzzzzzzzzzzxxzzzzzxzzzzzzzzzzzzzzzzzzzzzzzzzzzzzzzzzzzzzzzzxxzzzzzxzzzzzzzzzzzzzzzzzzzzzzzzzzzzzzzzzzzzzzzzxxzzzzzxzzzzzzzzzzzzzzzzzzzzzzzzzzzzzzzzzzzzzzzzxxzzzzzxzzzzzzzzzzzzzzzzzzzzzzzzzzzzzzzzzzzzzzzzxxzzzzzxzzzzzzzzzzzzzzzzzzzzzzzzzzzzzzzzzzzzzzzzzkd*.$",
"@>xSHKKKKKKKKKKKKKGGGGKKKKKKKKKKKKKKKKKKKKKKKKKKKKKKKKKKKKKKKKKKKKGGGGKKKKGKKKKKKKKKKKKKKKKKKKKKKKKKKKKKKKKKKKKKKKGGGGKKKKGKKKKKKKKKKKKKKKKKKKKKKKKKKKKKKKKKKKKKKKGGGGKKKKGKKKKKKKKKKKKKKKKKKKKKKKKKKKKKKKKKKKKKKKGGGGKKKKGKKKKKKKKKKKKKKKKKKKKKKKKKKKKKKKKKKKKKKFSx>@",
"&xDGGGGGGGGGGGGGGGGGGGGGGGGGGGGGGGGGGGGGGGGGGGGGGGGGGGGGGGGGGGGGGGGGGGGGGGGGGGGGGGGGGGGGGGGGGGGGGGGGGGGGGGGGGGGGGGGGGGGGGGGGGGGGGGGGGGGGGGGGGGGGGGGGGGGGGGGGGGGGGGGGGGGGGGGGGGGGGGGGGGGGGGGGGGGGGGGGGGGGGGGGGGGGGGGGGGGGGGGGGGGGGGGGGGGGGGGGGGGGGGGGGGGGGGGGGGGGGGKDz&",
";SFFFFFFFFFFFFFFFFFFFFFFFFFFFFFFFFFFFFFFFFFFFFFFFFFFFFFFFFFFFFFFFFFFFFFFFFFFFFFFFFFFFFFFFFFFFFFFFFFFFFFFFFFFFFFFFFFFFFFFFFFFFFFFFFFFFFFFFFFFFFFFFFFFFFFFFFFFFFFFFFFFFFFFFFFFFFFFFFFFFFFFFFFFFFFFFFFFFFFFFFFFFFFFFFFFFFFFFFFFFFFFFFFFFFFFFFFFFFFFFFFFFFFFFFFFFFFFFFFFN;",
"gSAAAAAAAAAAAAAAAAAAAAAAAAAAAAAAAAAAAAAAAAAAAAAAAAAAAAAAAAAAAAAAAAAAAAAAAAAAAAAAAAAAAAAAAAAAAAAAAAAAAAAAAAAAAAAAAAAAAAAAAAAAAAAAAAAAAAAAAAAAAAAAAAAAAAAAAAAAAAAAAAAAAAAAAAAAAAAAAAAAAAAAAAAAAAAAAAAAAAAAAAAAAAAAAAAAAAAAAAAAAAAAAAAAAAAAAAAAAAAAAAAAAAAAAAAAAAAAAAAASg",
"kZZZCCCCCCCCCCCCCCCCCCCCCCCCCCCCCCCCCCCCCCCCCCCCCCCCCCCCCCCCCCCCCCCCCCCCCCCCCCCCCCCCCCCCCCCCCCCCCCCCCCCCCCCCCCCCCCCCCCCCCCCCCCCCCCCCCCCCCCCCCCCCCCCCCCCCCCCCCCCCCCCCCCCCCCCCCCCCCCCCCCCCCCCCCCCCCCCCCCCCCCCCCCCCCCCCCCCCCCCCCCCCCCCCCCCCCCCCCCCCCCCCCCCCCCCCCCCCABZZDj",
"jBBBBBBBBBBBBBBBBBBBBBBBMCBBBBBBBBBBBBBBBBBBBBBBBBBBBBBBBBBBBBBBBBBBBBBBBBBBBBBBBBBBBBBBBBBBBBBBBBBBBBBBBBBBBBBBBBBBBBBBBBBBBBBBBBBBBBBBBBBBBBBBBBBBBBBBBBBBBBBBBBBBBBBBBBBBBBBBBBBBBBBBBBBBBBBBBBBBBBBBBBBBBBBBBBBBBBBBBBBBBBBBBBBBBBBBBBBBBBBBBBBBBBBBBBBBBBBBBBBBBj",
"hMMMMMMMMMMMMMMMMMMMMMMMMMMMMMMMMMMMMMMMMMMMMMMMMMMMMMMMMMMMMMMMMMMMMMMMMMMMMMMMMMMMMMMMMMMMMMMMMMMMMMMMMMMMMMMMMMMMMMMMMMMMMMMMMMMMMMMMMMMMMMMMMMMMMMMMMMMMMMMMMMMMMMMMMMMMMMMMMMMMMMMMMMMMMMMMMMMMMMMMMMMMMMMMMMMMMMMMMMMMMMMMMMMMMMMMMMMMMMMMMMMMMMMMMMMMMMMMMMMMMf",
"7mmmmmmmmmmmmmmmmmmmmmmmmmmmmmmnmmmmmmmmmmmmmmmmmmmmmmmmmmmmmmmmmmmmmmmmmmmmmmmmmmmmmmmmmmmmmmmmmmmmmmmmmmmmmmmmmmmmmmmmmmmmmmmmmmmmmmmmmmmmmmmmmmmmmmmmmmmmmmmmmmmmmmmmmmmmmmmmmmmmmmmmmmmmmmmmmmmmmmmmmmmmmmmmmmmmmmmmmmmmmmmmmmmmmmmmmmmmmmmmmmmmmmmmmmmmmmmmmmmmm7",
"6nnnnnnnnnnnnnnnnnnnnnnnnnnnnnnnnnnnnnnnnnnnnnnnnnnnnnnnnnnnnnnnnnnnnnnnnnnnnnnnnnnnnnnnnnnnnnnnnnnnnnnnnnnnnnnnnnnnnnnnnnnnnnnnnnnnnnnnnnnnnnnnnnnnnnnnnnnnnnnnnnnnnnnnnnnnnnnnnnnnnnnnnnnnnnnnnnnnnnnnnnnnnnnnnnnnnnnnnnnnnnnnnnnnnnnnnnnnnnnnnnnnnnnnnnnnnnnnnnnnn7",
"5bbbbbbbbbbbbbbbvnvnnvnvvnvnvnbbbbbbbbbbbbbbbbbbbbbbbbbbbbbbbbbbvnvnnvnvvnvnvnvnbbbbbbbbbbbbbbbbbbbbbbbbbbbbbbbbvnvnnvnvvnvnvnvnbbbbbbbbbbbbbbbbbbbbbbbbbbbbbbbbvnvnnvnvvnvnvnvnbbbbbbbbbbbbbbbbbbbbbbbbbbbbbbbbvnvnnvnvvnvnvnvnbbbbbbbbbbbbbbbbbbbbbbbbbbbbbbbbbbbbb5",
"4vvvvvvvvvvvvvvvvvvvvvvvvvvvvvvvvvvvvvvvvvvvvvvvvvvvvvvvvvvvvvvvvvvvvvvvvvvvvvvvvvvvvvvvvvvvvvvvvvvvvvvvvvvvvvvvvvvvvvvvvvvvvvvvvvvvvvvvvvvvvvvvvvvvvvvvvvvvvvvvvvvvvvvvvvvvvvvvvvvvvvvvvvvvvvvvvvvvvvvvvvvvvvvvvvvvvvvvvvvvvvvvvvvvvvvvvvvvvvvvvvvvvvvvvvvvvvvvvvvvv4",
"3cccccccccccccccccccccccccccccccccccccccccccccccccccccccccccccccccccccccccccccccccccccccccccccccccccccccccccccccccccccccccccccccccccccccccccccccccccccccccccccccccccccccccccccccccccccccccccccccccccccccccccccccccccccccccccccccccccccccccccccccccccccccccccccccccccc4",
"2ssssssssssssssssssssssssssscsscssssssssssssssssssssssssssssssssssssssssssssssscssssssssssssssssssssssssssssssssssssssssssssssscssssssssssssssssssssssssssssssssssssssssssssssscssssssssssssssssssssssssssssssssssssssssssssssscsssssssssssssssssssssssssssssssssssss2",
"1aaaaaaaaaaaaaaaaaaaaaaaaaaaaappaaaaaaaaaaaaaaaaaaaaaaaaaaaaaaaaaaaaaaaaaaaaaappaaaaaaaaaaaaaaaaaaaaaaaaaaaaaaaaaaaaaaaaaaaapsppaaaaaaaaaaaaaaaaaaaaaaaaaaaaaaaaaaaaaaaaaaaapsppaaaaaaaaaaaaaaaaaaaaaaaaaaaaaaaaaaaaaaaaaaaapsppaaaaaaaaaaaaaaaaaaaaaaaaaaaaaaaaaaaaa1",
"1ppppppppppppppppppppppppppppppppppipppipppipppipppppppppppppppppppppppppppppppppppppppppppipppippppppppppppppppppppppppppppppppppppppppppppppppppppppppppppppppppppppppppppppppppppppppppppppppppppppppppppppppppppppppppppppppppppppppppppppppppppppppppppppppppppp1",
",iiiiiiiiiiiiiiiiiiiiiiiiiiiiiiiiiiiiiiiiiiiiiiiiiiiiiiiiiiiiiiiiiiiiiiiiiiiiiiiiiiiiiiiiiiiiiiiiiiiiiiiiiiiiiiiiiiiiiiiiiiiiiiiiiiiiiiiiiiiiiiiiiiiiiiiiiiiiiiiiiiiiiiiiiiiiiiiiiiiiiiiiiiiiiiiiiiiiiiiiiiiiiiiiiiiiiiiiiiiiiiiiiiiiiiiiiiiiiiiiiiiiiiiiiiiiiiiiuiiu,",
":tyyyyyyyyyyyyyyyyyyyyyyyyyyyyyyyyyyyyyyyyyyyyyyyyyyyyyyyyyyyyyyyyyyyyyyyyyyyyyyyyyyyyyyyyyyyyyyyyyyyyyyyyyyyyyyyyyyyyyyyyyyyyyyyyyyyyyyyyyyyyyyyyyyyyyyyyyyyyyyyyyyyyyyyyyyyyyyyyyyyyyyyyyyyyyyyyyyyyyyyyyyyyyyyyyyyyyyyyyyyyyyyyyyyyyyyyyyyyyyyyyyyyyyyyyyyyyyyyutr:",
"%errrrrrrrwyrrrrrrrrrrrrrrrrrrrrryrrryrrryrrryrrrrrrrwywrrrrrrrrrrrrrrrrrrrrrrrrrrrrrrrrryrrryrrrrrrrrrrrrrrrrrrrrrrrrrrrrrrrrrrrrrrrrrrrrrrrrrrrrrrrrrrrrrrrrrrrrrrrrrrrrrrrrrrrrrrrrrrrrrrrrrrrrrrrrrrrrrrrrrrrrrrrrrrrrrrrrrrrrrrrrrrrrrrrrrrrrrrrrrrrrrrrrrrrrrre%",
"$=9wwwwwwwwwww0rwwwwwwwwwwwwwwwwwwwwwwwwwwwwwwwwr0wwwwwwwwwwwwwwwwwwwwwwwwwwwwwwwwwwwwwwwwwwwwwwwwwwr0wwwwwwwwwwwwwwwwwwwwwwwwwwwwwwwwwwwwwwwwwwr0wwwwwwwwwwwwwwwwwwwwwwwwwwwwwwwwwwwwwwwwwwwwwwwwwwr0wwwwwwwwwwwwwwwwwwwwwwwwwwwwwwwwwwwwwwwwwwr0wwwwwwwwwwwwwwwww8=$",
"$$-,8000w0000w00qw0000w0qqqqqqqqqqqqqqqqqqqqqqqq000ww0qqqqqqqwqqqqqqqqqqqqqqqqqqqqqqqqqqqqqqqqqqqw00q00wqqqqqqqqqqqqqqqqqqqqqqqqqqqqqqqqqqqqqqqq000ww0qqqqqqqqqqqqqqqqqqqqqqqqqqqqqqqqqqqqqqqqqqqw00q00wqqqqqqqqqqqqqqqqqqqqqqqqqqqqqqqqqqqqqqqq000ww0qqqqqqqqqqq8,&$$"
};
