/* XPM */
static char *__png[] = {
/* columns rows colors chars-per-pixel */
"262 22 65 1 ",
"  c #12281B",
". c #10341D",
"X c #103B1E",
"o c #1D2223",
"O c #182720",
"+ c #1E2825",
"@ c #1D3C2C",
"# c #27292D",
"$ c #1C452F",
"% c #1B4D2D",
"& c #185A2E",
"* c #155931",
"= c #106832",
"- c #1D6E38",
"; c #0E7F3A",
": c #0B8137",
"> c #0B8237",
", c #0D893A",
"< c #0F8B3D",
"1 c #128E3F",
"2 c #149141",
"3 c #179443",
"4 c #199746",
"5 c #1C9A48",
"6 c #1F9C4A",
"7 c #228042",
"8 c #258946",
"9 c #229F4C",
"0 c #269D4E",
"q c #06A241",
"w c #07A742",
"e c #08A041",
"r c #05A943",
"t c #05AA43",
"y c #07AC44",
"u c #09AE46",
"i c #0CAD47",
"p c #0CB149",
"a c #0EB44B",
"s c #11B74E",
"d c #14BA51",
"f c #18BE54",
"g c #24A24F",
"h c #26A350",
"j c #2CA454",
"k c #2FAE59",
"l c #2EB059",
"z c #1BC257",
"x c #1FC55A",
"c c #22C95D",
"v c #26CD60",
"b c #35CF68",
"n c #29D063",
"m c #2DD466",
"M c #38D46D",
"N c #30D869",
"B c #33DB6C",
"V c #35D96C",
"C c #36DE6F",
"Z c #39DD6F",
"A c #39E171",
"S c #3CE173",
"D c #3BE473",
"F c #3DE576",
"G c #3DE676",
/* pixels */
"###########################################################################################################o .XXXXXXXXXXXXXXXXXXXXXXXXXXXXXXXXXXXXXXXXXXX. o##########################################################################################################",
"##########################################################################################################O&8jkkllkkkkllkkkkllkkkkllkkkkllkkkkklkkkkklkkkj8& #########################################################################################################",
"#########################################################################################################+-lMSFFGGFFFFFFFFFFGGFDFFFFFFFFFGFDFFGGGGFFFFFDFDVk-#########################################################################################################",
"#########################################################################################################%lZDDDFDDDDDDDDDDDDDDDDDDDDDDDDDDDSDDDDDDDDDDDDDDSZl%########################################################################################################",
"#########################################################################################################7bASAAAAAAAAAAAAAAAAAAAAAAAAAAAAAAAAAAAAAAAAAAAAAAAb-########################################################################################################",
"#########################################################################################################0BCCCCCCCCCCCCCCACCCCCCCCCCAACCCCCCCCCZAZCACCCACCZAB0########################################################################################################",
"#########################################################################################################gBBBBBBBBBBBBBBCNCNCNCNBBBBBBBBCNNCCNBVBBBBNBBBBBBBAh########################################################################################################",
"#########################################################################################################gNNNNNNNNNNNNNBNNNNNNNNNNNNNNNNNNNNNNNBNNNNNNNNNNNNNh########################################################################################################",
"#########################################################################################################9mmmmmmmmmmmmmmmmmmmmmmmmmmmmmmmmmmmmmmmmmNmmmNmmmmm5########################################################################################################",
"#########################################################################################################6nnnnnnnnnnnnnnnnnnnnnnnnnnmmnnnnnnnmnnnnnmnnnnnnnnn9########################################################################################################",
"#########################################################################################################5cvvvvvcnnccnvvvvcncncncncccccccmccccccccnccccccncnc5########################################################################################################",
"#########################################################################################################4ccccccccccccccccccccccccccccccccccccccccccccccccccc4########################################################################################################",
"#########################################################################################################3zccczcxxxxxxxxcxxxxxxxccczczcccccccfcccczczcccccccc3########################################################################################################",
"#########################################################################################################1zzzzzfzzzzzzzzzzzzzzzzzxzzzzzzzfzzcffcczzfzzfffffzz2########################################################################################################",
"#########################################################################################################1fffffffffffffffzffffzzffffffffffffdfffffzfzffzffzdf1########################################################################################################",
"#########################################################################################################1ddddddddddddddssfsddadsdddddddddddsdddsfssddsddsddd1########################################################################################################",
"#########################################################################################################,sssssssssssssssssssssssssssssssssssssssssssssssssss,########################################################################################################",
"#########################################################################################################:aaaaaaaaaaaaaaaaaaaaaaaaaaaaaaaaaaaaaasppsaaaaaaaaa>########################################################################################################",
"#########################################################################################################=ipppppppppppppppppppppppppppppppppppppppipppppppppu=########################################################################################################",
"#########################################################################################################@eiuuuuuuuuuuuuuuuyuuuuuuuuuuuyuuuuuuuuuuuuuuuyuuuue@########################################################################################################",
"##########################################################################################################*wyryyyyyyuyyyyyyyyyyyyyyyyyyyyyyyyyyyyyyyyyyyyrur&#########################################################################################################",
"###########################################################################################################$:qwrrryrrrrrttttrrryytttryrrryrrrryrryryrrttrq;$##########################################################################################################"
};
