/* XPM */
static char *__png[] = {
/* columns rows colors chars-per-pixel */
"262 22 67 1 ",
"  c #282814",
". c #26271B",
"X c #343410",
"o c #393A10",
"O c #3A3B10",
"+ c #212221",
"@ c #272823",
"# c #27292D",
"$ c #393C21",
"% c #4B4D1D",
"& c #555918",
"* c #595A18",
"= c #7A7F0F",
"- c #646811",
"; c #6D6E1D",
": c #424421",
"> c #7D810C",
", c #7E820C",
"< c #7F8023",
"1 c #85890D",
"2 c #888B0F",
"3 c #8B8E12",
"4 c #8E9114",
"5 c #919417",
"6 c #949719",
"7 c #979A1C",
"8 c #9A9C1F",
"9 c #9CA207",
"0 c #9CA008",
"q c #A1A707",
"w c #A3A905",
"e c #A4AA05",
"r c #A6AC07",
"t c #A9AE09",
"y c #A8AD0C",
"u c #ACB10C",
"i c #AEB30E",
"p c #AFB40E",
"a c #B2B711",
"s c #B6BA14",
"d c #B9BE18",
"f c #888925",
"g c #9D9F22",
"h c #9B9D26",
"j c #A0A224",
"k c #A2A42C",
"l c #ABAD2F",
"z c #ACAE2F",
"x c #AEB02E",
"c c #B0B22F",
"v c #BDC21B",
"b c #C1C51F",
"n c #C5C922",
"m c #C9CD26",
"M c #CDD029",
"N c #D1D42D",
"B c #CECF35",
"V c #D5D830",
"C c #D6D935",
"Z c #D8DB33",
"A c #DBDE36",
"S c #D2D438",
"D c #DADD39",
"F c #DFE139",
"G c #E1E43B",
"H c #E3E53D",
"J c #E4E63D",
/* pixels */
"#####################################################################################################. XooooooOOOOOOOOOOOOOOOOOoOOOOOOOOOOOOOOOOOOOOOOOOOOOOOOOX +####################################################################################################",
"####################################################################################################.*fkllzlzzzzcczzzzzzzzzzccclzlzczzzzzczzzzccllzzzzzzzzzzzzzkf&.###################################################################################################",
"###################################################################################################@;cSGHHHHJJJJJJJJJJJJJJJJGJGFFJJJJJJJJJFFFJJJJJJJJJJJJJJJJJFGSx;@##################################################################################################",
"###################################################################################################%zDGGHHGGGGGGFFFFFJFJJFJFGGFFJFJFJFJFJFJFJFJFJJFFGGFFGGGGGGGGFFz%##################################################################################################",
"###################################################################################################fBDGAFFGGGGAGFFFFFFFFFFFFFFFFFFFFFFFFFFFFFFFFFFFFFFFFFFFFFFFFFFB<##################################################################################################",
"###################################################################################################hCAAAAAAAAAAAZFFZZFZFFFVFCFFCAAAAFAAACFFCVFFFAFAAAAAAAAAAFDAFVFFh##################################################################################################",
"###################################################################################################jCZZZVAZZZZZZZZZZZZCZCCCFVFVFZZZZZZZZFVFVVFCCZZZZZZZZZZZZZZZZFVCj##################################################################################################",
"###################################################################################################jNCVVVNVVVVVNVVVVVVZZVVVVVVNVVVVVVVVVVVNVVNVCVVVVVVVVVVVVVVZNVNCj##################################################################################################",
"###################################################################################################gNNNNNNNNNNNNMNNNNNMNNNNMNNNMNNNNNNNNNNNNNNNNNNNNNNNNNNNNNNNNNNNg##################################################################################################",
"###################################################################################################8MMmNNmMmMMMMMMMMMMMMMMMMMMMMmMMMMMMMMMMMMmMMMMMMMMMMMmMMMMMMMMM8##################################################################################################",
"###################################################################################################7mmmmmmmmmmmmmmmmMmmmMmMmMMMMmmmmmmmmmmmmmmmmmmmmmmmmmmmmmmmmmmm7##################################################################################################",
"###################################################################################################6nnnbnnnnnnnnnnnnnnnnbbMbbbbbnnnnnnnnnnnnnnnnnnnnnnnnnnnnnnnnnnn6##################################################################################################",
"###################################################################################################5bbbbbbbbnbbbvbbbbbbbbbbbbbbbbbvvvvvbbbvbbbvbbbbbvbbbvvvvvnbbvvv5##################################################################################################",
"###################################################################################################5vvvvvvvvbvvvvvvvvvvvbbvvvbdbvvvvvvvvvvvvvvvvvvvvvvvvvvvvvvvvvvv4##################################################################################################",
"###################################################################################################1ddddddddddddvssvvsvssvvsddddvvivvvavvvavvvvvvvvvvaavvvvvavvvvvv3##################################################################################################",
"###################################################################################################2ssssssssssssssssssssssssssssvvavavaaavasasaaassaavavaaivavivaav4##################################################################################################",
"###################################################################################################1aaaaaaaaaaaaaaaaaaaaaaaaaaaaaaaaaaaaaaaaaaaaiaaaaaaaaaaaaaaaaaa,##################################################################################################",
"###################################################################################################1iiaippppppppppppppppppppppppppppppppppppppppiiiippppppppppppauu,##################################################################################################",
"###################################################################################################-yyyiuuuuuuuiuuuuuuuuuuuuuuuuuuuuuuuuuuuuuuuuuuuuuuuuuuuuuuuupuu-##################################################################################################",
"###################################################################################################o0tyyurrururttttttttttttttttttttttttttttttttttttyruruurttttttru9$##################################################################################################",
"####################################################################################################*qrrrrrrrrtwrrrrrrrrrrrrrrrrrrrrrrrrrrrrrrrrrrtwtwrrrrrrrrrrw9&###################################################################################################",
"#####################################################################################################:,0wrwwwwwweeeeeeeeeeeeeeeeeeeeeeeeeeeeeeeewwwwwwwreeeeeee9>:####################################################################################################"
};
