/* XPM */
static char *__png[] = {
/* columns rows colors chars-per-pixel */
"262 22 68 1 ",
"  c #281E14",
". c #26211B",
"X c #342310",
"o c #3B2610",
"O c #212121",
"+ c #272422",
"@ c #272423",
"# c #27292D",
"$ c #3A2F21",
"% c #4C351D",
"& c #5A3B18",
"* c #583D18",
"= c #433520",
"- c #7F500F",
"; c #674311",
": c #6E471D",
"> c #81500C",
", c #82500C",
"< c #89540D",
"1 c #8B560F",
"2 c #8E5812",
"3 c #915A14",
"4 c #945C17",
"5 c #975E19",
"6 c #9A611C",
"7 c #9C631F",
"8 c #A16107",
"9 c #A76407",
"0 c #AA6605",
"q c #AC6707",
"w c #A06108",
"e c #AE6909",
"r c #AD680C",
"t c #B16B0C",
"y c #B36E0E",
"u c #B46E0E",
"i c #B77011",
"p c #BA7314",
"a c #BE7618",
"s c #805423",
"d c #895925",
"f c #9F6522",
"g c #9D6526",
"h c #A26724",
"j c #A36926",
"k c #A46B2C",
"l c #AE712F",
"z c #B0722E",
"x c #B2732F",
"c c #C2781B",
"v c #C57B1F",
"b c #C97E22",
"n c #CD8126",
"m c #D08429",
"M c #D4872D",
"N c #CF8635",
"B c #D88A30",
"V c #DA8C33",
"C c #DB8D33",
"Z c #D98C35",
"A c #DE8F36",
"S c #D48938",
"D c #DD8F39",
"F c #E19139",
"G c #E4943B",
"H c #E1913C",
"J c #E5943D",
"K c #E6953D",
/* pixels */
"##############################################################################################O XooooooooooooooooooooooooooooooooooooooooooooooooooooooooooooooooooooooX..############################################################################################",
"#############################################################################################.*dkllllzlllllzlllllzlllllzlllllllllllllllllzlllllllllllllllllllllllllllllkd*.###########################################################################################",
"############################################################################################+:zSFJJJKKKGJJKKKKJJKKKKGKKKKKKKKKKKKKKKKKKKKKKGKKKKKKKKKKKKKKKKKKKKKKKKKKKFSz:+##########################################################################################",
"############################################################################################%zDJJGGGGGGGGGGGGGGJGGGGGGGGGGGGGGGGGGGGGGGGGGGGGGGGGGGGGGGGGGGGGGGGGGGFKGGGJAl%##########################################################################################",
"############################################################################################sNFFFFFFFFFFFFFFFFFFFFFFFFFFFFFFFFFFFFFFFFFFFFFFFFFGFFFFFFFFFFFFFFFFFFFFFFFFFFNs##########################################################################################",
"############################################################################################gZAAAAAAAAAAAAAAAAAACFFCCFCFAAAAAAAAAAAAAAAAAAAAAAACAAAAAAAAAAAAAAAAAAAAAAAAAAZg##########################################################################################",
"############################################################################################jVVVVVCCCCCCCCCCCCCCCCCCCCBCCCCCCCCCCCCCCCCCCVABBACCCCCCCCCCCCCCCCCCCCCVVVVVVVVj##########################################################################################",
"############################################################################################hBBBVBBBBBBBBBBBBBBBBBBBBBBBBBBBBBBBBBBBBBBBBBBBBBBBBBBBBBBBBBBBBBBBBBBBBBBBVMVh##########################################################################################",
"############################################################################################fMMMMMMMMMMMMMMMMMMMMMMMMMMMMMMMMMMMBBmBMMMMMMMMMMMMMMMmMMMMMMMMMMMMMMMMMMMMMMMf##########################################################################################",
"############################################################################################7mmmmmmmmmmmmmmmmmmmmnmmmmmmmmmmmmmmnmmmmmmmmmmmmnmmmmmnmmmnmmnnnMMnMMnmmmMnmmm6##########################################################################################",
"############################################################################################6nnnnnnnnnnnnnnnnnnnnnnnnnnnnnnnnnnnnnnnnnnvnnnnnnnvnnnnnnnnnnnnnnnnnnnvnnnnnnn6##########################################################################################",
"############################################################################################5bbbvnvnvnvnnvnvvnvnnvnvnvnvnvnvnvnvnvnnvnvnvnvnvnvnnnnvnnvnnnvnnvnnvnvnnvnvbnn4##########################################################################################",
"############################################################################################4vbvvvvvvvvvvvvvvvvvvvvvvvvvcvvvvvvvavncvcnvnvnvannvcvvvvvvvvvvvavvvnanvbnanabv2##########################################################################################",
"############################################################################################3ccccccccccccccccccccccccccccccccccccaccccccaacccpccaccccccccccccccccaaaaccaavv2##########################################################################################",
"############################################################################################2aaaaaaaaaaaaaaaaaaaaaaaaaaaaacaaaaaaaaaaaaaaaaaaaaaaaaaaaaaaaaaacaaaaaaaaaaaaa2##########################################################################################",
"############################################################################################<ppppppppppppppppppppppppppppppppppppppppppppppppppppppppppppppppiaippppppppppp1##########################################################################################",
"############################################################################################<iiiiiiiiiiiiiiiiiiiiiiiiiiiiiiiiiiiiiiiiiiiiiiiiiiiuupuiiiiiiiiiiiiiiiiiiiiiii<##########################################################################################",
"############################################################################################>yuuuuuuuuuuuuuuuuuuuuuuuuuuuuuuuuuuuuuuuuuuuuuuuuuuyuuiuuuuuuuuuuuuittuuuuuuuu,##########################################################################################",
"############################################################################################;rtttttttttttttttttttttttttttttttttttttttttttttttttttttttttttttttttttttttttttte;##########################################################################################",
"############################################################################################$weeeeeeeeeeeeeeeeeeeeeeeeeeeeeeeeeeeeeeeeeeeeeeeeeeeeeeeeeeeeeeeeeeeeeeeeeeee8$##########################################################################################",
"#############################################################################################*9q0e0e00e0qqqqqqqqqqqqqqqqqqqqqqqqqqqqqqqqqqqqqqqqe0e0e0e00e0ee0e0qqqqqqqqe9*###########################################################################################",
"##############################################################################################=-900000000000000000000000000000000000000000000000000000000000000000000008-%############################################################################################"
};
