/* XPM */
static char *__png[] = {
/* columns rows colors chars-per-pixel */
"262 22 60 1 ",
"  c #281314",
". c #26191B",
"X c #341010",
"o c #3B1010",
"O c #211E21",
"+ c #3A1E21",
"@ c #272023",
"# c #27292D",
"$ c #4C1C1D",
"% c #581618",
"& c #5A1818",
"* c #671011",
"= c #6E1D1D",
"- c #431E21",
"; c #820B0C",
": c #810C0C",
"> c #890D0D",
", c #8E1212",
"< c #911414",
"1 c #941717",
"2 c #971919",
"3 c #9A1C1C",
"4 c #9C1F1F",
"5 c #A70707",
"6 c #AA0505",
"7 c #AC0707",
"8 c #A00808",
"9 c #AE0909",
"0 c #AD0C0C",
"q c #B10C0C",
"w c #B40E0E",
"e c #B71111",
"r c #BA1415",
"t c #BE1818",
"y c #802223",
"u c #892525",
"i c #9F2222",
"p c #9D2626",
"a c #A22424",
"s c #A32626",
"d c #A42C2C",
"f c #AE2F2F",
"g c #B22F2F",
"h c #C21B1B",
"j c #C51F1F",
"k c #C92222",
"l c #CD2626",
"z c #D02929",
"x c #D42D2D",
"c c #CF3535",
"v c #D83030",
"b c #DB3333",
"n c #D93535",
"m c #DE3636",
"M c #D43838",
"N c #DD3939",
"B c #E13939",
"V c #E43B3B",
"C c #E13C3C",
"Z c #E63D3D",
/* pixels */
"#################################################################################@ XooooooooooooooooooooooooooooooooooooooooooooooooooooooooooooooooooooooooooooooooooooooooooooooooX O###############################################################################",
"################################################################################.&udffffffffffffffffffffffffffffffffffffffffffffffffffffffffffffffffffffffffffffffffffffffffffffffffdu%.##############################################################################",
"###############################################################################@=gMCZZZZZZZZZZZZZZZZZZZZZZZZZZZZZZZZZZZZZZZZZZZZZZZZZZZZZZZZZZZZZZZZZZZZZZZZZZZZZZZZZZZZZZZZZZZZZZZZBMg=@#############################################################################",
"###############################################################################$gCZVCVVVVVVVVVVVVVVVVVVVVVVVVVVVVVVVVVVVVVVVVVVVVVVVVVVVVVVVVVVVVVVVVVVVVVVVVVVVVVVVVVVVVVVVVVVVVVVVVVNf$#############################################################################",
"###############################################################################=cBBBBBBBBBBBBBBBBBBBBBBBBBBBBBBBBBBBBBBBBBBBBBBBBBBBBBBBBBBBBBBBBBBBBBBBBBBBBBBBBBBBBBBBBBBBBBBBBBBBBBBcy#############################################################################",
"###############################################################################pbmmBmmmmmmmmmmmmmmmmmmmmmmmmmmmmmmmmmmmmmmmmmmmmmmmmmmmmmmmmmmmmmmmmmmmmmmmmmmmmmmmmmmmmmmmmmmmmmmmBmmmnp#############################################################################",
"###############################################################################abbbbbbbbbbbbbbbbbbbbbbbbbbbbbbbbbbbbbbbbbbbbbbbbbbbbbbbbbbbbbbbbbbbbbbbbbbbbbbbbbbbbbbbbbbbbbbbbbbbbbbbbs#############################################################################",
"###############################################################################abxxbxbxbvvvvvvbxvvvvvvvvvvvvvvvvvvvvvvvvvvvvvvvvvvvvvvvvvvvvvvvvvvvvvvvvvvvvvvvvvvvbxbxbvvvvvvvvxbxbxbxba#############################################################################",
"###############################################################################ixxxxxxxxxxxxxxxxxxxxxxxxxxxxxxxxxxxxxxxxxxxxxxxxxxxxxxxxxxxxxxxxxxxxxxxxxxxxxxxxxxxxxxxxxxxxxxxxxxxxxxxxa#############################################################################",
"###############################################################################4zzzzzzzzzzzzzzzzzzzzzzzzzzzzzzzzzzzzzzzzzzzzzzzzzzzzzzzzzzzzzzzzzzzzzzzzzzzzzzzzzzzzzzzzzzzzzzzzzzzzzzzz3#############################################################################",
"###############################################################################3llllllllllllllllllllllllllllllllllllllllllllllllllllllllllllllllllllllllllllllllllllllllllllllllllllllll3#############################################################################",
"###############################################################################2kkkkkkkkkkkkkkkkkkkkkkkkkkkkkkkkkkkkkkkkkkkkkkkkkkkkkkkkkkkkkkkkkkkkkkkkkkkkkkkkkkkkkkkkkkkkkkkkkkkkkkkk2#############################################################################",
"###############################################################################2jjjjjjjjjjjjjjjjjjjjjjjjjjjjjjjjjjjjjjjjjjjjjjjjjjjjjjjjjjjjjjjjjjjjjjjjjjjjjjjjjjjjjjjjjjjjjjjjjjjjjjjj2#############################################################################",
"###############################################################################,hhhhhhhhhhhhhhhhhhhhhhhhhhhhhhhhhhhhhhhhhhhhhhhhhhhhhhhhhhhhhhhhhhhhhhhhhhhhhhhhhhhhhhhhhhhhhhhhhhhhhhhh,#############################################################################",
"###############################################################################,tttttttttttttttttttttttttttttttttttttttttttttttttttttttttttttttttttttttttttttttttttttttttttttttttttttttt,#############################################################################",
"###############################################################################,rrrrrrrrrrrrrrrrrrrrrrrrrrrrrrrrrrrrrrrrrrrrrrrrrrrrrrrrrrrrrrrrrrrrrrrrrrrrrrrrrrrrrrrrrrrrrrrrrrrrrrrr>#############################################################################",
"###############################################################################>eeeeeeeeeeeeeeeeeeeeeeeeeeeeeeeeeeeeeeeeeeeeeeeeeeeeeeeeeeeeeeeeeeeeeeeeeeeeeeeeeeeeeeeeeeeeeeeeeeeeeeee>#############################################################################",
"###############################################################################:wwwwwwwqwwwwwwwwwwwwwwwwwwwwwwwwwwwwwwwwwwwwwwwwwwwwwwwwwwwwwwwwwwwwwwwwwwwwwwwwwqwwwwwwwwwwwwwwwwwwwwwq;#############################################################################",
"###############################################################################*0qqqqqqqqqqqqqqqqqqqqqqqqqqqqqqqqqqqqqqqqqqqqqqqqqqqqqqqqqqqqqqqqqqqqqqqqqqqqqqqqqqqqqqqqqqqqqqqqqqqqqq0*#############################################################################",
"###############################################################################+89999999999999999999999999999999999999999999999999999999999999999999999999999999999999999999999999999998+#############################################################################",
"################################################################################%596696977777777777777777777777777777777777777777777777777777777777777777777777777777777977777779777675%##############################################################################",
"#################################################################################-:86666666666666666666666666666666666666666666666666666666666666666666666666666666666666666666666668;-###############################################################################"
};
