/* XPM */
static char *orange_s_png[] = {
/* columns rows colors chars-per-pixel */
"4 22 50 1 ",
"  c #281E14",
". c #26211B",
"X c #212121",
"o c #272423",
"O c #27292D",
"+ c #3A2F21",
"@ c #4C351D",
"# c #5A3B18",
"$ c #583D18",
"% c #7F500F",
"& c #674311",
"* c #6E471D",
"= c #81500C",
"- c #89540D",
"; c #8B560F",
": c #8E5812",
"> c #915A14",
", c #945C17",
"< c #975E19",
"1 c #9A611C",
"2 c #9C631F",
"3 c #A76407",
"4 c #AC6707",
"5 c #A06108",
"6 c #AE6909",
"7 c #AD680C",
"8 c #B16B0C",
"9 c #B36E0E",
"0 c #B46E0E",
"q c #B77011",
"w c #BA7314",
"e c #BE7618",
"r c #895925",
"t c #9D6526",
"y c #A26724",
"u c #A36926",
"i c #B2732F",
"p c #C2781B",
"a c #C57B1F",
"s c #C97E22",
"d c #CD8126",
"f c #D08429",
"g c #D4872D",
"h c #D88A30",
"j c #D98C35",
"k c #DE8F36",
"l c #D48938",
"z c #DD8F39",
"x c #E19139",
"c c #E4943B",
/* pixels */
"OOX ",
"O.#r",
"o*il",
"@izc",
"%lxx",
"tlkk",
"ujjj",
"ujhh",
"yggg",
"2fff",
"1ddd",
"<sss",
",aaa",
">ppp",
":eee",
";www",
";qqq",
"=999",
"&788",
"+566",
"O$34",
"OO@%"
};
